<svg width="6" height="24" viewBox="0 0 6 24" fill="none" xmlns="http://www.w3.org/2000/svg">
<path d="M0.515204 3.10673C0.515204 2.26729 0.719945 1.64283 1.12943 1.23335C1.55938 0.844337 2.10195 0.649833 2.75712 0.649833L3.30992 0.649833C3.96509 0.649833 4.50766 0.844338 4.93761 1.23335C5.36757 1.64283 5.58255 2.26729 5.58255 3.10673C5.58255 3.96664 5.36757 4.5911 4.93761 4.98011C4.50766 5.36912 3.96509 5.56362 3.30992 5.56362L2.75712 5.56362C2.10195 5.56362 1.55938 5.36912 1.12943 4.98011C0.719945 4.5911 0.515204 3.96664 0.515204 3.10673ZM0.515204 12.2541C0.515204 11.4147 0.719945 10.7902 1.12943 10.3807C1.55938 9.99171 2.10195 9.79721 2.75712 9.79721L3.30992 9.79721C3.96509 9.79721 4.50766 9.99171 4.93761 10.3807C5.36757 10.7902 5.58255 11.4147 5.58255 12.2541C5.58255 13.114 5.36757 13.7385 4.93761 14.1275C4.50766 14.5165 3.96509 14.711 3.30992 14.711L2.75712 14.711C2.10195 14.711 1.55938 14.5165 1.12943 14.1275C0.719945 13.7385 0.515204 13.114 0.515204 12.2541ZM0.515203 21.4015C0.515203 20.562 0.719945 19.9376 1.12943 19.5281C1.55938 19.1391 2.10195 18.9446 2.75712 18.9446L3.30992 18.9446C3.96509 18.9446 4.50766 19.1391 4.93761 19.5281C5.36757 19.9376 5.58255 20.562 5.58255 21.4015C5.58255 22.2614 5.36757 22.8859 4.93761 23.2749C4.50766 23.6639 3.96509 23.8584 3.30992 23.8584L2.75712 23.8584C2.10195 23.8584 1.55938 23.6639 1.12943 23.2749C0.719944 22.8859 0.515203 22.2614 0.515203 21.4015Z" fill="white"/>
</svg>
