<svg width="45" height="45" viewBox="0 0 45 45" fill="none" xmlns="http://www.w3.org/2000/svg">
<path d="M22.5 45C34.9264 45 45 34.9264 45 22.5C45 10.0736 34.9264 0 22.5 0C10.0736 0 0 10.0736 0 22.5C0 34.9264 10.0736 45 22.5 45Z" fill="#F6EFE9"/>
<mask id="mask0_130_385" style="mask-type:luminance" maskUnits="userSpaceOnUse" x="0" y="0" width="45" height="45">
<path d="M22.5 45C34.9264 45 45 34.9264 45 22.5C45 10.0736 34.9264 0 22.5 0C10.0736 0 0 10.0736 0 22.5C0 34.9264 10.0736 45 22.5 45Z" fill="white"/>
</mask>
<g mask="url(#mask0_130_385)">
<path d="M45.1233 45.1365C45.103 45.015 44.4962 41.4726 42.4403 40.5838C42.4403 40.5838 38.3356 38.972 37.4278 38.7361C37.4278 38.7361 36.143 38.247 35.1958 37.7935C34.7213 37.5661 34.4401 37.339 34.2523 37.0987C34.0807 36.8793 33.2047 36.1413 33.2047 36.1413C33.2047 36.1413 27.5213 40.1119 22.4694 39.9547C22.4694 39.9547 17.3385 40.0727 11.6551 36.1021L10.5894 36.9668L10.7867 37.242C10.7867 37.242 8.10291 38.8146 5.45854 39.4042C5.45854 39.4042 1.43277 40.78 0.919682 41.8022L-0.13736 45.1361H45.1233V45.1365Z" fill="#3A6A83"/>
<path d="M24.8582 41.2167C23.281 41.5311 21.659 41.5124 20.0774 41.2374C17.1947 40.8386 14.323 39.7335 12.0458 37.9512C11.7382 37.7497 11.4356 37.5398 11.13 37.3349C11.1031 37.3171 11.0804 37.297 11.0593 37.2765C10.983 37.2258 10.9069 37.1746 10.8313 37.123C9.9482 37.721 8.98641 38.2021 7.97898 38.5516C7.71681 38.6425 7.45156 38.7247 7.18366 38.7975C6.87342 38.8817 6.85535 38.9756 6.75855 39.2845C6.59825 39.797 6.52108 40.3359 6.53255 40.8728C6.54489 41.45 6.6558 42.0361 6.94156 42.5379C7.38695 43.3198 8.20587 43.8166 9.04109 44.1513C10.3744 44.6857 11.8191 44.8904 13.2541 44.9545C15.063 45.0352 16.8805 44.8855 18.6546 44.5252C21.8121 43.8842 24.8339 42.5787 27.4648 40.7193C27.6278 40.6042 27.789 40.4869 27.9488 40.3674C26.9363 40.7244 25.8839 41.0121 24.8582 41.2167Z" fill="#224656"/>
<path d="M39.1882 39.895C39.8045 40.592 40.6869 40.984 41.5475 41.3375C41.7109 41.4045 41.8749 41.4711 42.046 41.5143C42.6341 41.6625 43.2676 41.5251 43.8521 41.6857C43.9403 41.7099 44.0373 41.7509 44.0673 41.8374C43.1946 41.2414 42.7671 40.7561 41.8094 40.3091C41.3308 40.0855 40.3489 39.8426 39.8537 39.6584C39.4122 39.4944 38.857 39.2208 38.3903 39.1963C38.7225 39.3771 38.9371 39.6108 39.1882 39.895Z" fill="#224656"/>
<path d="M6.13366 39.8845C5.4885 40.5548 4.59021 40.9091 3.71552 41.2258C3.54949 41.2857 3.38257 41.3455 3.20993 41.3812C2.61614 41.5043 1.98927 41.3402 1.39813 41.476C1.30905 41.4965 1.21027 41.5334 1.17676 41.6185C2.07394 41.06 3.01677 40.5751 3.99245 40.1689C4.48018 39.9659 4.97629 39.7826 5.47902 39.6197C5.92706 39.4744 6.49329 39.2246 6.96073 39.2197C6.62073 39.3869 6.39649 39.6113 6.13366 39.8845Z" fill="#224656"/>
<path d="M31.6598 24.903C31.7704 24.8538 31.8377 24.7621 31.8937 24.6704C32.0048 24.4876 32.0727 24.2863 32.1296 24.096C32.1929 23.8775 32.2443 23.6839 32.2866 23.5046C32.3457 23.2603 32.3999 23.0116 32.4524 22.7708C32.5699 22.2313 32.6917 21.6734 32.8733 21.148C32.9353 20.9654 33.0098 20.7773 33.0949 20.5895C33.1578 20.4521 33.2275 20.3134 33.2947 20.1791C33.3172 20.1346 33.3395 20.0896 33.362 20.0446C33.5399 19.687 33.7192 19.3027 33.7866 18.8789C33.8228 18.6535 33.8235 18.4388 33.7882 18.2403C33.741 17.9757 33.6413 17.7819 33.4837 17.6474C33.4382 17.6086 33.3889 17.5815 33.3337 17.5522C33.2795 17.5266 33.2233 17.5072 33.1681 17.4951C33.117 17.4838 33.0623 17.4783 33.0061 17.4783C32.947 17.4783 32.8857 17.4845 32.8235 17.4968C32.661 17.5297 32.5179 17.5901 32.3916 17.6432L32.3082 17.6783L32.327 17.5899L32.4121 17.1908C32.4469 17.0221 32.4635 16.8634 32.4811 16.6953L32.4888 16.623C32.5062 16.4343 32.5195 16.244 32.5278 16.0581C32.562 15.3135 32.5263 14.5528 32.422 13.7974C32.3164 13.0314 32.1274 12.2921 31.8604 11.5997C31.5757 10.869 31.2031 10.2007 30.7529 9.61332C30.2819 9.0019 29.7278 8.47403 29.1062 8.04429C28.5213 7.64498 27.8578 7.31336 27.0786 7.03069C27.0067 7.00864 26.9326 6.98526 26.8587 6.96189C26.5772 6.87303 26.2861 6.78109 25.9931 6.72398L25.7153 6.66026L25.7016 6.65695C25.6169 6.63711 25.5294 6.6166 25.4427 6.60646L24.8816 6.52399C24.8489 6.51958 24.8156 6.51451 24.7824 6.50944C24.7241 6.5004 24.6637 6.49114 24.6049 6.48651L24.3235 6.46424L23.7613 6.41992C23.6993 6.41331 23.6459 6.41264 23.5921 6.41264H23.5729H23.5535C23.5355 6.41264 23.5172 6.41264 23.4984 6.4122L23.2387 6.41485L22.7748 6.42609C22.7754 6.43183 22.7759 6.43778 22.7756 6.44329L22.7719 6.55089L22.6954 6.47504L22.62 6.4003C22.6061 6.40052 22.5924 6.40074 22.5785 6.40074C22.5622 6.40074 22.5459 6.40052 22.5296 6.4003L22.4886 6.39941V6.40272L22.4423 6.40338C20.8088 6.4294 19.3944 6.65916 18.118 7.10565C17.3528 7.39318 16.6989 7.72634 16.1196 8.12389C15.51 8.54613 14.9636 9.06738 14.4959 9.67352C13.634 10.7912 13.0561 12.2211 12.825 13.8089C12.7168 14.5592 12.6768 15.3151 12.7064 16.0555C12.7227 16.4109 12.7445 16.791 12.8144 17.1813L12.8887 17.5451L12.9064 17.6309L12.825 17.5983C12.7399 17.5641 12.6261 17.5217 12.5007 17.4964C12.4389 17.4843 12.3774 17.4779 12.3183 17.4779C12.2621 17.4779 12.2074 17.4836 12.1563 17.4948C12.1014 17.507 12.0449 17.5266 11.9889 17.5528C11.9358 17.5811 11.8864 17.6082 11.8409 17.647C11.6833 17.7815 11.5836 17.9755 11.5365 18.2401C11.5012 18.4386 11.5016 18.6533 11.538 18.8784C11.6055 19.3022 11.7847 19.6868 11.9627 20.0442C11.9852 20.0894 12.0076 20.1342 12.0301 20.1789C12.0974 20.313 12.1671 20.4517 12.2297 20.5888C12.3148 20.7769 12.3893 20.965 12.4515 21.1478C12.633 21.673 12.7547 22.2308 12.8722 22.7704C12.9247 23.0109 12.9789 23.2599 13.038 23.5037C13.0806 23.6832 13.1319 23.8768 13.1952 24.0958C13.2521 24.2856 13.32 24.4869 13.4311 24.6697C13.4872 24.7612 13.5544 24.8529 13.6655 24.9023C13.722 24.9268 13.7793 24.9347 13.8278 24.9394L13.9815 24.9497L14.4013 24.9762L14.437 24.9784L14.4445 25.0134L14.6428 25.943C14.7252 26.3194 14.8749 26.6735 15.0877 26.995C15.1933 27.1536 15.3146 27.3033 15.448 27.4402C15.5086 27.5037 15.577 27.5674 15.6572 27.636C15.7044 27.6766 15.7505 27.7145 15.7968 27.7522C15.8224 27.7731 15.848 27.7941 15.8735 27.8155L16.1807 28.0671L16.193 28.0772L16.1968 28.0926L16.2096 28.146C16.2857 28.462 16.3575 28.7603 16.3974 29.067C16.4323 29.3294 16.4473 29.5909 16.4631 29.8676C16.4673 29.9399 16.4715 30.0125 16.4759 30.0854C16.4867 30.2696 16.4978 30.4537 16.509 30.6376C16.539 31.1323 16.5699 31.6441 16.5935 32.1475C16.6087 32.4569 16.6215 32.7783 16.6316 33.1033L16.632 33.1188L16.6232 33.1316C16.115 33.868 15.5272 34.5112 14.8758 35.0432C14.529 35.3279 14.1515 35.5927 13.7539 35.8297C13.3643 36.0595 12.9639 36.2621 12.5626 36.4326L12.59 36.5152C12.7013 36.6061 13.7112 37.4133 15.3585 38.2106C16.9634 38.9874 19.5192 39.9133 22.5807 39.9133C26.0191 39.9133 29.384 38.7691 32.5814 36.5133L32.6083 36.4323C32.207 36.2617 31.8064 36.059 31.4172 35.8295C31.0194 35.5923 30.642 35.3277 30.2951 35.0428C29.6328 34.5015 29.0363 33.8462 28.5228 33.095L28.514 33.0822L28.5146 33.0667C28.5261 32.7428 28.5418 32.4176 28.5607 32.1001C28.5812 31.7394 28.609 31.3729 28.6359 31.0188C28.6597 30.7053 28.6842 30.3811 28.7038 30.0619C28.7113 29.9432 28.716 29.8231 28.7204 29.7069C28.7285 29.4908 28.7369 29.2674 28.7651 29.0538C28.7925 28.8017 28.8511 28.5546 28.9131 28.2926C28.9285 28.2278 28.9437 28.1627 28.9587 28.0973L28.9622 28.0816L28.9746 28.0715L29.2932 27.81C29.3186 27.7888 29.3441 27.7678 29.3697 27.7469C29.4158 27.709 29.4619 27.6713 29.5088 27.6307C29.5937 27.5579 29.6603 27.496 29.7179 27.4358C29.8517 27.2993 29.9732 27.15 30.0793 26.9919C30.2925 26.6716 30.4431 26.3183 30.5264 25.9422L30.7253 25.0229L30.7328 24.9881L30.7683 24.9859L31.3442 24.9495L31.4988 24.9389C31.5455 24.9356 31.6029 24.9277 31.6598 24.903Z" fill="#A87059"/>
<path d="M28.934 28.186C28.934 28.186 27.3615 36.4942 20.7043 35.577C20.7043 35.577 17.7689 35.0266 16.6682 31.5408L16.406 28.2123C16.406 28.2123 18.8127 30.114 19.1796 30.4284C19.5465 30.7429 21.3812 31.9223 22.5607 32.001C22.5607 32.001 24.8604 31.6866 26.8656 29.7013L28.934 28.186Z" fill="#724B3D"/>
<path d="M11.8584 19.1212C12.1463 19.3695 12.6598 19.244 12.8942 19.5432C12.9469 19.6102 12.9776 19.6916 13.0058 19.7721C13.3218 20.6724 13.4276 21.6798 14.0163 22.4303C13.5976 21.1266 13.5749 19.728 13.2378 18.4008C13.2111 18.2959 13.1818 18.1898 13.1242 18.0983C12.9738 17.8586 12.6632 17.7693 12.38 17.7746C12.2597 17.7768 12.1362 17.7938 12.0314 17.8531C11.6473 18.0708 11.5146 18.8248 11.8584 19.1212Z" fill="#724B3D"/>
<path d="M33.3966 19.1212C33.1086 19.3695 32.5951 19.244 32.3607 19.5432C32.308 19.6102 32.2773 19.6916 32.2491 19.7721C31.9331 20.6724 31.8273 21.6798 31.2386 22.4303C31.6573 21.1266 31.68 19.728 32.0171 18.4008C32.0438 18.2959 32.0732 18.1898 32.1307 18.0983C32.2811 17.8586 32.5918 17.7693 32.8749 17.7746C32.9953 17.7768 33.1187 17.7938 33.2235 17.8531C33.6078 18.0708 33.7403 18.8248 33.3966 19.1212Z" fill="#724B3D"/>
<path d="M25.02 17.6344C25.3152 17.6097 25.6096 17.5689 25.9031 17.5281C26.0621 17.5061 26.2212 17.484 26.3802 17.462C26.5099 17.4441 26.6164 17.3892 26.7414 17.3513C27.0435 17.2598 27.3453 17.163 27.6567 17.107C28.0313 17.0397 28.4138 17.0329 28.7944 17.0263C29.1549 17.0199 29.8287 17.1694 30.1886 17.191C29.5694 16.954 28.6372 16.5613 28.018 16.3242C27.9325 16.2914 27.8454 16.2583 27.7541 16.2502C27.6487 16.2407 27.5435 16.2649 27.4406 16.289C26.4342 16.5242 25.4255 16.7602 24.4496 17.1002C24.3654 17.1295 24.2527 17.1495 24.1929 17.2164C24.129 17.2878 24.0897 17.4128 24.1285 17.5037C24.1561 17.5687 24.2192 17.6135 24.2864 17.6351C24.3537 17.6567 24.4255 17.6584 24.4961 17.6582C24.671 17.658 24.8456 17.6492 25.02 17.6344Z" fill="#724B3D"/>
<path d="M21.85 22.9986L21.4912 18.7775L20.9671 17.5637L17.4496 16.722L15.1735 17.0393L17.7667 15.9082L21.4222 17.26L21.9327 18.4051L21.9741 21.7433L21.85 22.9986Z" fill="#724B3D"/>
<path d="M22.2813 29.8011L23.1053 29.3647L22.9694 30.0434L22.4067 30.0877L22.2813 29.8011Z" fill="#724B3D"/>
<path d="M24.2525 25.5842C24.2525 25.5842 23.662 25.6307 23.4955 25.561L22.5948 25.6534L21.6941 25.561C21.5276 25.6309 20.9372 25.5842 20.9372 25.5842C21.9289 26.2159 22.5227 26.1341 22.5948 26.1209C22.6667 26.1339 23.2605 26.2157 24.2525 25.5842Z" fill="#724B3D"/>
<path d="M26.7934 40.8793C26.7934 40.8793 29.1785 40.0405 30.0958 38.8086C30.0958 38.8086 22.4164 42.74 14.0558 38.3107L11.2513 36.5285L11.8017 36.0566C11.8017 36.0566 17.0434 40.0665 22.8358 39.9618C22.8358 39.9618 29.1589 39.5274 33.2047 36.1409L34.4604 37.0138C34.4604 37.0138 31.1702 39.7259 26.7934 40.8793Z" fill="#02020C"/>
<path d="M21.4269 39.1206C21.7441 39.3345 22.1397 39.4297 22.5269 39.4229C22.9141 39.4134 23.3052 39.3019 23.6135 39.0754C23.6452 39.052 23.69 39.0589 23.7134 39.0906C23.7367 39.1224 23.7299 39.1671 23.6982 39.1905C23.6926 39.1947 23.6858 39.198 23.6796 39.2002C23.3004 39.3371 22.9165 39.4163 22.5271 39.4229C22.1377 39.4322 21.751 39.3691 21.3662 39.2481C21.3285 39.2366 21.3074 39.1967 21.3188 39.159C21.3303 39.1213 21.3702 39.1001 21.4079 39.1116C21.4143 39.1136 21.4211 39.1171 21.4269 39.1206Z" fill="#02020C"/>
<path d="M26.0656 38.6362C26.3395 38.6082 26.6133 38.5945 26.8869 38.5811C27.1608 38.5723 27.4346 38.5632 27.7083 38.5606C27.9821 38.5617 28.256 38.5553 28.5296 38.5628C28.8035 38.5672 29.0773 38.5745 29.3509 38.5917C29.39 38.5941 29.4195 38.6278 29.4171 38.6669C29.4149 38.7028 29.386 38.7308 29.3509 38.733C29.0771 38.7502 28.8032 38.7575 28.5296 38.7619C28.2558 38.7694 27.9819 38.763 27.7083 38.7641C27.4344 38.7615 27.1606 38.7524 26.8869 38.7436C26.6131 38.7301 26.3392 38.7165 26.0656 38.6885C26.0513 38.6869 26.0407 38.6741 26.0422 38.6596C26.0433 38.6472 26.0535 38.6375 26.0656 38.6362Z" fill="#02020C"/>
<path d="M19.2678 38.6885C19.0378 38.7163 18.8081 38.7302 18.5781 38.7437C18.3481 38.7556 18.1182 38.7622 17.8884 38.7648C17.4284 38.769 16.9687 38.7655 16.5088 38.7331C16.4697 38.7304 16.4404 38.6965 16.4431 38.6575C16.4455 38.6217 16.4742 38.5942 16.5088 38.5917C16.9687 38.5596 17.4284 38.5558 17.8884 38.56C18.1184 38.5626 18.3483 38.569 18.5781 38.5812C18.8081 38.5946 19.0381 38.6083 19.2678 38.6363C19.2821 38.638 19.2925 38.6513 19.2907 38.6656C19.2894 38.678 19.2795 38.6872 19.2678 38.6885Z" fill="#02020C"/>
<path d="M21.1613 27.3737L23.4849 27.2647L23.4274 27.2762L24.1702 27.0835C24.1951 27.0771 24.2207 27.0921 24.2271 27.117C24.2324 27.1377 24.2231 27.1587 24.2055 27.1691L23.5429 27.5565C23.5277 27.5653 23.5111 27.569 23.4948 27.5684L23.4853 27.5679L21.1616 27.4658C21.1362 27.4647 21.1166 27.4433 21.1177 27.4178C21.1186 27.3937 21.1378 27.3748 21.1613 27.3737Z" fill="#02020C"/>
<path d="M16.3427 28.0152C16.4735 28.3358 16.5972 28.6689 16.664 29.0211C16.7334 29.3714 16.7663 29.7218 16.7899 30.0651C16.8439 30.7546 16.8743 31.4465 16.8871 32.1391C16.9207 33.5231 16.8697 34.9157 16.666 36.2863C16.6622 36.311 16.6393 36.3282 16.6146 36.3245C16.5915 36.3211 16.5751 36.3004 16.576 36.2777C16.6031 35.5882 16.6139 34.9003 16.6098 34.2128C16.5983 33.5251 16.5829 32.838 16.5493 32.151L16.4285 30.0898C16.4054 29.7447 16.3972 29.4049 16.3522 29.074C16.3061 28.7446 16.2276 28.4151 16.1445 28.08C16.1306 28.024 16.1648 27.9673 16.2208 27.9534C16.272 27.9404 16.3236 27.9678 16.3427 28.0152Z" fill="#02020C"/>
<path d="M12.5037 36.4072C12.9275 36.2264 13.339 36.0256 13.7297 35.791C14.1219 35.5595 14.4963 35.299 14.8458 35.0082C15.2019 34.7251 15.5251 34.4032 15.8316 34.0665C16.1363 33.7276 16.4135 33.3633 16.6702 32.9814L16.8073 33.0595C16.6049 33.4846 16.3454 33.8826 16.0492 34.2513C15.7549 34.6219 15.4129 34.9531 15.0513 35.2587C14.6831 35.5566 14.2873 35.821 13.8684 36.0406C13.4479 36.2569 13.0064 36.433 12.5491 36.5444L12.5037 36.4072Z" fill="#02020C"/>
<path d="M20.587 31.9286C20.7385 32.4135 20.9281 32.8849 21.1656 33.3321C21.3999 33.7808 21.6813 34.2032 21.9918 34.6048C22.0081 34.6259 22.0043 34.6561 21.9832 34.6725C21.9631 34.6879 21.9346 34.685 21.9179 34.6667C21.5706 34.2859 21.2807 33.8538 21.0414 33.3969C20.8053 32.9383 20.6192 32.453 20.5039 31.9511C20.4986 31.928 20.5131 31.9048 20.5363 31.8995C20.5583 31.8945 20.5804 31.9075 20.587 31.9286Z" fill="#02020C"/>
<path d="M21.4754 25.2545C21.6529 25.3601 21.8412 25.4446 22.0334 25.5054C22.2259 25.5656 22.4242 25.6025 22.6215 25.6016C22.8184 25.6093 23.0149 25.5775 23.2007 25.5134C23.3906 25.4585 23.5626 25.356 23.7372 25.2552L23.7447 25.251C23.778 25.2318 23.8205 25.2433 23.8397 25.2766C23.8576 25.3074 23.849 25.3465 23.821 25.3672C23.7352 25.4311 23.6508 25.4995 23.557 25.5537C23.4607 25.6036 23.3657 25.6574 23.2603 25.6893C23.0554 25.7674 22.8318 25.7914 22.6144 25.7813C22.3968 25.7654 22.1832 25.714 21.9876 25.6261C21.7927 25.5368 21.611 25.4225 21.4599 25.2733C21.4551 25.2686 21.4551 25.2609 21.4597 25.2561C21.4637 25.2519 21.4707 25.2519 21.4754 25.2545Z" fill="#02020C"/>
<path d="M20.682 23.9057C20.5641 24.118 20.4609 24.3381 20.3736 24.5641C20.3304 24.6798 20.2783 24.7876 20.3253 24.8847C20.3681 24.9826 20.4505 25.0802 20.5246 25.1704C20.6772 25.3497 20.8688 25.5014 21.0884 25.5395C21.3087 25.579 21.5395 25.515 21.7708 25.4471C21.8185 25.433 21.8685 25.4601 21.8826 25.5075C21.8967 25.5549 21.8696 25.6052 21.822 25.6193C21.8204 25.6198 21.8185 25.6202 21.8171 25.6207C21.5816 25.6764 21.3228 25.7404 21.0591 25.6809C20.7941 25.62 20.5914 25.4348 20.4402 25.2396C20.3659 25.138 20.29 25.0447 20.2395 24.9164C20.2155 24.8527 20.2144 24.7735 20.2353 24.7105C20.2552 24.6463 20.2812 24.5927 20.3054 24.5361C20.4049 24.3116 20.5198 24.0944 20.649 23.8865C20.6545 23.8774 20.6664 23.8748 20.6754 23.8803C20.6842 23.8854 20.6871 23.8966 20.682 23.9057Z" fill="#02020C"/>
<path d="M21.9362 18.3695C21.9825 18.7565 22.0079 19.1443 22.0295 19.5326C22.0478 19.9209 22.0575 20.3096 22.061 20.6986C22.0577 21.0875 22.0568 21.4767 22.033 21.8656C22.0107 22.2541 21.9807 22.6442 21.9045 23.0281C21.902 23.0404 21.8901 23.0484 21.8778 23.0459C21.8665 23.0437 21.8588 23.0331 21.8595 23.0219C21.8822 22.6354 21.8855 22.2484 21.8873 21.8612C21.8857 21.474 21.8919 21.0868 21.8839 20.6992L21.8809 19.5361C21.8831 19.148 21.8842 18.76 21.8976 18.371C21.8978 18.3602 21.9069 18.3516 21.9179 18.3521C21.9272 18.3525 21.9351 18.36 21.9362 18.3695Z" fill="#02020C"/>
<path d="M12.9943 17.9541C12.7978 17.8745 12.6215 17.7857 12.4506 17.7511C12.2826 17.7133 12.1251 17.7462 12.0012 17.8439C11.8841 17.9378 11.8096 18.1065 11.777 18.2853C11.7421 18.4659 11.7437 18.6553 11.7712 18.8436C11.8808 19.6056 12.4051 20.2839 12.6422 21.0845C12.9008 21.8707 13.0212 22.6806 13.2002 23.4669C13.2964 23.8556 13.3729 24.2649 13.5594 24.5941C13.6064 24.6754 13.6611 24.7427 13.7239 24.7704C13.7863 24.8002 13.8891 24.8013 13.9914 24.8104L14.5986 24.8573L14.586 25.0359L13.9781 24.9976C13.8796 24.9876 13.7729 24.9973 13.6463 24.946C13.5206 24.8902 13.4465 24.7859 13.3907 24.6948C13.2779 24.5087 13.2088 24.3063 13.1498 24.1094C13.0926 23.9121 13.0391 23.7143 12.9919 23.5154C12.7996 22.7214 12.6678 21.919 12.4065 21.1634C12.2819 20.7831 12.1053 20.4314 11.9201 20.0656C11.7388 19.7013 11.5591 19.3139 11.491 18.8861C11.4568 18.6736 11.4506 18.4513 11.4897 18.2319C11.5285 18.0156 11.6112 17.781 11.81 17.6113C12.0019 17.4474 12.2819 17.3978 12.5099 17.4501C12.739 17.4964 12.9284 17.5945 13.1085 17.664L12.9943 17.9541Z" fill="#02020C"/>
<path d="M11.8281 18.927C11.736 18.7662 11.6484 18.5726 11.6965 18.3684C11.7177 18.2694 11.7814 18.1722 11.8705 18.1164C11.9578 18.0595 12.0552 18.0291 12.1551 18.0141C12.3558 17.9857 12.5593 18.0291 12.7401 18.1089C12.9218 18.1887 13.0827 18.3012 13.2355 18.4139C13.2754 18.4432 13.2838 18.4994 13.2545 18.5391C13.2252 18.579 13.1689 18.5874 13.1293 18.5581C13.1277 18.557 13.1262 18.5556 13.1248 18.5545C12.982 18.4348 12.8378 18.3213 12.6783 18.239C12.5205 18.1572 12.3432 18.1087 12.1677 18.1226C11.9946 18.1358 11.8125 18.2128 11.7686 18.3874C11.7159 18.5572 11.7809 18.7435 11.8632 18.9084C11.868 18.9181 11.8641 18.93 11.8544 18.9349C11.8449 18.9397 11.8332 18.936 11.8281 18.927Z" fill="#02020C"/>
<path d="M13.5667 20.0619C13.3738 20.2185 13.2552 20.4586 13.2364 20.7025C13.2141 20.949 13.3131 21.1853 13.4565 21.3895C13.5982 21.5968 13.7771 21.7842 13.9248 22.0067C14.0719 22.2296 14.1777 22.4803 14.235 22.7431C14.2456 22.7914 14.215 22.8393 14.1667 22.8498C14.1184 22.8604 14.0705 22.8298 14.06 22.7815C14.0597 22.7806 14.0595 22.7791 14.0593 22.7782C14.0156 22.5356 13.9263 22.2999 13.7971 22.0878C13.6675 21.875 13.4955 21.6806 13.3535 21.4572C13.2102 21.2387 13.1061 20.9657 13.1416 20.6934C13.1725 20.4251 13.3109 20.1711 13.5253 20.0092C13.54 19.998 13.5612 20.0011 13.5722 20.0158C13.5832 20.03 13.5806 20.0505 13.5667 20.0619Z" fill="#02020C"/>
<path d="M12.4953 19.2087C12.4812 19.1457 12.4629 19.0723 12.4953 18.9993C12.5284 18.9272 12.6001 18.8866 12.668 18.8668C12.8069 18.8284 12.9564 18.8496 13.0852 18.9146C13.2137 18.9772 13.3224 19.0983 13.3753 19.2312C13.4293 19.3624 13.4666 19.4833 13.5125 19.6087C13.5294 19.6552 13.5056 19.7068 13.4591 19.7238C13.4126 19.7408 13.361 19.717 13.344 19.6705C13.3431 19.6678 13.3423 19.6654 13.3416 19.6627L13.3412 19.6608C13.3079 19.5349 13.2781 19.4001 13.2419 19.2835C13.2064 19.1675 13.1356 19.0738 13.0327 19.0088C12.9319 18.945 12.8049 18.9153 12.6858 18.9369C12.6276 18.9483 12.5714 18.9757 12.5441 19.0237C12.5156 19.0718 12.522 19.1382 12.5315 19.2021C12.533 19.2121 12.5262 19.2213 12.5163 19.2229C12.5064 19.2242 12.4975 19.218 12.4953 19.2087Z" fill="#02020C"/>
<path d="M32.2158 17.6649C32.396 17.5955 32.5856 17.4974 32.8147 17.4511C33.0425 17.3988 33.3227 17.4484 33.5145 17.6122C33.7132 17.7818 33.7961 18.0164 33.8349 18.2329C33.8739 18.4523 33.8678 18.6746 33.8336 18.8871C33.7654 19.3149 33.5857 19.7023 33.4045 20.0665C33.2193 20.4321 33.0427 20.7838 32.9181 21.1644C32.6568 21.92 32.525 22.7224 32.3327 23.5164C32.2857 23.7153 32.2319 23.913 32.1748 24.1104C32.1159 24.3073 32.0469 24.5097 31.9338 24.6958C31.878 24.7869 31.8039 24.8912 31.6783 24.9469C31.5517 24.9981 31.445 24.9886 31.3464 24.9985L30.7385 25.0369L30.726 24.8583L31.3332 24.8113C31.4353 24.8023 31.5382 24.8012 31.6004 24.7714C31.6635 24.7436 31.7179 24.6764 31.7649 24.595C31.9514 24.2658 32.028 23.8564 32.1241 23.4679C32.3031 22.6816 32.4235 21.8717 32.6822 21.0854C32.9192 20.2848 33.4435 19.6066 33.5531 18.8446C33.5807 18.6563 33.5822 18.4669 33.5474 18.2863C33.5147 18.1077 33.4402 17.9388 33.3231 17.8449C33.199 17.747 33.0418 17.7141 32.8738 17.752C32.7029 17.7866 32.5265 17.8755 32.33 17.9551L32.2158 17.6649Z" fill="#02020C"/>
<path d="M33.4619 18.9089C33.5443 18.744 33.6094 18.5577 33.5567 18.3879C33.5128 18.2133 33.3307 18.1365 33.1576 18.1231C32.9821 18.1092 32.8048 18.1577 32.6469 18.2395C32.4875 18.3217 32.3433 18.4353 32.2004 18.555C32.1625 18.5868 32.1061 18.5819 32.0743 18.544C32.0425 18.5061 32.0474 18.4496 32.0853 18.4179C32.0866 18.4168 32.0884 18.4155 32.0897 18.4144C32.2425 18.3017 32.4035 18.1892 32.5852 18.1094C32.766 18.0296 32.9695 17.9862 33.1702 18.0146C33.27 18.0296 33.3677 18.06 33.4548 18.1169C33.5439 18.1727 33.6076 18.2699 33.6288 18.3689C33.6768 18.5731 33.5893 18.7667 33.4971 18.9274C33.4919 18.9369 33.4797 18.9404 33.4702 18.9352C33.4605 18.9299 33.4572 18.9182 33.4619 18.9089Z" fill="#02020C"/>
<path d="M31.7993 20.0092C32.0137 20.171 32.1521 20.425 32.183 20.6934C32.2185 20.9657 32.1144 21.2387 31.9711 21.4572C31.8293 21.6805 31.6573 21.875 31.5275 22.0878C31.3983 22.2999 31.309 22.5354 31.2653 22.7781C31.2565 22.8269 31.21 22.8593 31.1612 22.8505C31.1125 22.8416 31.0801 22.7951 31.0889 22.7464C31.0891 22.7455 31.0893 22.744 31.0896 22.7431C31.1467 22.4805 31.2525 22.2296 31.3998 22.0066C31.5475 21.7844 31.7264 21.5967 31.8681 21.3895C32.0115 21.1853 32.1105 20.9489 32.0882 20.7024C32.0694 20.4585 31.9508 20.2184 31.7579 20.0619C31.7436 20.0502 31.7411 20.029 31.7528 20.0147C31.7645 20.0008 31.785 19.9984 31.7993 20.0092Z" fill="#02020C"/>
<path d="M32.7938 19.2022C32.8033 19.1381 32.8094 19.0717 32.781 19.0238C32.7539 18.9758 32.6974 18.9482 32.6392 18.937C32.5204 18.9154 32.3932 18.9451 32.2924 19.0089C32.1894 19.0739 32.1186 19.1676 32.0831 19.2836C32.047 19.4002 32.0172 19.535 31.9839 19.6609L31.9835 19.6628C31.9707 19.7107 31.9217 19.7391 31.8739 19.7266C31.8261 19.714 31.7974 19.6648 31.8102 19.617C31.8108 19.6143 31.8117 19.6117 31.8126 19.6093C31.8585 19.4838 31.8957 19.363 31.9497 19.2318C32.0027 19.0986 32.1114 18.9778 32.2399 18.9151C32.3685 18.8499 32.5182 18.8289 32.6571 18.8673C32.7248 18.8871 32.7967 18.9275 32.8297 18.9998C32.8621 19.0728 32.8438 19.1462 32.8297 19.2093C32.8275 19.219 32.8178 19.2252 32.8079 19.223C32.7984 19.2205 32.7925 19.2115 32.7938 19.2022Z" fill="#02020C"/>
<path d="M15.2003 16.9131L17.3371 15.5345C17.4183 15.4823 17.514 15.4708 17.6002 15.4951L17.6606 15.5125C17.9695 15.6011 18.2753 15.6997 18.5801 15.8027C18.8846 15.9058 19.1873 16.015 19.4887 16.129C19.7908 16.2408 20.0902 16.3603 20.3901 16.4798C20.69 16.5984 20.9845 16.7351 21.2496 16.9713C21.2904 17.0077 21.2939 17.0703 21.2575 17.1108C21.2416 17.1287 21.2205 17.1395 21.1984 17.1428C20.8474 17.1955 20.5261 17.1488 20.2102 17.0839C19.894 17.02 19.5778 16.9561 19.2638 16.8844C18.9492 16.8149 18.6361 16.7406 18.3247 16.6604C18.0134 16.5799 17.7034 16.495 17.3965 16.4002L17.7199 16.3781L15.2746 17.0762C15.2266 17.0899 15.1765 17.0621 15.1626 17.014C15.1512 16.9746 15.1679 16.934 15.2003 16.9131Z" fill="#02020C"/>
<path d="M22.5759 6.50789C22.5606 6.49334 22.5492 6.46578 22.5498 6.44417L22.6394 6.53259C22.6032 6.53325 22.567 6.53325 22.5309 6.53215L22.6202 6.44329V6.44483L22.6195 6.53347L22.5313 6.53369C21.0489 6.53832 19.5571 6.72971 18.162 7.2267C17.471 7.48776 16.8064 7.81872 16.2032 8.24229C15.6014 8.66762 15.0712 9.18909 14.6282 9.77472C13.7387 10.9502 13.2336 12.3823 13.0301 13.8391C12.9295 14.5693 12.8933 15.3098 12.9275 16.0464C12.9463 16.4127 12.9729 16.7868 13.0389 17.1385L13.27 18.2328C13.5819 19.6912 13.8792 21.1524 14.1766 22.6136L14.624 24.8053L14.8478 25.9005C14.9212 26.2502 15.0599 26.5862 15.2548 26.8863C15.3527 27.036 15.4647 27.1767 15.5884 27.3059C15.7106 27.4358 15.8504 27.5487 15.995 27.6704L16.8538 28.3861C17.4278 28.8615 18.0037 29.3344 18.5869 29.7975C19.1717 30.2557 19.7542 30.7286 20.378 31.1149C21.0104 31.488 21.7104 31.7502 22.4308 31.8928L22.4136 31.8911L22.7573 31.8913L22.7401 31.893C23.4607 31.7515 24.1614 31.4906 24.7947 31.1182C25.418 30.7308 26.0014 30.2592 26.5864 29.801C27.1698 29.3382 27.7462 28.8657 28.3201 28.3905L29.1785 27.6743C29.4727 27.4402 29.7216 27.1932 29.9167 26.8874C30.1103 26.5862 30.2473 26.2497 30.3189 25.9L30.5379 24.8037L30.9755 22.6103L31.8529 18.224L32.0749 17.1282C32.1375 16.7822 32.1622 16.4078 32.1786 16.044C32.2081 15.3111 32.1677 14.5751 32.0635 13.8505C31.9607 13.1256 31.7739 12.4147 31.5131 11.7353C31.2536 11.0556 30.9061 10.4102 30.4689 9.83138C30.0294 9.25546 29.5148 8.73267 28.9217 8.308C28.3276 7.88487 27.6726 7.54972 26.9892 7.28094C26.6411 7.16408 26.2962 7.03289 25.9357 6.95263C25.7565 6.90985 25.5803 6.85274 25.3977 6.8232L24.852 6.7264C24.6708 6.68914 24.4867 6.66973 24.3025 6.65099L23.7502 6.5908C23.3657 6.56412 22.9573 6.54163 22.5759 6.50789ZM22.7026 6.38133C23.0662 6.37824 23.404 6.36744 23.7641 6.38772L24.3252 6.43667C24.5124 6.45167 24.6996 6.46754 24.8851 6.5015L25.4427 6.58837C25.629 6.61527 25.8107 6.66841 25.9953 6.70611C26.3664 6.77733 26.7242 6.90037 27.0863 7.01018C27.7987 7.26484 28.4901 7.59206 29.123 8.0207C29.7527 8.45154 30.3198 8.98116 30.7853 9.5895C31.2529 10.1963 31.6251 10.8737 31.904 11.5839C32.1799 12.2958 32.3651 13.04 32.4689 13.7919C32.5728 14.544 32.6098 15.3038 32.5752 16.0612C32.5554 16.4418 32.5305 16.8137 32.4588 17.2016L32.2255 18.2961L31.2818 22.6722L30.8088 24.8598L30.572 25.9541C30.4878 26.3337 30.3328 26.6971 30.118 27.0199C30.01 27.1809 29.8872 27.3319 29.7516 27.4702C29.6162 27.6102 29.4645 27.7308 29.323 27.8481L28.4575 28.5581C27.8787 29.0291 27.2975 29.4976 26.7086 29.9569C26.1161 30.4124 25.5331 30.8777 24.8857 31.273C24.2335 31.6576 23.5167 31.9259 22.7745 32.073L22.7661 32.0745H22.7571L22.4134 32.0747H22.4045L22.3962 32.0732C21.6538 31.9272 20.9363 31.66 20.283 31.2761C19.6358 30.8797 19.0519 30.4157 18.4595 29.96C17.8703 29.5009 17.2889 29.0328 16.7096 28.5621L15.8446 27.8516C15.7033 27.7343 15.5512 27.6135 15.4164 27.4726C15.2813 27.3335 15.1589 27.182 15.0515 27.0204C14.8379 26.6965 14.6846 26.3326 14.6022 25.9532L14.3702 24.858L13.9072 22.6685C13.5976 21.209 13.2878 19.7494 12.9928 18.2869L12.7685 17.1906C12.7002 16.8087 12.677 16.436 12.6598 16.0581C12.6296 15.3047 12.6711 14.5493 12.7787 13.8027C12.9954 12.3139 13.5321 10.847 14.4588 9.64529C14.9208 9.04665 15.472 8.5157 16.0934 8.08552C16.7167 7.65732 17.3987 7.32614 18.1036 7.06353C19.528 6.57338 21.0335 6.37052 22.5309 6.35509L22.4422 6.44395V6.4424V6.35156L22.5315 6.35355C22.5677 6.35443 22.6039 6.35421 22.64 6.35333L22.7295 6.44174C22.7293 6.42146 22.7179 6.395 22.7026 6.38133Z" fill="#02020C"/>
<path d="M29.0118 28.0751C28.9349 28.4094 28.8473 28.7366 28.8109 29.0609C28.7682 29.3862 28.7717 29.7246 28.7501 30.0659L28.607 32.1042C28.5252 33.4633 28.5104 34.8262 28.5938 36.1879C28.5953 36.2128 28.5763 36.2345 28.5514 36.236C28.5276 36.2375 28.5067 36.2199 28.5036 36.1968C28.3267 34.8383 28.2824 33.464 28.2928 32.0938C28.3012 31.4087 28.3118 30.7228 28.362 30.0404C28.3887 29.701 28.4249 29.3557 28.4974 29.0071C28.5748 28.657 28.7082 28.3348 28.8403 28.0198C28.8597 27.9737 28.9126 27.9521 28.9585 27.9715C29.0001 27.9882 29.0215 28.033 29.0118 28.0751Z" fill="#02020C"/>
<path d="M32.6208 36.5444C32.1633 36.433 31.7221 36.2569 31.3016 36.0406C30.8827 35.8212 30.4867 35.5568 30.1184 35.2587C29.7571 34.9531 29.4148 34.6219 29.1205 34.2513C28.8244 33.8826 28.5648 33.4844 28.3624 33.0595L28.4996 32.9814C28.7562 33.3633 29.0334 33.7276 29.3381 34.0665C29.6446 34.4034 29.9676 34.7251 30.3239 35.0082C30.6734 35.299 31.0478 35.5595 31.4401 35.791C31.8308 36.0256 32.2422 36.2264 32.666 36.4072L32.6208 36.5444Z" fill="#02020C"/>
<path d="M24.521 23.886C24.6496 24.093 24.764 24.3091 24.8632 24.5327C24.8875 24.5894 24.9131 24.6427 24.9333 24.7058C24.9543 24.768 24.9554 24.8469 24.932 24.9108C24.8835 25.0398 24.807 25.1327 24.7338 25.2341C24.5836 25.4286 24.3837 25.6144 24.1213 25.6782C23.864 25.7428 23.6011 25.696 23.3637 25.6387C23.3154 25.6272 23.2856 25.5787 23.2971 25.5304C23.3085 25.4821 23.357 25.4524 23.4053 25.4638C23.4067 25.4641 23.4086 25.4647 23.41 25.4652C23.6375 25.5324 23.8686 25.5822 24.0895 25.5377C24.3085 25.4969 24.4974 25.3441 24.6491 25.1655C24.7223 25.0753 24.805 24.9781 24.8458 24.8804C24.8912 24.7841 24.8374 24.6758 24.7951 24.5609C24.7082 24.336 24.6053 24.1168 24.4877 23.9054C24.4827 23.8961 24.486 23.8844 24.4952 23.8792C24.5043 23.8745 24.5155 23.8774 24.521 23.886Z" fill="#02020C"/>
<path d="M24.7023 32.0212C24.5872 32.523 24.4009 33.0083 24.1647 33.4669C23.9255 33.9238 23.6355 34.3562 23.2883 34.7367C23.2704 34.7564 23.2397 34.7579 23.2201 34.7398C23.2014 34.7229 23.1994 34.6942 23.2144 34.6746C23.5251 34.2731 23.8064 33.8508 24.0406 33.4019C24.2778 32.9547 24.4674 32.4833 24.6191 31.9984C24.6262 31.9757 24.6505 31.9632 24.6732 31.9702C24.6948 31.9773 24.7073 31.9995 24.7023 32.0212Z" fill="#02020C"/>
<path d="M22.6854 40.1911C22.1741 40.1596 21.7056 40.093 21.2187 40.0207C20.7367 39.9459 20.2574 39.8573 19.7804 39.7561C18.8266 39.5539 17.884 39.2988 16.9594 38.9863C16.0354 38.6732 15.1291 38.3017 14.2582 37.8563C13.3868 37.4122 12.5533 36.8892 11.782 36.2818L11.982 36.2838L10.8119 37.1247L10.8194 36.9358C11.635 37.6228 12.541 38.2234 13.4719 38.759C14.4053 39.2952 15.3818 39.7545 16.3851 40.1411C16.888 40.3309 17.3982 40.5009 17.9137 40.6526C18.4312 40.7968 18.9523 40.9287 19.4799 41.029C20.5336 41.2358 21.6063 41.3377 22.6784 41.3445L22.677 41.6704C21.5834 41.6567 20.4911 41.5458 19.4206 41.3289C18.8846 41.2232 18.3558 41.0861 17.831 40.9364C17.3085 40.7789 16.7916 40.6034 16.2825 40.4076C15.2674 40.0092 14.2811 39.5378 13.3394 38.989C12.3977 38.4384 11.4932 37.8327 10.656 37.1188L10.542 37.0215L10.6633 36.9296L11.7847 36.0247L11.8775 35.9497L11.9847 36.0267C12.7363 36.6185 13.5515 37.1304 14.4066 37.5661C15.2612 38.0032 16.1529 38.369 17.064 38.6776C17.9755 38.9857 18.9062 39.2377 19.8483 39.4375C20.3193 39.5376 20.7929 39.6251 21.2685 39.6987C21.7395 39.7695 22.2321 39.8366 22.6881 39.8652L22.6854 40.1911Z" fill="#02020C"/>
<path d="M-0.0253707 45.1362C0.0802455 44.7603 0.231727 44.3905 0.380339 44.017C0.497642 43.7246 0.617588 43.4331 0.729819 43.1386C0.846019 42.8438 0.948329 42.5514 1.08834 42.2877C1.3536 41.7598 1.8356 41.3812 2.36125 41.0512C2.87831 40.7149 3.43218 40.4307 4.00833 40.1932C5.15754 39.7097 6.36915 39.3604 7.56378 38.9426C8.16088 38.732 8.75599 38.5082 9.33038 38.2322C9.90366 37.9548 10.4569 37.6333 10.9713 37.2551L10.8584 37.1006C10.3451 37.4543 9.79584 37.7517 9.22652 38.0066C8.65478 38.2573 8.06431 38.4661 7.46964 38.6656C6.27809 39.0588 5.05369 39.3847 3.87559 39.8766C3.28489 40.1156 2.70963 40.4049 2.16788 40.752C1.89601 40.9233 1.62811 41.1032 1.38226 41.3279C1.13465 41.5462 0.918562 41.8255 0.770832 42.1232C0.618471 42.4191 0.516384 42.7254 0.404594 43.0175C0.292142 43.3121 0.187406 43.6095 0.0802464 43.9059C-0.0617512 44.3006 -0.209262 44.71 -0.294373 45.1365L-0.0253707 45.1362Z" fill="#02020C"/>
<path d="M22.6343 39.8657C23.0828 39.8511 23.5685 39.7876 24.0331 39.7195C24.5023 39.6491 24.9693 39.5634 25.4334 39.4633C26.3619 39.2644 27.2779 39.0068 28.1742 38.6955C29.0694 38.3815 29.9447 38.0102 30.7826 37.5686C31.6211 37.1285 32.4198 36.6143 33.16 36.0275L33.2671 35.9497L33.3604 36.0251L34.4818 36.93L34.6031 37.022L34.4891 37.1192C33.6519 37.8332 32.7474 38.4389 31.8057 38.9894C30.864 39.5382 29.8777 40.0096 28.8625 40.4081C28.3534 40.6039 27.8368 40.7796 27.314 40.9368C26.7893 41.0865 26.2605 41.2239 25.7245 41.3293C24.654 41.5463 23.5617 41.6572 22.468 41.6708L22.4667 41.345C23.5387 41.3381 24.6114 41.2363 25.6652 41.0294C26.1926 40.9291 26.7138 40.797 27.2313 40.653C27.7469 40.5011 28.2569 40.3313 28.76 40.1415C29.7633 39.7548 30.7398 39.2957 31.6732 38.7595C32.6039 38.2239 33.5099 37.6232 34.3257 36.9362L34.3332 37.1252L33.163 36.2842L33.3635 36.2818C32.605 36.8831 31.7889 37.4083 30.9345 37.8568C30.0806 38.3068 29.1906 38.6843 28.2818 39.0031C27.3718 39.3191 26.4433 39.5801 25.502 39.7817C25.0315 39.8831 24.5579 39.9702 24.0814 40.0416C23.6005 40.1109 23.1361 40.1752 22.6288 40.1913L22.6343 39.8657Z" fill="#02020C"/>
<path d="M37.4631 38.9033C38.6189 39.3088 39.7886 39.6532 40.9105 40.0991C41.4679 40.3286 42.0136 40.5831 42.5278 40.8887C43.0294 41.2075 43.5485 41.5345 43.877 41.9916C44.0415 42.2198 44.1628 42.4866 44.2724 42.7648L44.6018 43.6131C44.7892 44.1136 44.9572 44.6183 45.0571 45.1365H45.2941C45.2355 44.5753 45.0805 44.0309 44.9034 43.5055C44.8044 43.2131 44.7056 42.928 44.5961 42.6392C44.4858 42.3501 44.3581 42.0542 44.1687 41.7843C43.9791 41.5142 43.7403 41.2904 43.4894 41.0999C43.3646 41.0027 43.2356 40.9158 43.104 40.8327C42.9726 40.7493 42.844 40.6611 42.7102 40.5822C42.1733 40.2682 41.6092 40.0104 41.038 39.7798C39.8907 39.3278 38.7102 39.007 37.5579 38.6264C36.9833 38.4324 36.416 38.2218 35.8619 37.9819C35.3126 37.7319 34.7834 37.4415 34.2862 37.1006L34.1733 37.2552C34.6712 37.6203 35.2041 37.9347 35.7571 38.2072C36.3132 38.4723 36.8856 38.6983 37.4631 38.9033Z" fill="#02020C"/>
<path d="M30.1701 17.2004L27.7248 16.5023L28.0483 16.5243C27.7411 16.6192 27.4313 16.704 27.12 16.7845C26.8087 16.8648 26.4956 16.9391 26.1809 17.0088C25.867 17.0804 25.5508 17.1444 25.2346 17.2083C24.9186 17.2729 24.5973 17.3199 24.2463 17.2672C24.1923 17.259 24.155 17.2087 24.1632 17.1547C24.1667 17.1309 24.1786 17.1104 24.1952 17.0956C24.46 16.8595 24.7548 16.7228 25.0547 16.6042C25.3543 16.4849 25.6539 16.3651 25.956 16.2534C26.2574 16.1394 26.5602 16.0302 26.8647 15.927C27.1692 15.8241 27.4752 15.7255 27.7841 15.6369L27.8432 15.6199C27.9361 15.5932 28.0322 15.6108 28.1076 15.6589L30.2444 17.0374C30.2863 17.0645 30.2984 17.1206 30.2713 17.1627C30.249 17.1968 30.2074 17.211 30.1701 17.2004Z" fill="#02020C"/>
<path d="M17.492 21.0725C17.7206 21.0134 17.9285 21.0035 18.1455 20.9951C18.3603 20.9894 18.5741 20.9938 18.7869 21.0079C19.2127 21.0333 19.6347 21.0888 20.0532 21.1587C20.0614 21.16 20.0669 21.1678 20.0655 21.1761C20.0642 21.1841 20.057 21.1894 20.049 21.1887C19.6279 21.1435 19.2052 21.1131 18.7836 21.1126C18.5728 21.1109 18.3625 21.119 18.1539 21.1369C17.9488 21.1554 17.7312 21.1836 17.5517 21.2416L17.5418 21.2447C17.4946 21.2599 17.4441 21.2341 17.4291 21.1869C17.4139 21.1398 17.4397 21.0893 17.4869 21.0741C17.4884 21.0736 17.4904 21.0729 17.492 21.0725Z" fill="#02020C"/>
<path d="M19.9396 19.5016C19.9396 20.3774 19.4058 21.0871 18.7472 21.0871C18.0886 21.0871 17.5548 20.3772 17.5548 19.5016C17.5548 18.6258 18.0886 17.916 18.7472 17.916C19.4058 17.9158 19.9396 18.6258 19.9396 19.5016Z" fill="#02020C"/>
<path d="M20.1101 18.5908C20.1101 18.8838 19.9136 19.1215 19.6711 19.1215C19.4285 19.1215 19.2321 18.8838 19.2321 18.5908C19.2321 18.2977 19.4285 18.0601 19.6711 18.0601C19.9134 18.0601 20.1101 18.2977 20.1101 18.5908Z" fill="#F4EFE9"/>
<path d="M25.4136 21.0725C25.6423 21.0134 25.8502 21.0035 26.0672 20.9951C26.2819 20.9894 26.4956 20.9938 26.7086 21.0079C27.1344 21.0333 27.5562 21.0888 27.9749 21.1587C27.983 21.16 27.9885 21.1678 27.9872 21.1761C27.9859 21.1841 27.9786 21.1894 27.9707 21.1887C27.5495 21.1435 27.1269 21.1131 26.7053 21.1126C26.4945 21.1109 26.2841 21.119 26.0755 21.1369C25.8705 21.1554 25.6529 21.1836 25.4734 21.2416L25.4635 21.2447C25.4163 21.2599 25.3658 21.2341 25.3506 21.1869C25.3353 21.1398 25.3611 21.0893 25.4083 21.0741C25.4101 21.0736 25.4121 21.0729 25.4136 21.0725Z" fill="#02020C"/>
<path d="M26.6689 21.0871C27.3274 21.0871 27.8613 20.3773 27.8613 19.5016C27.8613 18.6259 27.3274 17.916 26.6689 17.916C26.0103 17.916 25.4764 18.6259 25.4764 19.5016C25.4764 20.3773 26.0103 21.0871 26.6689 21.0871Z" fill="#02020C"/>
<path d="M28.0317 18.5908C28.0317 18.8838 27.8353 19.1215 27.5927 19.1215C27.3502 19.1215 27.1537 18.8838 27.1537 18.5908C27.1537 18.2977 27.3502 18.0601 27.5927 18.0601C27.8353 18.0601 28.0317 18.2977 28.0317 18.5908Z" fill="#F4EFE9"/>
<path d="M21.9293 19.0288L21.818 18.2831L21.8301 18.3221L21.1155 17.1002C21.0906 17.0574 21.1049 17.0027 21.1477 16.9776C21.1905 16.9526 21.2452 16.967 21.2703 17.0098L21.9849 18.2317L21.988 18.237C21.9942 18.2476 21.997 18.2595 21.997 18.2708L21.9884 19.0246C21.9882 19.0409 21.975 19.054 21.9587 19.0537C21.9435 19.0537 21.9313 19.0429 21.9293 19.0288Z" fill="#02020C"/>
<path d="M10.6419 38.2267C11.0103 38.6077 11.4416 38.9303 11.8822 39.2269C12.3198 39.5305 12.7873 39.7887 13.2605 40.0321C14.2077 40.5214 15.2158 40.8806 16.2367 41.1835L17.0086 41.3932C17.2684 41.4534 17.5305 41.5037 17.7914 41.5595C18.0522 41.6157 18.3135 41.6704 18.5785 41.7043L19.3701 41.8267C19.8991 41.9014 20.4333 41.9327 20.9649 41.9927L22.5686 42.0694H22.5703C22.5878 42.0703 22.6014 42.0851 22.6005 42.1027C22.5997 42.1197 22.5856 42.1332 22.5686 42.133L20.9577 42.1162L20.1535 42.0586C19.8861 42.0335 19.616 42.0304 19.3503 41.9872C18.8182 41.9103 18.2804 41.8637 17.7552 41.7416C17.4915 41.6873 17.2267 41.6384 16.9639 41.5795L16.1824 41.3734C15.1455 41.0814 14.1334 40.6925 13.1765 40.1937C12.231 39.6791 11.3168 39.0776 10.5903 38.2704C10.5779 38.2565 10.579 38.2353 10.5927 38.2229C10.6062 38.2108 10.6269 38.2117 10.6392 38.2245L10.6419 38.2267Z" fill="#02020C"/>
<path d="M39.1369 45.1365C39.483 43.2934 40.298 41.5579 41.4975 40.1159C41.5224 40.0859 41.5184 40.0411 41.4884 40.0164C41.4584 39.9913 41.4139 39.9955 41.389 40.0255C40.1685 41.4929 39.3399 43.2601 38.9924 45.1367L39.1369 45.1365Z" fill="#02020C"/>
<path d="M6.05145 45.1363H6.1961C5.8486 43.2596 5.01998 41.4926 3.79955 40.025C3.7742 39.995 3.72988 39.9908 3.70011 40.016C3.67013 40.0407 3.66615 40.0852 3.69107 40.1154C4.89033 41.5574 5.7055 43.2931 6.05145 45.1363Z" fill="#02020C"/>
<path d="M30.7678 21.3843L29.9194 24.9018L25.657 27.5916L25.0983 26.3707L22.5739 26.4122V26.7639L24.8086 26.7224L25.3051 27.6743L25.0776 30.1365C25.0776 30.1365 23.8774 31.1918 22.5946 30.6745V32.0006C22.5946 32.0006 23.3357 31.9232 24.3546 31.4368C25.3448 30.964 26.5954 30.099 27.8295 28.9366L29.8986 27.1365C29.8986 27.1365 30.3539 26.3088 30.4781 25.6674L31.2229 21.9842L30.7678 21.3843Z" fill="#02020C"/>
<path d="M14.5045 21.3843L15.353 24.9018L19.6153 27.5916L20.174 26.3707L22.6985 26.4122V26.7639L20.4638 26.7224L19.9672 27.6743L20.1948 30.1365C20.1948 30.1365 21.3949 31.1918 22.6777 30.6745V32.0006C22.6777 32.0006 21.9367 31.9232 20.9178 31.4368C19.9275 30.964 18.6769 30.099 17.443 28.9366L15.3739 27.1365C15.3739 27.1365 14.9186 26.3088 14.7944 25.6674L14.0496 21.9842L14.5045 21.3843Z" fill="#02020C"/>
<path d="M35.6575 15.8111C34.8044 15.2592 34.4582 14.2352 34.1295 13.2968C33.5586 11.6672 32.7664 9.91534 31.8491 8.44553C31.0851 7.22114 29.8645 6.36276 28.6509 5.58133C27.7213 4.98269 26.7601 4.40169 25.6945 4.10667C24.5435 3.78784 23.3246 3.81849 22.1362 3.93932C20.9102 4.0639 19.6704 4.2899 18.5823 4.86825C17.5347 5.425 16.1756 6.6505 15.6623 7.97897C14.4374 9.03116 13.7061 10.3272 13.2721 11.5505C12.8898 11.7256 12.4792 11.8649 11.9516 11.943C12.2861 13.1169 12.6153 16.4611 12.7796 17.0434C12.847 17.2825 12.8834 17.5049 12.9187 17.7415C12.9343 17.8469 13.0697 18.065 13.1473 18.2185L13.9887 22.7599L14.4141 21.4646L13.9643 16.52L14.8952 13.025L15.5298 12.8869L14.9503 11.6178L16.3573 11.2592C16.7647 11.36 17.2013 11.4229 17.6476 11.4579C17.9082 11.5402 18.1735 11.6112 18.4345 11.6773C19.0909 11.8438 19.7476 12.0102 20.404 12.1767L21.0031 12.5083C24.0139 14.3367 27.473 15.4632 31.0126 15.8091L31.202 16.52L30.7522 21.4646L31.1775 22.7599L32.4475 15.9042C33.5182 15.9445 34.5914 15.9172 35.6575 15.8111Z" fill="#02020C"/>
</g>
<circle cx="22.5" cy="22.5" r="21.5" stroke="#EAD3D6" stroke-width="2"/>
</svg>
