<svg width="27" height="27" viewBox="0 0 27 27" fill="none" xmlns="http://www.w3.org/2000/svg">
<path d="M1.00002 6.22469C1.00002 3.86303 1.00002 2.68219 1.76276 1.94852C2.5255 1.21484 3.75312 1.21484 6.20835 1.21484C8.66358 1.21484 9.8912 1.21484 10.6539 1.94852C11.4167 2.68219 11.4167 3.86303 11.4167 6.22469C11.4167 8.58636 11.4167 9.76719 10.6539 10.5009C9.8912 11.2345 8.66358 11.2345 6.20835 11.2345C3.75312 11.2345 2.5255 11.2345 1.76276 10.5009C1.00002 9.76719 1.00002 8.58636 1.00002 6.22469Z" stroke="#EAD3D6" stroke-width="1.5" stroke-linecap="round" stroke-linejoin="round"/>
<path d="M1.00002 20.2618C1.00002 17.9001 1.00002 16.7193 1.76276 15.9856C2.5255 15.252 3.75312 15.252 6.20835 15.252C8.66358 15.252 9.8912 15.252 10.6539 15.9856C11.4167 16.7193 11.4167 17.9001 11.4167 20.2618C11.4167 22.6235 11.4167 23.8043 10.6539 24.538C9.8912 25.2716 8.66358 25.2716 6.20835 25.2716C3.75312 25.2716 2.5255 25.2716 1.76276 24.538C1.00002 23.8043 1.00002 22.6235 1.00002 20.2618Z" stroke="#EAD3D6" stroke-width="1.5" stroke-linecap="round" stroke-linejoin="round"/>
<path d="M15.5833 6.22469C15.5833 3.86303 15.5833 2.68219 16.3461 1.94852C17.1088 1.21484 18.3364 1.21484 20.7917 1.21484C23.2469 1.21484 24.4745 1.21484 25.2373 1.94852C26 2.68219 26 3.86303 26 6.22469C26 8.58636 26 9.76719 25.2373 10.5009C24.4745 11.2345 23.2469 11.2345 20.7917 11.2345C18.3364 11.2345 17.1088 11.2345 16.3461 10.5009C15.5833 9.76719 15.5833 8.58636 15.5833 6.22469Z" stroke="#EAD3D6" stroke-width="1.5" stroke-linecap="round" stroke-linejoin="round"/>
<path d="M15.5833 20.2618C15.5833 17.9001 15.5833 16.7193 16.3461 15.9856C17.1088 15.252 18.3364 15.252 20.7917 15.252C23.2469 15.252 24.4745 15.252 25.2373 15.9856C26 16.7193 26 17.9001 26 20.2618C26 22.6235 26 23.8043 25.2373 24.538C24.4745 25.2716 23.2469 25.2716 20.7917 25.2716C18.3364 25.2716 17.1088 25.2716 16.3461 24.538C15.5833 23.8043 15.5833 22.6235 15.5833 20.2618Z" stroke="#EAD3D6" stroke-width="1.5" stroke-linecap="round" stroke-linejoin="round"/>
</svg>
