<svg width="32" height="28" viewBox="0 0 32 28" fill="none" xmlns="http://www.w3.org/2000/svg">
<path d="M8.71293 13.5278V18.1646M6.39905 15.8462L11.0268 15.8462" stroke="#EAD3D6" stroke-width="1.5" stroke-linecap="round" stroke-linejoin="round"/>
<path d="M15.6546 8.65538C18.7481 8.65538 21.3631 5.73729 24.5804 6.78126C28.0722 7.91425 30.474 12.0562 30.3003 21.4514C30.2653 23.3444 29.7811 25.4365 27.9143 26.2533C23.6009 28.1405 21.1322 22.6546 17.1183 22.6546H14.1908C10.1729 22.6546 7.69204 28.1334 3.39489 26.2533C1.528 25.4365 1.04385 23.3444 1.00885 21.4514C0.835119 12.0562 3.23695 7.91426 6.72869 6.78126C9.9461 5.73728 12.5611 8.65538 15.6546 8.65538Z" stroke="#EAD3D6" stroke-width="1.5" stroke-linecap="round" stroke-linejoin="round"/>
<path d="M15.6546 1.59961L15.6546 8.30944" stroke="#EAD3D6" stroke-width="1.5" stroke-linecap="round" stroke-linejoin="round"/>
<path d="M20.0886 15.8462H24.7163" stroke="#EAD3D6" stroke-width="1.5" stroke-linecap="round" stroke-linejoin="round"/>
</svg>
