<svg width="92" height="65" viewBox="0 0 92 65" fill="none" xmlns="http://www.w3.org/2000/svg">
<path d="M1.98517 29V11.6298H8.63549C9.6777 11.6298 10.6041 11.8366 11.4147 12.2501C12.2419 12.6472 12.8953 13.2179 13.3751 13.9623C13.8548 14.7068 14.0947 15.6084 14.0947 16.6671V16.9897C14.0947 18.0319 13.8466 18.9335 13.3503 19.6945C12.8705 20.439 12.2171 21.0097 11.3899 21.4067C10.5628 21.8038 9.64462 22.0023 8.63549 22.0023H4.0696V29H1.98517ZM4.0696 20.1164H8.41216C9.52054 20.1164 10.3973 19.8434 11.0425 19.2975C11.6877 18.735 12.0103 17.9492 12.0103 16.9401V16.6919C12.0103 15.6828 11.6877 14.9053 11.0425 14.3594C10.4139 13.7969 9.53709 13.5157 8.41216 13.5157H4.0696V20.1164Z" fill="#FFF5F5"/>
<path d="M52.7495 29V11.6298H56.7942L62.849 27.6848H63.1716V11.6298H65.2312V29H61.1864L55.1565 12.9201H54.8091V29H52.7495Z" fill="#FFF5F5"/>
<path d="M77.7107 29.3474C76.4204 29.3474 75.2789 29.0827 74.2863 28.5533C73.3103 28.0074 72.541 27.2133 71.9785 26.1711C71.4326 25.1289 71.1597 23.8386 71.1597 22.3001V18.3297C71.1597 16.0302 71.7717 14.2849 72.9959 13.0938C74.2201 11.8862 75.8662 11.2824 77.934 11.2824C79.9854 11.2824 81.5487 11.8448 82.624 12.9698C83.6993 14.0947 84.237 15.6001 84.237 17.486V17.6101H82.1773V17.4364C82.1773 16.6092 82.0285 15.8731 81.7307 15.2279C81.4329 14.5827 80.9697 14.0781 80.3411 13.7142C79.7124 13.3337 78.9101 13.1435 77.934 13.1435C76.4617 13.1435 75.312 13.5984 74.4848 14.5083C73.6577 15.4016 73.2441 16.6589 73.2441 18.2801V22.3497C73.2441 23.9709 73.6577 25.2364 74.4848 26.1463C75.312 27.0396 76.47 27.4863 77.9589 27.4863C79.4147 27.4863 80.4817 27.0727 81.1599 26.2456C81.8548 25.4184 82.2022 24.3183 82.2022 22.9452V22.5234H76.9415V20.7367H84.237V29H82.351V27.1141H82.0036C81.8217 27.478 81.5653 27.8337 81.2344 28.1811C80.9035 28.5285 80.4569 28.8098 79.8944 29.0248C79.3319 29.2399 78.604 29.3474 77.7107 29.3474Z" fill="#FFF5F5"/>
<path d="M1.98517 53.4482V36.078H8.63549C9.6777 36.078 10.6041 36.2848 11.4147 36.6984C12.2419 37.0954 12.8953 37.6661 13.3751 38.4106C13.8548 39.155 14.0947 40.0566 14.0947 41.1154V41.438C14.0947 42.4802 13.8466 43.3818 13.3503 44.1428C12.8705 44.8872 12.2171 45.4579 11.3899 45.855C10.5628 46.252 9.64462 46.4505 8.63549 46.4505H4.0696V53.4482H1.98517ZM4.0696 44.5646H8.41216C9.52054 44.5646 10.3973 44.2916 11.0425 43.7457C11.6877 43.1833 12.0103 42.3975 12.0103 41.3883V41.1402C12.0103 40.1311 11.6877 39.3535 11.0425 38.8076C10.4139 38.2452 9.53709 37.9639 8.41216 37.9639H4.0696V44.5646Z" fill="#FFF5F5"/>
<path d="M52.7495 53.4482V36.078H56.7942L62.849 52.1331H63.1716V36.078H65.2312V53.4482H61.1864L55.1565 37.3684H54.8091V53.4482H52.7495Z" fill="#FFF5F5"/>
<path d="M77.7107 53.7956C76.4204 53.7956 75.2789 53.531 74.2863 53.0016C73.3103 52.4557 72.541 51.6616 71.9785 50.6194C71.4326 49.5772 71.1597 48.2868 71.1597 46.7483V42.778C71.1597 40.4785 71.7717 38.7332 72.9959 37.5421C74.2201 36.3344 75.8662 35.7306 77.934 35.7306C79.9854 35.7306 81.5487 36.2931 82.624 37.418C83.6993 38.5429 84.237 40.0483 84.237 41.9343V42.0583H82.1773V41.8846C82.1773 41.0575 82.0285 40.3213 81.7307 39.6761C81.4329 39.0309 80.9697 38.5264 80.3411 38.1624C79.7124 37.7819 78.9101 37.5917 77.934 37.5917C76.4617 37.5917 75.312 38.0466 74.4848 38.9565C73.6577 39.8498 73.2441 41.1071 73.2441 42.7283V46.7979C73.2441 48.4191 73.6577 49.6847 74.4848 50.5946C75.312 51.4879 76.47 51.9346 77.9589 51.9346C79.4147 51.9346 80.4817 51.521 81.1599 50.6938C81.8548 49.8667 82.2022 48.7665 82.2022 47.3935V46.9716H76.9415V45.185H84.237V53.4482H82.351V51.5623H82.0036C81.8217 51.9263 81.5653 52.282 81.2344 52.6294C80.9035 52.9768 80.4569 53.258 79.8944 53.4731C79.3319 53.6881 78.604 53.7956 77.7107 53.7956Z" fill="#FFF5F5"/>
<path d="M46.5394 41.296C46.5394 48.8741 40.3891 55.0245 32.811 55.0245C25.2329 55.0245 19.0825 48.8741 19.0825 41.296C19.0825 35.1138 23.1758 29.8818 28.7982 28.1641V31.8524C25.1275 33.4154 22.552 37.0568 22.552 41.296C22.552 46.959 27.148 51.555 32.811 51.555C38.474 51.555 43.07 46.959 43.07 41.296C43.07 37.0568 40.4944 33.4154 36.8237 31.8524V28.1641C42.4462 29.8818 46.5394 35.1138 46.5394 41.296Z" fill="#913DCE"/>
<path d="M28.5138 16.96L31.8691 16.3683L35.5308 37.135L32.1755 37.7266L28.5138 16.96Z" fill="#913DCE"/>
<path d="M32.811 8.47559C34.2106 8.47559 35.3464 9.61144 35.3464 11.011C35.3464 12.4105 34.2106 13.5464 32.811 13.5464C31.4115 13.5464 30.2756 12.4105 30.2756 11.011C30.2756 9.61144 31.4115 8.47559 32.811 8.47559Z" fill="#913DCE"/>
</svg>
