<svg width="324" height="359" viewBox="0 0 324 359" fill="none" xmlns="http://www.w3.org/2000/svg">
<g clip-path="url(#clip0_2553_915)">
<path d="M263.468 358.007C243.538 358.431 224.4 334.97 224.4 334.97V327.767C223.199 327.652 222.069 327.482 221.018 327.257C209.331 324.82 206.313 316.46 206.313 316.46V308.439C189.283 294.256 162.211 286.12 162.211 286.12C134.799 287.662 97.9672 323.116 97.9672 323.116L95.6361 332.394C83.8151 348.336 62.7881 358.007 62.7881 358.007L64.4941 333.643L65.2451 323L79.6821 117.146L249.798 118.835C247.727 176.023 258.246 300.241 262.094 343.106C262.947 352.516 263.468 358.007 263.468 358.007Z" fill="url(#paint0_linear_2553_915)"/>
<path d="M263.468 358.007C243.538 358.431 224.4 334.97 224.4 334.97V327.767C223.199 327.652 222.069 327.482 221.018 327.258C209.331 324.821 206.313 316.46 206.313 316.46V308.439C189.283 294.256 162.211 286.12 162.211 286.12C134.799 287.662 97.9672 323.116 97.9672 323.116L95.6361 332.394C83.8151 348.336 62.7881 358.007 62.7881 358.007L64.4941 333.644C64.4941 333.644 82.4022 331.515 95.6342 310.691C95.6342 310.691 128.344 278.785 160.568 271.859C160.568 271.859 191.008 284.917 206.914 295.235V302.331C206.914 302.331 211.102 317.909 225.918 316.097V321.488C225.918 321.488 238.159 342.597 262.094 343.106C262.947 352.516 263.468 358.007 263.468 358.007Z" fill="url(#paint1_linear_2553_915)"/>
<path opacity="0.5" d="M263.468 358.007C263.468 358.007 246.447 235.965 241.484 233.536C236.513 231.107 224.399 327.767 224.399 327.767C223.198 327.652 222.068 327.481 221.017 327.258C221.017 327.258 217.177 255.247 212.625 255.516C208.066 255.787 206.312 308.439 206.312 308.439C189.282 294.256 162.21 286.12 162.21 286.12C134.798 287.662 97.9661 323.116 97.9661 323.116C93.2251 260.946 83.0021 261.701 81.4221 262.874C79.8411 264.046 65.3231 323.116 65.3231 323.116C65.3231 323.116 65.2991 323.078 65.2441 323.001L79.6821 117.148L249.798 118.836C247.276 188.58 263.468 358.007 263.468 358.007Z" fill="#8E3D9C"/>
<path d="M102.762 129.85L86.185 138.407L74.043 197.178C69.896 197.472 58.703 191.362 48.961 185.331C40.31 179.98 26.442 164.291 26.386 162.816C26.386 162.812 26.386 162.812 26.386 162.812C29.791 159.497 32.826 157.787 32.826 157.787C32.826 157.787 15.51 135.745 14.364 132.972C13.561 131.023 7.63596 120.237 6.92296 117.588C6.91896 117.588 6.91893 117.584 6.91893 117.584C6.61793 116.462 26.8149 116.23 26.8149 116.23C26.8149 116.23 26.811 116.23 26.811 116.226C26.592 116.067 21.719 110.816 19.516 107.641C14.918 101.015 -0.406071 68.5557 0.194929 68.5557C41.3519 68.5557 84.944 102.913 86.958 106.098C87.439 106.856 87.946 107.719 88.478 108.662C92.153 115.184 97.0649 125.426 102.762 129.85Z" fill="url(#paint2_linear_2553_915)"/>
<path opacity="0.5" d="M102.762 129.85L86.1849 138.407L74.0428 197.178C66.2118 197.735 37.2979 180.555 26.3848 162.816C26.5049 163.62 37.2938 169.554 46.3498 167.683C51.7428 166.569 80.2879 146.147 77.6599 144.29C76.0409 143.146 51.4698 147.19 32.8248 157.788C32.8248 157.788 15.5099 135.747 14.3629 132.973C13.5599 131.024 7.63386 120.237 6.92086 117.589C7.82686 118.871 11.5228 124.241 21.6618 130.825C26.9118 134.235 45.5368 139.865 55.8438 141.71C62.5118 142.902 86.0729 132.645 84.0769 129.012C83.0899 127.214 72.7158 117.586 26.8148 116.231C26.8148 116.231 26.8109 116.231 26.8109 116.227C26.5919 116.068 21.7188 110.817 19.5158 107.642C14.9178 101.016 -0.367213 68.7655 0.194787 68.5557C0.194787 68.5557 8.65078 87.1475 31.4138 100.518C34.7028 102.449 87.0488 109.067 86.9588 106.099C90.7508 112.1 96.2398 124.785 102.762 129.85Z" fill="#6E5066"/>
<path opacity="0.5" d="M24.4848 97.8211C27.6218 101.183 39.0388 115.844 38.4388 115.937C34.0298 116.614 28.0618 115.233 26.9538 114.451C20.1338 109.64 10.9568 92.8464 7.50581 84.7866C5.50181 80.1067 21.5798 94.7076 24.4848 97.8211Z" fill="url(#paint3_linear_2553_915)"/>
<path opacity="0.5" d="M25.5581 135.869C26.8391 137.311 35.3411 156.536 32.8251 155.553C30.3091 154.569 15.3292 136.766 11.5722 125.869C10.6312 123.139 23.3401 133.371 25.5581 135.869Z" fill="url(#paint4_linear_2553_915)"/>
<path opacity="0.5" d="M29.852 166.866C29.968 167.865 45.5719 186.655 71.9029 196.17C75.0269 197.299 72.75 185.613 70.15 182.278C64.469 174.992 29.499 163.823 29.852 166.866Z" fill="url(#paint5_linear_2553_915)"/>
<path d="M31.415 100.518C42.756 103.699 82.221 107.438 85.374 106.732C88.035 106.136 12.008 84.8343 16.87 89.8246C20.012 93.0503 29.283 99.9194 31.415 100.518Z" fill="white"/>
<path opacity="0.5" d="M87.176 110.465C77.418 106.099 29.707 100.976 29.847 101.982C30.169 104.287 39.288 115.191 40.586 115.734C42.667 116.604 56.75 114.137 97.55 128.594C99.039 129.122 91.604 112.448 87.176 110.465Z" fill="#BFB5DF"/>
<path opacity="0.5" d="M102.762 129.851L86.1849 138.407L74.0428 197.178C69.8958 197.472 58.7029 191.362 48.9609 185.331C48.9609 185.331 46.7368 171.78 46.3508 167.682C45.9648 163.588 50.6669 149.9 50.6669 149.9C50.6669 149.9 42.6548 140.45 42.9128 138.454C43.8068 131.544 63.3319 119.12 63.3319 119.12C63.3319 119.12 97.0648 125.426 102.762 129.851Z" fill="url(#paint6_linear_2553_915)"/>
<path d="M221.345 129.85L237.922 138.407L250.064 197.178C254.211 197.472 265.404 191.362 275.146 185.331C283.797 179.98 297.665 164.291 297.721 162.816C297.721 162.812 297.721 162.812 297.721 162.812C294.316 159.497 291.281 157.787 291.281 157.787C291.281 157.787 308.596 135.745 309.743 132.972C310.546 131.023 316.471 120.237 317.184 117.588C317.188 117.588 317.188 117.584 317.188 117.584C317.489 116.462 297.292 116.23 297.292 116.23C297.292 116.23 297.296 116.23 297.296 116.226C297.515 116.067 302.388 110.816 304.591 107.641C309.189 101.015 324.513 68.5557 323.912 68.5557C282.754 68.5557 239.163 102.913 237.149 106.098C236.668 106.856 236.162 107.719 235.629 108.662C231.955 115.184 227.043 125.426 221.345 129.85Z" fill="url(#paint7_linear_2553_915)"/>
<path opacity="0.5" d="M221.346 129.85L237.922 138.407L250.064 197.178C257.896 197.735 286.81 180.555 297.722 162.816C297.602 163.62 286.813 169.554 277.757 167.683C272.364 166.569 243.819 146.147 246.447 144.29C248.066 143.146 272.637 147.19 291.282 157.788C291.282 157.788 308.598 135.747 309.744 132.973C310.547 131.024 316.473 120.237 317.186 117.589C316.28 118.871 312.584 124.241 302.445 130.825C297.196 134.235 278.571 139.865 268.263 141.71C261.595 142.902 238.034 132.645 240.03 129.012C241.017 127.214 251.392 117.586 297.293 116.231C297.293 116.231 297.297 116.231 297.297 116.227C297.516 116.068 302.389 110.817 304.591 107.642C309.19 101.016 324.474 68.7655 323.912 68.5557C323.912 68.5557 315.457 87.1475 292.693 100.518C289.405 102.449 237.058 109.067 237.148 106.099C233.357 112.1 227.868 124.785 221.346 129.85Z" fill="#6E5066"/>
<path opacity="0.5" d="M299.623 97.8211C296.486 101.183 285.069 115.844 285.669 115.937C290.078 116.614 296.046 115.233 297.154 114.451C303.974 109.64 313.151 92.8464 316.602 84.7866C318.606 80.1067 302.528 94.7076 299.623 97.8211Z" fill="url(#paint8_linear_2553_915)"/>
<path opacity="0.5" d="M298.549 135.869C297.268 137.311 288.766 156.536 291.282 155.553C293.798 154.569 308.778 136.766 312.535 125.869C313.476 123.139 300.768 133.371 298.549 135.869Z" fill="url(#paint9_linear_2553_915)"/>
<path opacity="0.5" d="M294.256 166.866C294.14 167.865 278.453 181.75 276.744 183.247C274.265 185.419 252.259 200.299 252.985 196.17C254.298 188.704 256.287 179.745 259.506 176.865C261.899 174.724 294.406 165.572 294.256 166.866Z" fill="url(#paint10_linear_2553_915)"/>
<path d="M292.693 100.518C281.352 103.699 241.887 107.438 238.734 106.732C236.073 106.136 312.1 84.8343 307.238 89.8246C304.096 93.0503 294.824 99.9194 292.693 100.518Z" fill="white"/>
<path opacity="0.5" d="M236.932 110.465C246.69 106.099 294.401 100.976 294.261 101.982C293.939 104.287 284.82 115.191 283.522 115.734C281.442 116.604 267.358 114.137 226.558 128.594C225.069 129.122 232.503 112.448 236.932 110.465Z" fill="#BFB5DF"/>
<path opacity="0.5" d="M221.345 129.851L237.922 138.407L250.064 197.178C254.211 197.472 265.404 191.362 275.146 185.331C275.146 185.331 277.37 171.78 277.756 167.682C278.143 163.588 273.44 149.9 273.44 149.9C273.44 149.9 281.453 140.45 281.194 138.454C280.3 131.544 260.775 119.12 260.775 119.12C260.775 119.12 227.043 125.426 221.345 129.851Z" fill="url(#paint11_linear_2553_915)"/>
<path d="M262.078 149.89C254.014 179.477 248.176 212.526 234.241 239.521C225.868 255.741 207.896 268.936 193.886 280.801C183.601 289.51 173.082 297.982 162.278 306.074C137.858 287.924 108.691 267.84 91.6542 242.578C91.6522 242.578 91.6522 242.578 91.6492 242.578C90.9442 241.51 90.3261 240.49 89.8391 239.522C76.0451 212.145 70.0612 179.459 62.0032 149.891C61.2902 140.347 62.9541 130.55 65.0361 121.245C129.882 119.14 194.747 119.143 259.592 121.264C261.399 130.612 262.805 140.367 262.078 149.89Z" fill="url(#paint12_linear_2553_915)"/>
<path opacity="0.5" d="M262.078 149.89C254.014 179.477 247.952 211.872 234.241 239.521C233.883 219.045 241.114 196.732 245.602 176.914C249.826 158.263 254.474 139.7 259.591 121.263C261.399 130.612 262.805 140.367 262.078 149.89Z" fill="url(#paint13_linear_2553_915)"/>
<path opacity="0.5" d="M162.28 306.072C161.274 305.639 160.431 281.079 166.532 273.883C174.44 264.555 189.823 257.417 201.525 250.75C206.701 247.801 232.616 234.511 233.871 238.232C234.99 241.551 224.282 253.115 219.971 257.476C212.268 265.269 202.899 272.992 194.614 280.186C183.086 290.196 162.28 306.072 162.28 306.072Z" fill="#6E5066"/>
<path opacity="0.5" d="M91.6529 242.577C91.6509 242.577 91.6509 242.577 91.6479 242.577C90.9429 241.509 90.325 240.489 89.838 239.521C76.044 212.144 70.0599 179.458 62.0019 149.89C61.2889 140.346 62.953 130.549 65.035 121.244C68.478 121.128 70.199 121.072 73.642 120.967C78.531 161.246 81.1589 203.234 91.6529 242.577Z" fill="url(#paint14_linear_2553_915)"/>
<path d="M240.134 127.073C233.508 121.334 226.696 116.094 219.429 111.15C219.423 111.146 219.42 111.144 219.414 111.14C203.147 100.952 185.919 92.7276 167.346 87.3957C167.343 87.3957 167.343 87.3957 167.341 87.3957C165.72 86.9311 164.269 86.5437 163.004 86.2245C162.731 86.1533 162.593 86.1181 162.32 86.0479C162.048 86.1181 161.913 86.1533 161.641 86.2245C132.92 93.5191 106.614 107.879 84.4899 127.06C84.1369 127.379 83.9609 127.537 83.6089 127.855C83.6709 128.328 83.7018 128.565 83.7628 129.039C83.9148 130.194 84.0799 131.433 84.2579 132.745C85.7559 143.742 87.4368 154.813 89.3668 165.716C92.8868 185.602 95.8459 209.203 106.452 227.189C106.471 227.22 106.481 227.236 106.501 227.267C106.522 227.297 106.533 227.311 106.555 227.34C114.566 237.291 126.955 244.623 137.368 251.708C141.159 254.288 144.959 256.757 148.479 259.025C152.674 261.728 156.908 264.393 161.171 266.999C161.616 267.273 161.838 267.41 162.284 267.682C162.73 267.409 162.954 267.272 163.401 266.998C163.573 266.896 163.745 266.786 163.922 266.676C171.691 261.818 179.611 256.839 187.208 251.704C197.641 244.652 210.017 237.313 218.028 227.336C218.049 227.306 218.06 227.292 218.081 227.262C218.101 227.231 218.111 227.215 218.13 227.184C228.736 209.183 231.699 185.622 235.234 165.721C236.95 156.058 238.484 146.272 239.843 136.516C240.226 133.764 240.569 131.256 240.856 129.052C240.92 128.578 240.952 128.342 241.016 127.868C240.662 127.549 240.486 127.391 240.134 127.073ZM225.656 164.53C222.494 183.205 219.821 204.754 210.57 221.887C202.669 230.468 192.022 237.057 182.441 243.489C175.853 247.913 169.085 252.244 162.283 256.442C155.483 252.246 148.72 247.914 142.133 243.492C132.555 237.061 121.97 230.422 114.011 221.89C104.747 204.721 102.11 183.255 98.9479 164.525C97.1269 153.738 95.5398 142.808 94.1888 131.901C114.147 115.485 137.102 103.027 162.317 96.207C187.529 103.028 210.48 115.494 230.432 131.911C229.058 142.816 227.483 153.745 225.656 164.53Z" fill="url(#paint15_linear_2553_915)"/>
<path d="M230.431 131.912C229.058 142.816 227.483 153.745 225.656 164.53C222.494 183.204 219.821 204.754 210.57 221.886C203.253 232.456 192.859 240.643 182.389 247.79C175.889 252.228 169.068 256.549 162.282 260.747C155.498 256.551 148.681 252.23 142.183 247.793C131.707 240.641 121.337 232.459 114.01 221.89C105.667 206.402 103.097 187.345 99.9709 170.436C99.9659 170.431 99.9659 170.431 99.9659 170.431C99.6309 168.529 99.284 166.557 98.947 164.525C97.15 153.705 95.539 142.808 94.188 131.901C98.079 128.52 102.244 125.244 106.479 122.353C121.191 112.31 137.408 104.029 154.596 98.5033C157.53 97.5605 160.139 96.7943 162.317 96.2058C170.738 98.5131 178.932 101.501 186.862 104.883C202.663 111.625 217.155 120.96 230.431 131.912Z" fill="url(#paint16_linear_2553_915)"/>
<path opacity="0.3" d="M238.362 128.866C235.18 130.077 233.594 130.687 230.431 131.912C210.48 115.495 187.528 103.029 162.316 96.2078C162.317 93.1588 162.317 91.6343 162.318 88.5843C164.324 88.106 165.329 87.8679 167.34 87.3955C167.342 87.3955 167.343 87.3955 167.345 87.3955C185.918 92.7274 203.147 100.952 219.413 111.14C219.419 111.144 219.422 111.145 219.428 111.149C225.78 117.014 232.093 122.917 238.362 128.866Z" fill="#7F6593"/>
<path d="M239.841 136.516C238.486 146.278 236.948 156.059 235.232 165.72C231.697 185.622 228.734 209.183 218.128 227.184C218.108 227.215 218.098 227.231 218.079 227.262C218.058 227.291 218.047 227.306 218.026 227.335C210.015 237.313 197.639 244.652 187.206 251.704C179.61 256.839 171.789 261.84 163.92 266.676C163.265 265.956 162.938 265.596 162.282 264.876C162.282 263.226 162.282 262.4 162.282 260.749C169.068 256.552 175.889 252.23 182.389 247.792C192.859 240.644 203.253 232.456 210.57 221.886C219.821 204.754 222.495 183.205 225.656 164.53C227.482 153.745 229.057 142.816 230.431 131.912C233.594 130.686 235.18 130.077 238.362 128.866C238.957 131.927 239.252 133.457 239.841 136.516Z" fill="url(#paint17_linear_2553_915)"/>
<path d="M259.536 121.203C257.955 119.552 256.233 117.934 254.539 116.36C254.309 116.147 254.069 115.931 253.82 115.705C246.084 108.723 237.497 102.588 228.782 96.8208C228.782 96.8208 225.884 96.1717 221.549 93.4731C217.348 90.8584 215.941 89.3505 215.858 89.2607C215.856 89.2587 215.855 89.2578 215.853 89.2558C200.159 81.1423 183.802 74.1356 166.778 69.5533C166.647 69.5182 166.511 69.4801 166.374 69.445C164.438 68.9394 163.12 68.5978 162.592 68.4748C162.539 68.4651 162.486 68.4504 162.432 68.4407C162.395 68.4309 162.363 68.4211 162.326 68.4114C162.326 68.4114 162.31 68.4163 162.284 68.4211C162.257 68.426 162.209 68.4358 162.156 68.4504C127.211 76.8469 92.1821 94.4745 66.8381 119.436C66.2341 120.03 65.6321 120.633 65.0361 121.244C65.0571 121.397 65.0671 121.474 65.0881 121.626C65.2091 122.581 65.5761 125.299 66.1621 129.305C66.1671 129.339 66.1702 129.357 66.1752 129.391C68.7592 146.98 71.7651 164.536 75.5121 181.925C79.3951 199.943 83.1391 220.345 93.0511 235.878C101.371 248.916 118.695 258.671 131.523 267.402C141.598 274.26 151.844 280.895 162.28 287.219C172.718 280.892 182.967 274.255 193.044 267.395C205.851 258.678 223.223 248.868 231.522 235.87C241.447 220.325 245.206 199.962 249.085 181.927C252.825 164.538 255.855 146.992 258.448 129.406C258.453 129.372 258.456 129.355 258.461 129.321C259.05 125.315 259.418 122.599 259.54 121.643C259.561 121.49 259.571 121.414 259.592 121.262C259.592 121.262 259.573 121.242 259.536 121.203ZM232.844 165.422C229.415 184.978 226.603 208.248 216.192 225.949C208.167 235.567 196.26 242.742 186.016 249.653C178.273 254.877 170.302 259.96 162.282 264.877C154.255 259.98 146.296 254.88 138.557 249.657C128.391 242.795 116.357 235.549 108.389 225.954C97.9782 208.269 95.1761 184.96 91.7601 165.417C89.6471 153.327 87.8272 141.08 86.2592 128.854C108.064 109.978 134.029 95.7843 162.318 88.5853C190.609 95.837 216.541 109.967 238.362 128.866C236.789 141.09 234.963 153.335 232.844 165.422Z" fill="url(#paint18_linear_2553_915)"/>
<path d="M257.792 121.346C255.68 114.326 232.342 100.555 219.515 92.9314C202.426 82.7732 170.921 68.4133 162.969 69.5064C162.802 69.5328 162.188 69.5328 162.021 69.5064C154.069 68.4123 122.128 81.1423 105.039 91.3015C92.2119 98.925 69.3099 114.326 67.1929 121.346C65.4419 127.171 69.1919 145.87 71.0179 145.879C72.7199 145.884 81.1569 143.077 85.7419 140.79C86.8139 140.259 84.874 130.079 86.259 128.854C112.14 105.913 138.617 95.389 159.389 88.5843C162.028 87.7196 162.902 87.9987 163.789 88.3286C180.106 94.3983 212.851 105.913 238.732 128.854C240.117 130.079 238.177 140.259 239.249 140.79C243.828 143.077 252.27 145.884 253.973 145.879C255.798 145.87 259.548 127.171 257.792 121.346Z" fill="white"/>
<path opacity="0.7" d="M94.188 131.912C95.562 142.816 97.136 153.745 98.963 164.53C102.125 183.204 104.798 204.754 114.05 221.886C121.366 232.457 131.76 240.645 142.231 247.792C148.731 252.229 155.552 256.551 162.338 260.749C162.194 233.347 162.071 205.938 162.321 178.541C162.571 151.122 163.128 123.628 162.304 96.2078C137.091 103.029 114.14 115.495 94.188 131.912Z" fill="white"/>
<path opacity="0.5" d="M230.431 131.912C229.058 142.816 227.483 153.745 225.656 164.53C222.494 183.205 219.821 204.754 210.57 221.886C203.253 232.456 192.859 240.643 182.389 247.79C175.889 252.228 169.068 256.549 162.282 260.747C155.498 256.551 148.681 252.23 142.183 247.793C131.707 240.641 121.337 232.459 114.01 221.89C105.667 206.402 103.097 187.345 99.9709 170.436C99.9659 170.431 99.9659 170.431 99.9659 170.431C99.6309 168.529 99.284 166.557 98.947 164.525C97.15 153.705 95.539 142.808 94.188 131.901C98.079 128.52 102.234 125.301 106.479 122.353C106.561 122.312 106.603 122.292 106.686 122.251C102.599 125.327 98.8719 129.118 97.4709 133.178C94.3309 142.283 102.658 177.859 105.125 188.673C108.436 203.185 148.243 182.41 160.526 181.771C172.54 181.145 209.097 208.713 215.204 197.769C230.716 169.976 219.596 124.744 186.806 104.883C186.806 104.883 186.826 104.883 186.862 104.884C202.748 111.837 217.155 120.96 230.431 131.912Z" fill="url(#paint19_linear_2553_915)"/>
<path opacity="0.5" d="M86.712 132.061C89.714 134.374 94.902 137.458 94.902 137.458C99.718 127.938 123.183 114.87 139.287 111.376C157.768 107.366 179.359 110.85 195.968 121.263C206.423 127.816 220.907 138.782 228.076 149.174C231.379 146.802 233.041 145.621 236.382 143.268C237.158 137.504 237.553 134.624 238.361 128.865C200.338 96.2488 162.317 88.5842 162.317 88.5842C162.317 88.5842 118.243 99.5915 86.2581 128.853C86.4411 130.136 86.532 130.778 86.712 132.061Z" fill="url(#paint20_linear_2553_915)"/>
<path opacity="0.3" d="M252.859 147.394C249.787 145.862 238.88 143.566 237.17 147.845C236.13 150.447 233.479 165.484 231.702 175.061C228.245 193.698 225.328 196.884 222.987 206.971C222.107 210.762 238.615 210.536 241.014 208.913C242.862 207.663 243.676 204.097 246.633 190.209C249.122 178.519 252.089 166.747 253.805 154.895C254.297 151.504 254.838 148.382 252.859 147.394Z" fill="#7F6593"/>
<path opacity="0.3" d="M86.2592 143.614C84.9122 142.604 72.4092 145.581 71.0052 147.941C69.4972 150.473 73.1012 168.902 75.0872 178.189C79.0182 196.572 82.0542 207.299 83.6082 209.794C87.0342 215.294 103.895 215.839 102.373 210.841C99.6592 201.931 96.9401 198.327 94.1891 181.772C92.3621 170.789 88.6722 145.424 86.2592 143.614Z" fill="#7F6593"/>
<path opacity="0.5" d="M164.659 302.168C163.463 302.385 163.308 288.791 163.884 288.038C169.666 280.468 193.552 270.594 186.81 285.141C184.816 289.444 168.913 301.398 164.659 302.168Z" fill="#6E5066"/>
<path d="M218.827 248.53C220.815 246.453 216.947 229.729 215.148 230.821C212.393 232.492 163.279 264.815 162.314 266.058C160.164 268.829 162.058 284.988 162.982 285.138C165.122 285.487 212.401 255.245 218.827 248.53Z" fill="white"/>
<path d="M137.908 96.2079C140.862 94.943 138.62 75.9256 135.409 77.0304C109.175 86.0487 82.335 106.252 82.401 107.118C82.491 108.313 98.381 116.086 105 113.13C109.857 110.96 125.068 101.707 137.908 96.2079Z" fill="white"/>
<path opacity="0.8" d="M259.591 121.263C259.57 121.415 259.56 121.491 259.539 121.644C259.102 124.715 258.887 126.25 258.46 129.322C258.455 129.356 258.452 129.373 258.447 129.407C254.265 109.653 239.045 106.584 227.257 98.1257C223.825 95.6642 220.131 93.2506 216.44 91.038C200.95 81.7543 182.071 72.3847 163.818 70.4053C150.21 68.9296 122.439 83.1031 106.359 92.908C93.3451 100.844 70.4601 113.529 66.1741 129.391C66.1691 129.357 66.1661 129.339 66.1611 129.305C65.7371 126.234 65.5222 124.697 65.0872 121.626C65.0662 121.473 65.0562 121.396 65.0352 121.244C65.6312 120.634 66.2332 120.02 66.8372 119.436C92.3652 94.7331 126.712 76.6508 162.155 68.4504C162.208 68.4358 162.256 68.426 162.283 68.4211C162.309 68.4163 162.325 68.4114 162.325 68.4114C162.362 68.4211 162.394 68.4309 162.431 68.4407C162.485 68.4504 162.538 68.4651 162.591 68.4748C163.864 68.7891 165.13 69.1229 166.373 69.445C166.51 69.4801 166.645 69.5182 166.777 69.5533C183.795 74.1259 200.157 81.1423 215.852 89.2558C215.854 89.2578 215.855 89.2587 215.857 89.2607C215.941 89.3505 217.347 90.8584 221.548 93.4731C225.883 96.1708 228.781 96.8208 228.781 96.8208C237.542 102.609 246.026 108.702 253.819 115.705C254.069 115.93 254.308 116.148 254.538 116.36C257.513 119.103 259.223 120.866 259.535 121.203C259.573 121.243 259.591 121.263 259.591 121.263Z" fill="#7E527C"/>
<path d="M126.436 241.196C126.436 241.196 156.899 266.678 162.024 266.678C166.865 266.678 194.614 243.941 194.614 243.941C194.597 243.919 165.891 261.873 162.419 262.324C155.149 263.269 126.436 241.196 126.436 241.196Z" fill="white"/>
<path d="M232.16 169.405C232.504 169.48 216.192 225.95 216.192 225.95C215.955 225.843 224.233 212.419 228.686 195.957C230.741 188.354 232.16 169.405 232.16 169.405Z" fill="white"/>
<path d="M92.3109 168.628C91.9669 168.703 107.125 223.711 107.125 223.711C107.362 223.605 98.347 207.384 95.248 195.957C93.186 188.355 92.3109 168.628 92.3109 168.628Z" fill="white"/>
<path opacity="0.2" d="M145.196 266.615C154.68 267.065 148.643 260.739 144.879 258.346C141.332 256.091 130.814 252.643 130.137 253.847C129.06 255.761 138.883 266.315 145.196 266.615Z" fill="#7F6593"/>
<path opacity="0.2" d="M147.347 270.326C141.413 267.984 139.336 267.173 142.168 271.761C145 276.35 151.171 271.835 147.347 270.326Z" fill="#7F6593"/>
<path d="M114.696 255.487C113.304 257.878 120.739 269.876 126.883 263.536C127.95 262.436 115.742 253.691 114.696 255.487Z" fill="#63495F"/>
<path opacity="0.5" d="M114.887 256.325C114.526 258.133 117.23 262.979 118.973 263.251C120.716 263.523 124.285 260.506 120.739 258.308C116.782 255.858 115.158 254.965 114.887 256.325Z" fill="#5B3952"/>
<path d="M119.831 264.511C124.72 267.234 128.307 265.908 127.745 264.035C127.183 262.163 125.684 261.628 125.684 261.628C125.684 261.628 127.152 262.743 126.363 263.86C125.574 264.977 119.831 264.511 119.831 264.511Z" fill="white"/>
<path d="M228.781 96.8208C228.254 97.3245 227.745 97.7802 227.257 98.1258C221.79 102.002 215.247 97.6377 215.204 91.4343C215.194 90.0601 215.857 89.2617 215.857 89.2617C215.941 89.3515 217.347 90.8594 221.548 93.4741C225.883 96.1708 228.781 96.8208 228.781 96.8208Z" fill="#63495F"/>
<path opacity="0.5" d="M215.593 89.6991C215.024 91.3905 215.608 96.4959 217.701 97.2465C219.794 97.997 221.052 94.4327 220.483 93.5718C219.914 92.71 215.891 88.8158 215.593 89.6991Z" fill="#5B3952"/>
<path d="M217.566 97.6513C217.566 97.6513 221.655 101.494 228.011 97.5205C228.011 97.5205 227.289 101.295 222.788 101.311C220.358 101.321 217.566 97.6513 217.566 97.6513Z" fill="white"/>
<path opacity="0.5" d="M162.738 71.0212C161.834 76.3443 161.498 85.63 163.519 87.3956C165.539 89.1612 185.393 96.2079 193.298 99.5917C194.038 99.9089 198.247 83.3549 192.341 79.04C188.564 76.2799 163.296 67.734 162.738 71.0212Z" fill="#6E5066"/>
<path d="M251.835 244.747C247.174 249.482 246.191 250.324 244.811 251.26C237.287 256.369 220.317 257.779 220.317 257.779L222.8 246.006L251.835 244.747Z" fill="url(#paint21_linear_2553_915)"/>
<path d="M237.913 223.406C251.068 228.715 253.395 243.574 251.835 244.747C239.993 253.653 222.8 246.007 222.8 246.007C222.8 246.007 217.033 229.404 219.38 225.95C221.46 222.889 237.913 223.406 237.913 223.406Z" fill="url(#paint22_linear_2553_915)"/>
<path opacity="0.3" d="M249.828 245.137C251.843 243.604 220.932 226.005 219.38 226.93C217.828 227.855 220.317 243.966 224.233 246.18C225.48 246.885 240.647 252.117 249.828 245.137Z" fill="#7F6593"/>
<path d="M251.332 243.704C252.391 242.96 252.046 232.541 241.015 225.227C236.368 222.146 219.947 224.8 220.317 225.18C220.688 225.561 250.28 244.443 251.332 243.704Z" fill="white"/>
<path d="M72.1489 244.747C76.8099 249.482 77.7929 250.324 79.1729 251.26C86.6969 256.369 103.667 257.779 103.667 257.779L101.184 246.006L72.1489 244.747Z" fill="url(#paint23_linear_2553_915)"/>
<path d="M86.071 223.406C72.916 228.715 70.589 243.574 72.15 244.747C83.992 253.653 101.185 246.007 101.185 246.007C101.185 246.007 106.952 229.404 104.605 225.95C102.524 222.889 86.071 223.406 86.071 223.406Z" fill="url(#paint24_linear_2553_915)"/>
<path opacity="0.3" d="M74.1559 245.137C72.1409 243.604 103.052 226.005 104.604 226.93C106.156 227.855 103.667 243.966 99.7508 246.18C98.5038 246.885 83.3369 252.117 74.1559 245.137Z" fill="#7F6593"/>
<path d="M72.6521 243.704C71.5931 242.96 71.9381 232.541 82.9691 225.227C87.6161 222.146 104.037 224.8 103.667 225.18C103.297 225.561 73.7041 244.443 72.6521 243.704Z" fill="white"/>
<path d="M281.33 135.389C279.013 141.554 278.46 142.71 277.582 144.11C272.798 151.739 259.408 159.692 259.408 159.692L255.265 147.939L281.33 135.389Z" fill="url(#paint25_linear_2553_915)"/>
<path d="M259.792 121.312C274.023 121.01 282.276 133.701 281.331 135.389C274.158 148.191 255.266 147.938 255.266 147.938C255.266 147.938 243.145 134.999 243.871 130.914C244.514 127.296 259.792 121.312 259.792 121.312Z" fill="url(#paint26_linear_2553_915)"/>
<path opacity="0.3" d="M279.654 136.533C280.868 134.339 245.315 130.357 244.275 131.814C243.235 133.27 252.152 147.045 256.649 147.534C258.081 147.689 274.123 146.527 279.654 136.533Z" fill="#7F6593"/>
<path d="M280.44 134.631C281.103 133.534 276.495 124.13 263.381 121.762C257.857 120.765 243.915 129.64 244.412 129.843C244.908 130.047 279.781 135.721 280.44 134.631Z" fill="white"/>
<path d="M43.3569 135.389C45.6739 141.554 46.2269 142.71 47.1049 144.11C51.8889 151.739 63.9629 158.557 63.9629 158.557L69.4219 147.939L43.3569 135.389Z" fill="url(#paint27_linear_2553_915)"/>
<path d="M64.896 121.312C50.665 121.01 42.4111 133.701 43.3571 135.389C50.5301 148.191 69.422 147.938 69.422 147.938C69.422 147.938 81.5431 134.999 80.8171 130.914C80.174 127.296 64.896 121.312 64.896 121.312Z" fill="url(#paint28_linear_2553_915)"/>
<path opacity="0.3" d="M45.0341 136.533C43.8201 134.339 79.373 130.357 80.413 131.814C81.453 133.27 72.5359 147.045 68.0389 147.534C66.6059 147.689 50.5641 146.527 45.0341 136.533Z" fill="#7F6593"/>
<path d="M44.248 134.631C43.585 133.534 48.193 124.13 61.307 121.762C66.831 120.765 80.773 129.64 80.276 129.843C79.78 130.047 44.906 135.721 44.248 134.631Z" fill="white"/>
<path d="M132.606 221.689C131.612 221.689 130.8 221.445 130.194 220.965C126.611 218.154 129.009 206.604 132.258 192.929C132.931 190.092 133.627 187.165 133.676 186.339C133.092 185.465 129.827 182.824 126.935 180.485C116.958 172.415 109.399 165.91 110.297 161.723C111.049 158.215 119.072 156.87 135.652 155.343C139.335 155.003 143.489 154.621 144.465 154.29C144.987 153.554 146.286 150.387 147.439 147.578C152.536 135.158 157.151 124.876 162.009 124.876C162.533 124.876 163.07 125.018 163.606 125.299L163.746 125.37C168.035 127.754 173.39 139.619 178.073 150.555C178.792 152.232 179.531 153.961 179.85 154.585C180.898 154.908 184.715 155.189 188.107 155.438C200.736 156.367 211.37 157.454 213.583 161.375C213.757 161.661 213.861 162.017 213.875 162.396C214.084 165.308 208.934 169.707 200.427 176.6C196.376 179.882 190.829 184.378 190.546 185.689C190.484 186.587 191.338 190.325 192.162 193.942C195.104 206.837 197.28 217.764 194.094 220.878C193.552 221.409 192.778 221.679 191.793 221.679C187.496 221.679 178.231 216.386 168.306 210.489C165.62 208.893 162.85 207.247 161.931 206.858C161.06 207.241 158.52 208.811 156.057 210.334C146.453 216.274 137.441 221.613 132.717 221.687L132.606 221.689Z" fill="url(#paint29_linear_2553_915)"/>
<path d="M211.135 161.863V161.874C211.458 166.35 188.735 180.757 188.487 184.281C188.245 187.728 196.442 213.58 192.29 217.63C188.915 220.931 163.804 203.745 161.949 203.641H161.931C160.342 203.641 140.419 217.951 133.55 218.061H133.544C132.849 218.072 132.291 217.94 131.9 217.63C127.476 214.166 136.039 187.03 135.735 184.771C135.431 182.506 111.791 167.094 113.013 161.414C114.024 156.701 143.95 156.296 145.743 154.94C147.536 153.577 155.845 126.671 162.012 126.671C162.347 126.671 162.701 126.78 163.067 126.986L163.086 126.992C168.546 130.021 177.376 153.668 178.418 155.121C179.535 156.678 207.941 155.993 211.005 161.414C211.085 161.548 211.128 161.7 211.135 161.863Z" fill="url(#paint30_linear_2553_915)"/>
<path opacity="0.5" d="M161.974 175.373L135.734 184.772C135.43 182.507 111.79 167.095 113.012 161.415L161.974 175.373Z" fill="#7E527C"/>
<path opacity="0.5" d="M178.417 155.123L161.974 175.374L162.011 126.673L163.066 126.988L163.085 126.994C168.545 130.022 177.375 153.67 178.417 155.123Z" fill="#7E527C"/>
<path opacity="0.5" d="M211.135 161.863V161.874C211.458 166.35 188.735 180.757 188.487 184.281L161.974 175.373L211.004 161.415L211.135 161.863Z" fill="#7E527C"/>
<path opacity="0.5" d="M192.291 217.631C188.916 220.932 163.805 203.746 161.95 203.642V203.666C161.938 203.648 161.932 203.642 161.932 203.642L161.975 175.373L192.291 217.631Z" fill="#7E527C"/>
<path opacity="0.5" d="M161.974 175.373L161.949 203.642V203.666C161.937 203.648 161.931 203.642 161.931 203.642C160.342 203.642 140.419 217.952 133.55 218.062H133.544L131.9 217.631L161.974 175.373Z" fill="#7E527C"/>
<path d="M161.974 175.373L113.012 161.414C114.023 156.702 143.949 156.297 145.742 154.941L161.974 175.373Z" fill="white"/>
<path opacity="0.5" d="M154.03 80.2384C160.279 102.634 169.156 85.0071 167.344 78.7041L154.03 80.2384Z" fill="#6E5066"/>
<path d="M167.344 78.7043C167.619 83.0475 164.364 85.2015 160.687 85.2015C157.01 85.2015 154.03 82.293 154.03 78.7043C154.03 75.1155 156.305 72.207 160.687 72.207C164.363 72.207 167.117 75.1223 167.344 78.7043Z" fill="#63495F"/>
<path d="M154.847 78.7041C157.271 80.0559 166.538 78.7656 166.475 77.2636C166.412 75.7615 162.746 72.0224 158.865 72.7945C155.34 73.4962 153.319 77.8521 154.847 78.7041Z" fill="white"/>
<path d="M156.104 82.9168C160.119 85.7462 164.993 84.9986 166.979 80.8135C168.524 77.5566 152.854 80.6261 156.104 82.9168Z" fill="white"/>
<path d="M131.9 34.4153C131.9 34.4153 129.8 39.4319 130.633 41.2912C131.466 43.1515 132.763 44.7394 130.99 48.1652C130.99 48.1652 133.859 48.5312 132.764 39.7657C132.346 36.4229 131.9 34.4153 131.9 34.4153Z" fill="#5D4A75"/>
<path d="M163.302 52.0262C162.732 52.1775 162.162 52.3239 161.592 52.4801C152.502 54.881 143.467 57.4625 134.492 60.2441C130.697 57.3796 126.717 54.8664 122.617 52.5581C117.042 49.4203 111.247 46.6533 105.367 43.8864C117.732 44.0181 130.097 48.3223 130.992 48.1661C133.172 47.7806 133.412 42.2662 131.672 35.3122C130.602 31.0422 147.892 40.4655 157.967 47.7172C159.327 48.698 160.557 49.6399 161.592 50.4988C162.246 51.0453 162.821 51.5529 163.302 52.0262Z" fill="url(#paint31_linear_2553_915)"/>
<path d="M191.28 34.4153C191.28 34.4153 193.38 38.3866 192.546 40.2459C191.713 42.1062 190.416 44.7384 192.189 48.1652C192.189 48.1652 189.32 48.5312 190.416 39.7657C190.834 36.4229 191.28 34.4153 191.28 34.4153Z" fill="#5D4A75"/>
<path d="M217.562 43.8864C212.787 46.4484 208.112 48.7177 203.572 51.103C198.427 53.8016 193.452 56.6515 188.687 60.2432C179.712 57.4616 170.682 54.8801 161.592 52.4791C161.022 52.323 160.452 52.1766 159.882 52.0253C160.362 51.5519 160.937 51.0395 161.592 50.4979C162.672 49.5951 163.972 48.6093 165.407 47.5796C175.507 40.3475 192.572 31.0657 191.507 35.3113C189.767 42.2653 190.007 47.7797 192.192 48.1652C193.081 48.3224 205.197 44.0172 217.562 43.8864Z" fill="url(#paint32_linear_2553_915)"/>
<path opacity="0.5" d="M203.572 51.1028C198.427 53.8014 193.452 56.6513 188.687 60.243C179.712 57.4614 170.682 54.8799 161.592 52.4789C152.502 54.8799 143.467 57.4614 134.492 60.243C130.697 57.3785 126.717 54.8653 122.617 52.557C123.947 51.825 124.832 51.3468 124.832 51.3468C135.932 49.0971 147.387 48.0625 157.967 47.7161C160.502 47.6331 162.987 47.5892 165.407 47.5794C186.317 47.4818 202.227 49.7901 202.227 49.7901L203.572 51.1028Z" fill="url(#paint33_linear_2553_915)"/>
<path d="M200.25 64.8509C198.517 67.1318 197.333 68.7871 197.333 68.7871C197.333 68.7871 196.667 79.3777 196.09 80.3019C195.513 81.2252 191.841 83.429 190.262 84.1991C158.328 99.7809 132.663 84.1991 132.663 84.1991C132.663 84.1991 127.412 81.2262 126.835 80.3019C126.258 79.3777 125.592 68.7871 125.592 68.7871C125.589 68.7832 125.587 68.7803 125.584 68.7764C125.444 68.5802 123.566 65.8981 120.958 62.6861C120.957 62.6842 120.957 62.6832 120.956 62.6803C115.924 56.2904 105.364 43.8864 105.364 43.8864C105.643 43.0178 131.045 56.0942 133.251 55.3974C135.989 54.5316 138.391 37.5034 141.637 29.4777C145.486 19.9607 151.542 5.51887 161.276 0.213336C161.279 0.185032 161.28 0.17137 161.283 0.14209C161.335 0.14209 161.402 0.147944 161.461 0.159656C161.528 0.147944 161.587 0.14209 161.646 0.14209C161.646 0.170394 161.646 0.184056 161.646 0.213336C180.519 11.2499 183.898 51.6183 189.711 54.5717C192.955 56.2201 217.564 43.8864 217.564 43.8864C217.805 44.3695 205.684 57.6988 200.25 64.8509Z" fill="url(#paint34_linear_2553_915)"/>
<path opacity="0.5" d="M200.25 64.851C198.48 67.1368 197.333 68.7872 197.333 68.7872C172.509 81.7124 151.061 78.9552 125.593 68.7872C125.59 68.7833 125.588 68.7804 125.585 68.7765C125.445 68.5803 123.567 65.8983 120.959 62.6863C129.866 70.4347 147.792 76.8598 162.547 76.8598C174.921 76.8598 188.181 70.5675 200.25 64.851Z" fill="url(#paint35_linear_2553_915)"/>
<path opacity="0.5" d="M132.664 84.1992C132.656 84.2119 143.339 91.1249 160.605 91.122C178.075 91.1191 190.263 84.1992 190.263 84.1992C190.258 84.1904 176.297 89.335 159.881 89.335C144.385 89.335 132.664 84.1992 132.664 84.1992Z" fill="url(#paint36_linear_2553_915)"/>
<path d="M192.453 48.1078C192.423 48.0492 205.755 43.6514 217.564 43.8866C218.84 43.912 194.595 57.737 189.675 55.3975C186.329 53.8057 183.633 40.2461 183.633 40.2461C183.649 40.2422 189.017 52.1182 192.369 52.6179C196.051 53.1664 209.255 46.5794 209.255 46.5794C208.547 46.0513 192.453 48.1078 192.453 48.1078Z" fill="url(#paint37_linear_2553_915)"/>
<path d="M129.838 47.9925C129.866 47.9388 112.922 43.0412 105.166 43.6317C104.127 43.7108 128.528 57.8081 133.248 55.3974C136.684 53.6416 138.737 39.146 138.737 39.146C138.719 39.1411 133.937 51.9902 130.554 52.6187C126.824 53.3107 113.796 46.1263 113.796 46.1263C113.928 45.7682 129.838 47.9925 129.838 47.9925Z" fill="url(#paint38_linear_2553_915)"/>
<path d="M175.934 18.3552C175.934 18.3552 168.005 0.14209 161.284 0.14209C155.005 0.14209 146.336 18.7193 146.336 18.7193C146.336 18.7193 155.574 6.68812 161.465 6.28406C166.775 5.92099 175.934 18.3552 175.934 18.3552Z" fill="url(#paint39_linear_2553_915)"/>
<path d="M133.921 83.2856C130.635 78.024 132.05 73.3226 132.963 72.8024C134.332 72.0216 151.38 77.2188 152.921 78.6252C154.226 79.8149 161.047 88.2232 156.796 88.1841C152.053 88.1412 135.229 85.3781 133.921 83.2856Z" fill="white"/>
<path opacity="0.5" d="M120.421 53.3967C116.421 51.8712 109.368 47.364 109.368 47.364C109.087 47.691 119.504 61.7054 125.309 65.4483C127.269 66.7122 122.537 54.2038 120.421 53.3967Z" fill="url(#paint40_linear_2553_915)"/>
<path opacity="0.3" d="M175.079 78.1899C171.877 81.4926 173.411 88.3295 174.047 88.1812C179.027 87.0197 186.722 85.1634 190.263 81.803C192.72 79.4713 192.111 72.5281 191.289 72.7614C186.286 74.1766 178.221 74.9486 175.079 78.1899Z" fill="#7F6593"/>
<path opacity="0.3" d="M177.271 73.1217C178.173 74.2938 191.247 68.9083 194.932 65.7226C196.496 64.3708 199.278 56.9318 197.852 56.883C196.426 56.8351 184.583 56.2105 182.762 58.4514C179.525 62.4344 176.64 72.2999 177.271 73.1217Z" fill="#7F6593"/>
<path d="M196.458 66.0182C196.776 66.228 213.356 49.3901 213.359 48.7762C213.365 47.6108 202.257 53.1408 201.095 55.0499C197.879 60.331 196.458 66.0182 196.458 66.0182Z" fill="white"/>
<path d="M196.482 70.3645C194.774 71.0848 194.269 70.504 193.911 71.7709C193.553 73.0368 191.645 83.3941 194.932 80.3002C195.68 79.5955 197.518 69.9272 196.482 70.3645Z" fill="white"/>
<path opacity="0.5" d="M125.897 70.4346C125.604 70.58 126.174 78.633 127.559 80.2639C128.945 81.8948 133.071 84.0098 132.745 83.0396C131.45 79.1971 125.897 70.4346 125.897 70.4346Z" fill="url(#paint41_linear_2553_915)"/>
<path d="M127.088 58.5353C125.687 60.131 125.928 64.1687 129.872 66.1207C133.815 68.0727 151.547 74.1493 151.047 71.5883C150.547 69.0273 141.988 57.5036 139.922 56.799C137.856 56.0953 128.515 56.9112 127.088 58.5353Z" fill="white"/>
<path d="M132.764 75.1283C137.047 86.0829 151.531 81.0448 151.057 79.6423C150.583 78.2388 130.855 70.2483 132.764 75.1283Z" fill="white"/>
<path d="M158.671 4.12429C150.826 5.73567 149.145 14.2776 150.033 14.386C150.922 14.4933 162.722 3.29176 158.671 4.12429Z" fill="white"/>
<path d="M113.052 47.0184C107.885 46.7744 121.483 53.0784 122.49 52.9583C125.309 52.6197 117.832 47.2438 113.052 47.0184Z" fill="white"/>
<path d="M212.136 47.2437C210.077 46.4932 206.563 47.641 204.325 49.5998C203.068 50.7007 201.309 52.7894 201.856 52.5512C202.403 52.3131 213.288 47.6634 212.136 47.2437Z" fill="white"/>
<path d="M150.261 48.1486C142.71 56.265 152.754 76.3921 167.695 69.195C185.359 60.6882 169.719 27.2358 150.261 48.1486Z" fill="url(#paint42_linear_2553_915)"/>
<path d="M154.546 49.8732C149.824 54.6322 150.594 60.985 154.743 65.6912C158.948 70.4609 166.462 68.8086 170.223 65.7352C175.89 61.105 173.329 51.8555 169.937 48.7498C166.259 45.3856 158.099 46.2932 154.546 49.8732Z" fill="url(#paint43_linear_2553_915)"/>
<path opacity="0.4" d="M151.993 54.6908C151.527 55.5058 150.444 60.3594 153.569 63.9218C156.428 67.1807 158.698 68.2679 159.074 68.0191C159.452 67.7692 160.476 65.0452 160.372 64.848C160.268 64.6499 157.983 62.5056 157.211 60.296C156.399 57.9721 156.114 57.1337 155.713 56.9415C155.31 56.7463 152.314 54.1306 151.993 54.6908Z" fill="#6B27B8"/>
<path opacity="0.8" d="M160.869 65.015C160.066 65.0462 159.255 67.944 159.481 68.0425C161.935 69.1103 165.01 68.6799 168.764 66.5571C171.869 64.8012 173.383 61.2857 173.061 59.8334C172.94 59.2888 169.679 59.2166 169.447 59.7065C168.087 62.5799 163.484 64.9125 160.869 65.015Z" fill="#6B27B8"/>
<path opacity="0.75" d="M151.975 53.7966C151.79 54.3305 155.538 57.1746 155.934 56.9716C156.581 56.6378 164.869 52.117 165.059 51.6856C165.369 50.9828 166.905 47.4341 165.918 46.8993C165.585 46.7187 160.615 46.0521 156.735 48.2881C152.927 50.4822 152.212 53.1154 151.975 53.7966Z" fill="white"/>
<path d="M154.546 49.873C154.546 49.873 157.579 47.2729 161.686 46.8328C161.686 46.8328 163.299 48.2636 161.072 50.0204C158.887 51.744 154.546 49.873 154.546 49.873Z" fill="white"/>
<path d="M154.476 68.998C154.476 68.998 160.084 72.4003 167.695 69.1951C174.816 66.1978 175.68 59.7992 175.753 59.1101C175.753 59.1101 175.93 67.1123 167.018 70.5039C159.464 73.3782 154.476 68.998 154.476 68.998Z" fill="#FFC4CC"/>
<path opacity="0.5" d="M152.509 67.3054C149.915 61.9667 148.565 52.2809 158.089 47.7893C167.889 43.167 173.704 52.6186 175.651 55.0742C175.651 55.0742 172.766 34.5782 156.008 38.3631C147.678 40.2439 145.245 48.1885 146.191 54.1109C147.4 61.6768 152.509 67.3054 152.509 67.3054Z" fill="#E536DA"/>
<path d="M155.296 273.244C153.047 277.779 160.135 287.133 166.569 280.028C173.697 272.158 160.159 263.443 155.296 273.244Z" fill="url(#paint44_linear_2553_915)"/>
<path d="M157.151 273.212C155.763 275.933 156.799 278.697 159.332 280.391C162.245 282.338 165.815 280.035 167.048 277.651C168.81 274.244 165.453 270.712 163.369 270.133C161.286 269.553 158.142 271.269 157.151 273.212Z" fill="url(#paint45_linear_2553_915)"/>
<path opacity="0.4" d="M156.659 275.604C156.558 276.033 156.659 278.422 158.52 279.665C160.381 280.907 161.695 281.119 161.836 280.913C161.978 280.708 161.973 279.058 161.886 278.974C161.799 278.889 160.347 278.198 159.646 277.256C158.946 276.314 158.706 275.985 158.507 275.966C158.308 275.948 156.728 275.313 156.659 275.604Z" fill="#7C27B8"/>
<path opacity="0.8" d="M162.16 278.974C161.775 279.132 161.914 280.84 162.045 280.855C163.51 281.026 165.017 280.228 166.485 278.362C167.675 276.849 167.577 274.809 167.067 274.184C166.879 273.955 165.273 274.531 165.266 274.801C165.221 276.431 163.427 278.455 162.16 278.974Z" fill="#7C27B8"/>
<path opacity="0.75" d="M156.552 275.227C156.535 275.483 158.464 276.1 158.607 275.942C158.841 275.684 161.749 272.342 161.762 272.135C161.782 271.802 161.866 270.18 161.373 270.156C161.209 270.149 159.106 270.759 157.839 272.238C156.573 273.718 156.573 274.904 156.552 275.227Z" fill="white"/>
<path d="M157.151 273.212C157.151 273.212 158.054 271.717 159.638 270.863C159.638 270.863 160.495 271.118 159.824 272.172C159.154 273.227 157.151 273.212 157.151 273.212Z" fill="white"/>
<path d="M159.731 282.257C159.731 282.257 163.24 283.307 166.569 280.028C169.624 277.019 168.37 273.669 168.234 273.338C168.234 273.338 170.501 277.295 166.532 280.914C163.12 284.026 159.731 282.257 159.731 282.257Z" fill="#FFC4C5"/>
<path opacity="0.5" d="M158.517 281.639C156.62 279.289 155.024 275.151 158.319 271.824C161.613 268.498 165.779 270.945 167.224 271.589C167.224 271.589 162.248 264.949 156.498 268.901C153.687 270.834 153.401 274.056 154.251 276.294C155.49 279.556 158.517 281.639 158.517 281.639Z" fill="#E536C6"/>
<path d="M79.2538 114.133C77.0048 118.668 84.0928 128.021 90.5268 120.917C97.6538 113.046 84.1158 104.33 79.2538 114.133Z" fill="url(#paint46_linear_2553_915)"/>
<path d="M81.1089 114.1C79.7209 116.821 80.7568 119.586 83.2888 121.278C86.2028 123.226 89.7719 120.923 91.0049 118.538C92.7669 115.131 89.4099 111.598 87.3269 111.02C85.2429 110.442 82.0989 112.158 81.1089 114.1Z" fill="url(#paint47_linear_2553_915)"/>
<path opacity="0.4" d="M80.616 116.492C80.515 116.92 80.616 119.31 82.477 120.552C84.338 121.795 85.652 122.006 85.793 121.802C85.935 121.597 85.93 119.947 85.843 119.861C85.756 119.776 84.304 119.084 83.603 118.143C82.903 117.202 82.663 116.873 82.464 116.854C82.265 116.836 80.685 116.2 80.616 116.492Z" fill="#7C27B8"/>
<path opacity="0.8" d="M86.1168 119.861C85.7318 120.018 85.8708 121.727 86.0018 121.743C87.4668 121.914 88.9739 121.115 90.4419 119.25C91.6319 117.737 91.5338 115.697 91.0228 115.073C90.8358 114.843 89.2299 115.419 89.2219 115.69C89.1779 117.32 87.3838 119.343 86.1168 119.861Z" fill="#7C27B8"/>
<path opacity="0.75" d="M80.5089 116.115C80.4929 116.371 82.4208 116.988 82.5638 116.831C82.7978 116.573 85.7068 113.23 85.7188 113.024C85.7388 112.691 85.8229 111.069 85.3309 111.046C85.1659 111.038 83.0639 111.648 81.7969 113.128C80.5299 114.605 80.5299 115.791 80.5089 116.115Z" fill="white"/>
<path d="M81.1089 114.1C81.1089 114.1 82.0118 112.606 83.5958 111.751C83.5958 111.751 84.4529 112.005 83.7819 113.061C83.1109 114.115 81.1089 114.1 81.1089 114.1Z" fill="white"/>
<path d="M83.689 123.145C83.689 123.145 87.198 124.195 90.527 120.916C93.582 117.907 92.328 114.558 92.192 114.227C92.192 114.227 94.459 118.184 90.49 121.803C87.078 124.914 83.689 123.145 83.689 123.145Z" fill="#FFC4C5"/>
<path opacity="0.5" d="M82.4738 122.528C80.5768 120.178 78.9818 116.039 82.2758 112.713C85.5698 109.387 89.7359 111.834 91.1809 112.477C91.1809 112.477 86.2038 105.837 80.4548 109.789C77.6438 111.721 77.3578 114.943 78.2078 117.182C79.4468 120.444 82.4738 122.528 82.4738 122.528Z" fill="#E536C6"/>
<path d="M232.348 114.133C230.099 118.668 237.187 128.021 243.621 120.917C250.748 113.046 237.211 104.33 232.348 114.133Z" fill="url(#paint48_linear_2553_915)"/>
<path d="M234.203 114.1C232.815 116.821 233.851 119.586 236.384 121.278C239.297 123.226 242.866 120.923 244.1 118.538C245.862 115.131 242.505 111.598 240.421 111.02C238.337 110.442 235.194 112.158 234.203 114.1Z" fill="url(#paint49_linear_2553_915)"/>
<path opacity="0.4" d="M233.71 116.492C233.609 116.92 233.71 119.31 235.571 120.552C237.432 121.795 238.746 122.006 238.888 121.802C239.03 121.597 239.024 119.947 238.938 119.861C238.851 119.776 237.398 119.084 236.699 118.143C235.999 117.202 235.759 116.873 235.559 116.854C235.359 116.836 233.779 116.2 233.71 116.492Z" fill="#7C27B8"/>
<path opacity="0.8" d="M239.211 119.861C238.826 120.018 238.965 121.727 239.096 121.743C240.561 121.914 242.068 121.115 243.535 119.25C244.725 117.737 244.627 115.697 244.117 115.073C243.93 114.843 242.324 115.419 242.316 115.69C242.272 117.32 240.478 119.343 239.211 119.861Z" fill="#7C27B8"/>
<path opacity="0.75" d="M233.604 116.115C233.588 116.371 235.515 116.988 235.659 116.831C235.893 116.573 238.802 113.23 238.814 113.024C238.834 112.691 238.918 111.069 238.426 111.046C238.261 111.038 236.159 111.648 234.892 113.128C233.625 114.605 233.625 115.791 233.604 116.115Z" fill="white"/>
<path d="M234.203 114.1C234.203 114.1 235.106 112.606 236.69 111.751C236.69 111.751 237.547 112.005 236.876 113.061C236.205 114.115 234.203 114.1 234.203 114.1Z" fill="white"/>
<path d="M236.783 123.145C236.783 123.145 240.292 124.195 243.621 120.916C246.675 117.907 245.422 114.558 245.286 114.227C245.286 114.227 247.553 118.184 243.584 121.803C240.172 124.914 236.783 123.145 236.783 123.145Z" fill="#FFC4C5"/>
<path opacity="0.5" d="M235.568 122.528C233.67 120.178 232.076 116.039 235.37 112.713C238.664 109.387 242.83 111.834 244.275 112.477C244.275 112.477 239.298 105.837 233.549 109.789C230.738 111.721 230.452 114.943 231.303 117.182C232.541 120.444 235.568 122.528 235.568 122.528Z" fill="#E536C6"/>
</g>
<defs>
<linearGradient id="paint0_linear_2553_915" x1="62.7864" y1="237.58" x2="263.468" y2="237.58" gradientUnits="userSpaceOnUse">
<stop stop-color="#AF13F2"/>
<stop offset="1" stop-color="#540CAD"/>
</linearGradient>
<linearGradient id="paint1_linear_2553_915" x1="62.7864" y1="314.936" x2="263.468" y2="314.936" gradientUnits="userSpaceOnUse">
<stop stop-color="#C1C1C1"/>
<stop offset="0.7937" stop-color="#BCBCBC"/>
<stop offset="1" stop-color="#A0A0A0"/>
</linearGradient>
<linearGradient id="paint2_linear_2553_915" x1="51.47" y1="68.5571" x2="51.47" y2="197.189" gradientUnits="userSpaceOnUse">
<stop stop-color="#D2CDDE"/>
<stop offset="0.1468" stop-color="#CFC9DB"/>
<stop offset="0.2783" stop-color="#C4BFD3"/>
<stop offset="0.4041" stop-color="#B2ACC5"/>
<stop offset="0.5255" stop-color="#9993B2"/>
<stop offset="0.6341" stop-color="#7C759B"/>
<stop offset="0.6955" stop-color="#9D95AE"/>
<stop offset="1" stop-color="#D4E7EA"/>
</linearGradient>
<linearGradient id="paint3_linear_2553_915" x1="7.33281" y1="99.9933" x2="38.4616" y2="99.9933" gradientUnits="userSpaceOnUse">
<stop stop-color="#8680E8"/>
<stop offset="1" stop-color="#3B80F4"/>
</linearGradient>
<linearGradient id="paint4_linear_2553_915" x1="11.5235" y1="140.499" x2="33.2884" y2="140.499" gradientUnits="userSpaceOnUse">
<stop stop-color="#8680E8"/>
<stop offset="1" stop-color="#3B80F4"/>
</linearGradient>
<linearGradient id="paint5_linear_2553_915" x1="29.8494" y1="181.299" x2="73.4162" y2="181.299" gradientUnits="userSpaceOnUse">
<stop stop-color="#8680E8"/>
<stop offset="1" stop-color="#3B80F4"/>
</linearGradient>
<linearGradient id="paint6_linear_2553_915" x1="72.8339" y1="197.189" x2="72.8339" y2="119.122" gradientUnits="userSpaceOnUse">
<stop stop-color="#2743B8"/>
<stop offset="1" stop-color="#CBC2E5"/>
</linearGradient>
<linearGradient id="paint7_linear_2553_915" x1="272.638" y1="68.5571" x2="272.638" y2="197.189" gradientUnits="userSpaceOnUse">
<stop stop-color="#D2CDDE"/>
<stop offset="0.1468" stop-color="#CFC9DB"/>
<stop offset="0.2783" stop-color="#C4BFD3"/>
<stop offset="0.4041" stop-color="#B2ACC5"/>
<stop offset="0.5255" stop-color="#9993B2"/>
<stop offset="0.6341" stop-color="#7C759B"/>
<stop offset="0.6955" stop-color="#9D95AE"/>
<stop offset="1" stop-color="#D4E7EA"/>
</linearGradient>
<linearGradient id="paint8_linear_2553_915" x1="285.646" y1="99.9933" x2="316.775" y2="99.9933" gradientUnits="userSpaceOnUse">
<stop stop-color="#8680E8"/>
<stop offset="1" stop-color="#3B80F4"/>
</linearGradient>
<linearGradient id="paint9_linear_2553_915" x1="290.819" y1="140.499" x2="312.584" y2="140.499" gradientUnits="userSpaceOnUse">
<stop stop-color="#8680E8"/>
<stop offset="1" stop-color="#3B80F4"/>
</linearGradient>
<linearGradient id="paint10_linear_2553_915" x1="252.967" y1="181.816" x2="294.256" y2="181.816" gradientUnits="userSpaceOnUse">
<stop stop-color="#8680E8"/>
<stop offset="1" stop-color="#3B80F4"/>
</linearGradient>
<linearGradient id="paint11_linear_2553_915" x1="251.274" y1="197.189" x2="251.274" y2="119.122" gradientUnits="userSpaceOnUse">
<stop stop-color="#2743B8"/>
<stop offset="1" stop-color="#CBC2E5"/>
</linearGradient>
<linearGradient id="paint12_linear_2553_915" x1="162.054" y1="306.074" x2="162.054" y2="119.669" gradientUnits="userSpaceOnUse">
<stop stop-color="#728EE3"/>
<stop offset="0.2989" stop-color="#836888"/>
<stop offset="1" stop-color="#6D636A"/>
</linearGradient>
<linearGradient id="paint13_linear_2553_915" x1="234.228" y1="180.392" x2="262.274" y2="180.392" gradientUnits="userSpaceOnUse">
<stop stop-color="#8680E8"/>
<stop offset="1" stop-color="#3B80F4"/>
</linearGradient>
<linearGradient id="paint14_linear_2553_915" x1="61.834" y1="181.772" x2="91.6533" y2="181.772" gradientUnits="userSpaceOnUse">
<stop stop-color="#8680E8"/>
<stop offset="1" stop-color="#3B80F4"/>
</linearGradient>
<linearGradient id="paint15_linear_2553_915" x1="162.311" y1="267.683" x2="162.311" y2="86.048" gradientUnits="userSpaceOnUse">
<stop stop-color="#728EE3"/>
<stop offset="0.2989" stop-color="#624A66"/>
<stop offset="1" stop-color="#6D636A"/>
</linearGradient>
<linearGradient id="paint16_linear_2553_915" x1="162.31" y1="96.2078" x2="162.31" y2="260.747" gradientUnits="userSpaceOnUse">
<stop stop-color="#D23FDA"/>
<stop offset="0.8166" stop-color="#781297"/>
<stop offset="1" stop-color="#3E4CE6"/>
</linearGradient>
<linearGradient id="paint17_linear_2553_915" x1="201.062" y1="266.676" x2="201.062" y2="128.865" gradientUnits="userSpaceOnUse">
<stop stop-color="#D2CDDE"/>
<stop offset="0.5428" stop-color="#7C759B"/>
<stop offset="1" stop-color="#D4E7EA"/>
</linearGradient>
<linearGradient id="paint18_linear_2553_915" x1="162.313" y1="287.221" x2="162.313" y2="68.4121" gradientUnits="userSpaceOnUse">
<stop stop-color="#D2CDDE"/>
<stop offset="0.1468" stop-color="#CFC9DB"/>
<stop offset="0.2783" stop-color="#C4BFD3"/>
<stop offset="0.4041" stop-color="#B2ACC5"/>
<stop offset="0.5255" stop-color="#9993B2"/>
<stop offset="0.6341" stop-color="#7C759B"/>
<stop offset="0.6955" stop-color="#9D95AE"/>
<stop offset="1" stop-color="#D4E7EA"/>
</linearGradient>
<linearGradient id="paint19_linear_2553_915" x1="162.31" y1="260.747" x2="162.31" y2="104.885" gradientUnits="userSpaceOnUse">
<stop stop-color="#AE64C9"/>
<stop offset="1" stop-color="#8E98E5"/>
</linearGradient>
<linearGradient id="paint20_linear_2553_915" x1="162.31" y1="88.5845" x2="162.31" y2="149.175" gradientUnits="userSpaceOnUse">
<stop stop-color="#2743B8"/>
<stop offset="1" stop-color="#CBC2E5"/>
</linearGradient>
<linearGradient id="paint21_linear_2553_915" x1="236.076" y1="257.78" x2="236.076" y2="244.748" gradientUnits="userSpaceOnUse">
<stop stop-color="#5D4877"/>
<stop offset="1" stop-color="#40314B"/>
</linearGradient>
<linearGradient id="paint22_linear_2553_915" x1="235.539" y1="223.373" x2="235.539" y2="249.061" gradientUnits="userSpaceOnUse">
<stop stop-color="#D2CDDE"/>
<stop offset="1" stop-color="#7C759B"/>
</linearGradient>
<linearGradient id="paint23_linear_2553_915" x1="87.9081" y1="257.78" x2="87.9081" y2="244.748" gradientUnits="userSpaceOnUse">
<stop stop-color="#5D4877"/>
<stop offset="1" stop-color="#40314B"/>
</linearGradient>
<linearGradient id="paint24_linear_2553_915" x1="88.4448" y1="223.373" x2="88.4449" y2="249.061" gradientUnits="userSpaceOnUse">
<stop stop-color="#D2CDDE"/>
<stop offset="1" stop-color="#7C759B"/>
</linearGradient>
<linearGradient id="paint25_linear_2553_915" x1="260.474" y1="160.127" x2="272.148" y2="131.628" gradientUnits="userSpaceOnUse">
<stop stop-color="#728EE3"/>
<stop offset="1" stop-color="#836888"/>
</linearGradient>
<linearGradient id="paint26_linear_2553_915" x1="262.621" y1="121.308" x2="262.622" y2="147.938" gradientUnits="userSpaceOnUse">
<stop stop-color="#D2CDDE"/>
<stop offset="1" stop-color="#7C759B"/>
</linearGradient>
<linearGradient id="paint27_linear_2553_915" x1="63.6022" y1="158.704" x2="52.5154" y2="131.638" gradientUnits="userSpaceOnUse">
<stop stop-color="#728EE3"/>
<stop offset="1" stop-color="#836888"/>
</linearGradient>
<linearGradient id="paint28_linear_2553_915" x1="62.0663" y1="121.308" x2="62.0658" y2="147.938" gradientUnits="userSpaceOnUse">
<stop stop-color="#D2CDDE"/>
<stop offset="1" stop-color="#7C759B"/>
</linearGradient>
<linearGradient id="paint29_linear_2553_915" x1="110.225" y1="173.282" x2="213.883" y2="173.282" gradientUnits="userSpaceOnUse">
<stop stop-color="#6A6EA8"/>
<stop offset="1" stop-color="#624A66"/>
</linearGradient>
<linearGradient id="paint30_linear_2553_915" x1="162.053" y1="126.672" x2="162.053" y2="218.062" gradientUnits="userSpaceOnUse">
<stop offset="0.700083" stop-color="#D4E7EA"/>
<stop offset="1" stop-color="#D4E7EA"/>
</linearGradient>
<linearGradient id="paint31_linear_2553_915" x1="134.334" y1="34.2429" x2="134.334" y2="60.2436" gradientUnits="userSpaceOnUse">
<stop stop-color="#728EE3"/>
<stop offset="1" stop-color="#836888"/>
</linearGradient>
<linearGradient id="paint32_linear_2553_915" x1="188.721" y1="34.2422" x2="188.721" y2="60.2437" gradientUnits="userSpaceOnUse">
<stop stop-color="#728EE3"/>
<stop offset="1" stop-color="#836888"/>
</linearGradient>
<linearGradient id="paint33_linear_2553_915" x1="163.094" y1="47.5769" x2="163.094" y2="60.2435" gradientUnits="userSpaceOnUse">
<stop stop-color="#2743B8"/>
<stop offset="1" stop-color="#CBC2E5"/>
</linearGradient>
<linearGradient id="paint34_linear_2553_915" x1="105.365" y1="45.6334" x2="217.567" y2="45.6334" gradientUnits="userSpaceOnUse">
<stop stop-color="#D2CDDE"/>
<stop offset="0.1468" stop-color="#CFC9DB"/>
<stop offset="0.2783" stop-color="#C4BFD3"/>
<stop offset="0.4041" stop-color="#B2ACC5"/>
<stop offset="0.5255" stop-color="#9993B2"/>
<stop offset="0.6341" stop-color="#7C759B"/>
<stop offset="0.6955" stop-color="#9D95AE"/>
<stop offset="1" stop-color="#D4E7EA"/>
</linearGradient>
<linearGradient id="paint35_linear_2553_915" x1="160.604" y1="77.4776" x2="160.604" y2="62.6863" gradientUnits="userSpaceOnUse">
<stop stop-color="#2743B8"/>
<stop offset="1" stop-color="#CBC2E5"/>
</linearGradient>
<linearGradient id="paint36_linear_2553_915" x1="161.463" y1="91.1218" x2="161.463" y2="84.1988" gradientUnits="userSpaceOnUse">
<stop stop-color="#2743B8"/>
<stop offset="1" stop-color="#CBC2E5"/>
</linearGradient>
<linearGradient id="paint37_linear_2553_915" x1="183.633" y1="47.9557" x2="217.612" y2="47.9557" gradientUnits="userSpaceOnUse">
<stop stop-color="#DCD5E6"/>
<stop offset="0.1477" stop-color="#DCD9E8"/>
<stop offset="1" stop-color="#DBEAF2"/>
</linearGradient>
<linearGradient id="paint38_linear_2553_915" x1="138.737" y1="47.4108" x2="105.134" y2="47.4108" gradientUnits="userSpaceOnUse">
<stop stop-color="#DCD5E6"/>
<stop offset="0.1477" stop-color="#DCD9E8"/>
<stop offset="1" stop-color="#DBEAF2"/>
</linearGradient>
<linearGradient id="paint39_linear_2553_915" x1="146.336" y1="9.43146" x2="175.934" y2="9.43146" gradientUnits="userSpaceOnUse">
<stop stop-color="#DCD5E6"/>
<stop offset="0.1477" stop-color="#DCD9E8"/>
<stop offset="1" stop-color="#DBEAF2"/>
</linearGradient>
<linearGradient id="paint40_linear_2553_915" x1="109.363" y1="56.4517" x2="125.775" y2="56.4517" gradientUnits="userSpaceOnUse">
<stop stop-color="#8680E8"/>
<stop offset="1" stop-color="#3B80F4"/>
</linearGradient>
<linearGradient id="paint41_linear_2553_915" x1="125.822" y1="76.86" x2="132.764" y2="76.86" gradientUnits="userSpaceOnUse">
<stop stop-color="#8680E8"/>
<stop offset="1" stop-color="#3B80F4"/>
</linearGradient>
<linearGradient id="paint42_linear_2553_915" x1="157.552" y1="45.8302" x2="167.067" y2="70.7199" gradientUnits="userSpaceOnUse">
<stop stop-color="#642683"/>
<stop offset="1" stop-color="#A51EB4"/>
</linearGradient>
<linearGradient id="paint43_linear_2553_915" x1="167.001" y1="67.6197" x2="158.444" y2="47.4949" gradientUnits="userSpaceOnUse">
<stop stop-color="#A817EB"/>
<stop offset="1" stop-color="#FF19F9"/>
</linearGradient>
<linearGradient id="paint44_linear_2553_915" x1="158.107" y1="271.732" x2="166.439" y2="280.935" gradientUnits="userSpaceOnUse">
<stop stop-color="#6F2683"/>
<stop offset="1" stop-color="#B41EB2"/>
</linearGradient>
<linearGradient id="paint45_linear_2553_915" x1="165.791" y1="279.302" x2="158.374" y2="271.702" gradientUnits="userSpaceOnUse">
<stop stop-color="#C117EB"/>
<stop offset="1" stop-color="#FF19DE"/>
</linearGradient>
<linearGradient id="paint46_linear_2553_915" x1="82.064" y1="112.621" x2="90.3958" y2="121.823" gradientUnits="userSpaceOnUse">
<stop stop-color="#6F2683"/>
<stop offset="1" stop-color="#B41EB2"/>
</linearGradient>
<linearGradient id="paint47_linear_2553_915" x1="89.7484" y1="120.19" x2="82.3309" y2="112.59" gradientUnits="userSpaceOnUse">
<stop stop-color="#C117EB"/>
<stop offset="1" stop-color="#FF19DE"/>
</linearGradient>
<linearGradient id="paint48_linear_2553_915" x1="235.158" y1="112.621" x2="243.49" y2="121.823" gradientUnits="userSpaceOnUse">
<stop stop-color="#6F2683"/>
<stop offset="1" stop-color="#B41EB2"/>
</linearGradient>
<linearGradient id="paint49_linear_2553_915" x1="242.842" y1="120.19" x2="235.425" y2="112.59" gradientUnits="userSpaceOnUse">
<stop stop-color="#C117EB"/>
<stop offset="1" stop-color="#FF19DE"/>
</linearGradient>
<clipPath id="clip0_2553_915">
<rect width="324" height="359" fill="white"/>
</clipPath>
</defs>
</svg>
