<svg width="201" height="244" viewBox="0 0 201 244" fill="none" xmlns="http://www.w3.org/2000/svg">
<g clip-path="url(#clip0_2402_524)">
<path d="M200.244 83.4818C192.18 113.797 186.342 147.658 172.407 175.317C164.034 191.936 146.062 205.456 132.052 217.612C121.767 226.535 111.247 235.216 100.444 243.507C76.0227 224.91 46.8567 204.333 29.8197 178.449C29.8177 178.449 29.8167 178.449 29.8147 178.449C29.1097 177.355 28.4917 176.31 28.0037 175.318C14.2097 147.268 8.22571 113.778 0.167713 83.4828C-0.545287 73.7048 1.11871 63.6668 3.20071 54.1328C68.0467 51.9758 132.912 51.9788 197.757 54.1518C199.565 63.7298 200.971 73.7248 200.244 83.4818Z" fill="url(#paint0_linear_2402_524)"/>
<path opacity="0.5" d="M200.244 83.4819C192.18 113.797 186.118 146.988 172.407 175.317C172.049 154.338 179.28 131.476 183.768 111.171C187.992 92.0609 192.64 73.0409 197.757 54.1509C199.565 63.7299 200.971 73.7249 200.244 83.4819Z" fill="url(#paint1_linear_2402_524)"/>
<path opacity="0.5" d="M100.446 243.505C99.4394 243.061 98.5964 217.897 104.698 210.524C112.606 200.967 127.989 193.653 139.691 186.822C144.867 183.801 170.782 170.184 172.037 173.997C173.156 177.397 162.448 189.246 158.137 193.714C150.434 201.698 141.065 209.611 132.78 216.982C121.252 227.238 100.446 243.505 100.446 243.505Z" fill="#6E5066"/>
<path opacity="0.5" d="M29.8197 178.448C29.8177 178.448 29.8167 178.448 29.8147 178.448C29.1097 177.354 28.4917 176.309 28.0037 175.317C14.2097 147.267 8.22571 113.777 0.167713 83.4821C-0.545287 73.7041 1.11871 63.6661 3.20071 54.1321C6.64371 54.0131 8.36471 53.9561 11.8077 53.8481C16.6967 95.1171 19.3247 138.138 29.8197 178.448Z" fill="url(#paint2_linear_2402_524)"/>
<path d="M178.3 60.1038C171.674 54.2238 164.862 48.8548 157.595 43.7888C157.589 43.7848 157.586 43.7828 157.58 43.7788C141.313 33.3408 124.085 24.9138 105.512 19.4508C105.509 19.4508 105.509 19.4508 105.507 19.4508C103.886 18.9748 102.435 18.5778 101.17 18.2508C100.897 18.1778 100.759 18.1418 100.486 18.0698C100.214 18.1418 100.078 18.1778 99.8069 18.2508C71.0859 25.7248 44.7799 40.4378 22.6559 60.0908C22.3029 60.4168 22.1269 60.5788 21.7749 60.9048C21.8369 61.3898 21.8679 61.6328 21.9299 62.1178C22.0809 63.3018 22.2469 64.5708 22.4249 65.9148C23.9229 77.1828 25.6039 88.5258 27.5339 99.6968C31.0539 120.072 34.0129 144.254 44.6189 162.682C44.6379 162.714 44.6479 162.73 44.6679 162.762C44.6889 162.792 44.6999 162.807 44.7209 162.837C52.7319 173.032 65.1209 180.545 75.5339 187.804C79.3249 190.447 83.1249 192.977 86.6449 195.301C90.8399 198.07 95.0739 200.801 99.3369 203.471C99.7819 203.752 100.004 203.892 100.45 204.171C100.897 203.891 101.12 203.751 101.567 203.47C101.739 203.365 101.911 203.253 102.088 203.14C109.857 198.162 117.777 193.061 125.374 187.8C135.807 180.574 148.183 173.055 156.194 162.832C156.215 162.802 156.226 162.787 156.247 162.757C156.267 162.725 156.277 162.709 156.296 162.677C166.902 144.233 169.865 120.093 173.4 99.7018C175.116 89.8018 176.65 79.7748 178.009 69.7788C178.392 66.9598 178.736 64.3898 179.022 62.1318C179.086 61.6458 179.118 61.4038 179.182 60.9188C178.829 60.5918 178.653 60.4298 178.3 60.1038ZM163.823 98.4818C160.661 117.616 157.988 139.695 148.737 157.249C140.836 166.041 130.189 172.793 120.608 179.383C114.02 183.915 107.252 188.353 100.45 192.654C93.6499 188.355 86.8869 183.917 80.2999 179.386C70.7219 172.797 60.1369 165.994 52.1779 157.253C42.9139 139.661 40.2769 117.667 37.1149 98.4768C35.2939 87.4248 33.7069 76.2258 32.3549 65.0508C52.3119 48.2308 75.2679 35.4668 100.483 28.4788C125.695 35.4678 148.646 48.2398 168.598 65.0608C167.224 76.2338 165.649 87.4318 163.823 98.4818Z" fill="url(#paint3_linear_2402_524)"/>
<path d="M168.597 65.062C167.223 76.234 165.649 87.432 163.822 98.482C160.66 117.616 157.987 139.695 148.736 157.249C141.419 168.079 131.025 176.467 120.555 183.79C114.055 188.337 107.234 192.764 100.448 197.065C93.6635 192.766 86.8465 188.339 80.3485 183.793C69.8725 176.465 59.5025 168.082 52.1755 157.253C43.8325 141.384 41.2615 121.858 38.1365 104.533C38.1315 104.528 38.1315 104.528 38.1315 104.528C37.7965 102.58 37.4505 100.559 37.1125 98.477C35.3155 87.391 33.7045 76.226 32.3525 65.051C36.2435 61.587 40.4085 58.23 44.6425 55.268C59.3545 44.978 75.5715 36.494 92.7595 30.832C95.6935 29.866 98.3025 29.081 100.481 28.478C108.902 30.842 117.096 33.903 125.026 37.369C140.829 44.276 155.321 53.841 168.597 65.062Z" fill="url(#paint4_linear_2402_524)"/>
<path opacity="0.3" d="M176.528 61.9412C173.346 63.1822 171.76 63.8072 168.597 65.0622C148.646 48.2412 125.694 35.4692 100.482 28.4802C100.483 25.3562 100.483 23.7942 100.484 20.6692C102.49 20.1792 103.494 19.9352 105.506 19.4512C105.508 19.4512 105.509 19.4512 105.511 19.4512C124.084 24.9142 141.313 33.3412 157.579 43.7792C157.585 43.7832 157.588 43.7852 157.594 43.7892C163.946 49.7982 170.259 55.8462 176.528 61.9412Z" fill="#7F6593"/>
<path d="M178.008 69.7789C176.653 79.7809 175.115 89.8029 173.399 99.7019C169.864 120.093 166.901 144.233 156.295 162.677C156.275 162.709 156.265 162.725 156.246 162.757C156.225 162.787 156.214 162.802 156.193 162.832C148.182 173.055 135.806 180.574 125.373 187.8C117.777 193.061 109.956 198.185 102.087 203.14C101.433 202.402 101.105 202.034 100.449 201.296C100.449 199.605 100.449 198.759 100.449 197.067C107.235 192.767 114.056 188.339 120.556 183.792C131.026 176.468 141.42 168.079 148.737 157.249C157.988 139.695 160.662 117.616 163.823 98.4819C165.649 87.4319 167.224 76.2339 168.598 65.0619C171.761 63.8059 173.347 63.1819 176.529 61.9409C177.123 65.0779 177.418 66.6449 178.008 69.7789Z" fill="url(#paint5_linear_2402_524)"/>
<path d="M197.702 54.09C196.121 52.398 194.399 50.74 192.705 49.128C192.475 48.909 192.235 48.688 191.986 48.457C184.25 41.303 175.662 35.017 166.947 29.108C166.947 29.108 164.049 28.443 159.714 25.678C155.513 22.999 154.106 21.454 154.022 21.362C154.02 21.36 154.019 21.359 154.017 21.357C138.323 13.044 121.966 5.865 104.942 1.17C104.81 1.134 104.675 1.09501 104.538 1.05901C102.602 0.541006 101.284 0.191002 100.756 0.0650024C100.703 0.0550024 100.65 0.0399988 100.596 0.0299988C100.559 0.0199988 100.527 0.01 100.49 0C100.49 0 100.474 0.00499451 100.448 0.00999451C100.421 0.0149945 100.373 0.0249933 100.32 0.0399933C65.3747 8.64299 30.3457 26.704 5.00171 52.279C4.39771 52.888 3.79571 53.506 3.19971 54.132C3.21971 54.289 3.23071 54.367 3.25171 54.523C3.37271 55.502 3.73971 58.286 4.32571 62.391C4.33071 62.426 4.33371 62.444 4.33871 62.479C6.92271 80.501 9.92871 98.488 13.6757 116.305C17.5587 134.766 21.3027 155.67 31.2147 171.585C39.5347 184.943 56.8587 194.938 69.6867 203.884C79.7617 210.91 90.0087 217.709 100.444 224.188C110.882 217.706 121.131 210.905 131.208 203.877C144.014 194.945 161.387 184.894 169.686 171.576C179.611 155.649 183.37 134.785 187.25 116.307C190.99 98.49 194.019 80.513 196.612 62.495C196.617 62.46 196.62 62.442 196.625 62.407C197.213 58.303 197.581 55.52 197.704 54.541C197.725 54.384 197.735 54.306 197.756 54.15C197.756 54.15 197.739 54.13 197.702 54.09ZM171.01 99.396C167.581 119.433 164.769 143.275 154.358 161.412C146.333 171.266 134.425 178.617 124.182 185.698C116.439 191.051 108.468 196.259 100.448 201.297C92.4207 196.279 84.4617 191.054 76.7227 185.702C66.5567 178.672 54.5227 171.248 46.5537 161.417C36.1427 143.297 33.3407 119.415 29.9257 99.391C27.8127 87.004 25.9917 74.456 24.4247 61.929C46.2297 42.589 72.1947 28.046 100.485 20.67C128.776 28.1 154.708 42.578 176.529 61.941C174.955 74.466 173.129 87.012 171.01 99.396Z" fill="url(#paint6_linear_2402_524)"/>
<path d="M195.957 54.2361C193.845 47.0441 170.507 32.9341 157.68 25.1231C140.591 14.7151 109.086 0.00206599 101.134 1.12206C100.967 1.14906 100.353 1.14906 100.186 1.12206C92.2355 0.00106607 60.2935 13.0441 43.2045 23.4531C30.3775 31.2641 7.47546 47.0441 5.35846 54.2361C3.60746 60.2051 7.35747 79.3631 9.18347 79.3731C10.8855 79.3781 19.3225 76.5021 23.9075 74.1581C24.9795 73.6141 23.0405 63.1841 24.4245 61.9291C50.3055 38.4241 76.7825 27.6411 97.5545 20.6691C100.193 19.7831 101.067 20.0691 101.954 20.4071C118.27 26.6261 151.016 38.4241 176.897 61.9291C178.282 63.1841 176.342 73.6141 177.414 74.1581C181.993 76.5021 190.435 79.3781 192.138 79.3731C193.963 79.3631 197.713 60.2051 195.957 54.2361Z" fill="white"/>
<path opacity="0.7" d="M32.3535 65.062C33.7275 76.234 35.3025 87.432 37.1285 98.482C40.2905 117.616 42.9635 139.695 52.2155 157.249C59.5315 168.08 69.9255 176.469 80.3965 183.792C86.8965 188.338 93.7175 192.766 100.504 197.067C100.361 168.992 100.237 140.909 100.487 112.838C100.737 84.745 101.294 56.574 100.47 28.48C75.2565 35.469 52.3055 48.241 32.3535 65.062Z" fill="white"/>
<path opacity="0.5" d="M168.597 65.0622C167.223 76.2342 165.649 87.4322 163.822 98.4822C160.66 117.616 157.987 139.695 148.736 157.249C141.419 168.079 131.025 176.467 120.555 183.79C114.055 188.337 107.234 192.764 100.448 197.065C93.6635 192.766 86.8465 188.339 80.3485 183.793C69.8725 176.465 59.5025 168.082 52.1755 157.253C43.8325 141.384 41.2615 121.858 38.1365 104.533C38.1315 104.528 38.1315 104.528 38.1315 104.528C37.7965 102.58 37.4505 100.559 37.1125 98.4772C35.3155 87.3912 33.7045 76.2262 32.3525 65.0512C36.2435 61.5872 40.3985 58.2892 44.6425 55.2682C44.7255 55.2262 44.7665 55.2062 44.8495 55.1642C40.7625 58.3152 37.0355 62.1992 35.6345 66.3592C32.4945 75.6882 40.8215 112.139 43.2885 123.219C46.6005 138.088 86.4075 116.802 98.6895 116.147C110.704 115.506 147.261 143.752 153.368 132.539C168.88 104.062 157.76 57.7182 124.97 37.3682C124.97 37.3682 124.99 37.3682 125.026 37.3692C140.914 44.4932 155.321 53.8412 168.597 65.0622Z" fill="url(#paint7_linear_2402_524)"/>
<path opacity="0.5" d="M24.8778 65.2149C27.8798 67.5849 33.0678 70.7449 33.0678 70.7449C37.8838 60.9909 61.3488 47.6009 77.4528 44.0209C95.9338 39.9129 117.524 43.4819 134.134 54.1509C144.589 60.8659 159.073 72.1009 166.242 82.7489C169.545 80.3179 171.207 79.1079 174.548 76.6969C175.323 70.7919 175.719 67.8409 176.528 61.9399C138.505 28.5219 100.484 20.6689 100.484 20.6689C100.484 20.6689 56.4098 31.9469 24.4238 61.9279C24.6078 63.2429 24.6978 63.8999 24.8778 65.2149Z" fill="url(#paint8_linear_2402_524)"/>
<path opacity="0.3" d="M191.025 80.9248C187.953 79.3548 177.046 77.0028 175.336 81.3868C174.296 84.0528 171.645 99.4588 169.868 109.272C166.41 128.367 163.494 131.632 161.153 141.967C160.274 145.851 176.781 145.619 179.18 143.956C181.028 142.676 181.842 139.022 184.799 124.793C187.288 112.815 190.254 100.754 191.971 88.6098C192.464 85.1358 193.004 81.9368 191.025 80.9248Z" fill="#7F6593"/>
<path opacity="0.3" d="M24.4248 77.0522C23.0778 76.0172 10.5748 79.0672 9.17084 81.4852C7.66384 84.0802 11.2668 102.962 13.2528 112.477C17.1838 131.312 20.2198 142.303 21.7738 144.859C25.1998 150.494 42.0608 151.053 40.5388 145.932C37.8248 136.803 35.1058 133.11 32.3548 116.148C30.5288 104.895 26.8378 78.9062 24.4248 77.0522Z" fill="#7F6593"/>
<path opacity="0.5" d="M102.825 239.505C101.629 239.727 101.474 225.799 102.05 225.027C107.832 217.271 131.718 207.154 124.976 222.059C122.982 226.468 107.079 238.716 102.825 239.505Z" fill="#6E5066"/>
<path d="M156.993 184.548C158.981 182.42 155.114 165.285 153.314 166.403C150.56 168.115 101.445 201.233 100.48 202.507C98.3299 205.346 100.224 221.902 101.148 222.056C103.288 222.414 150.568 191.428 156.993 184.548Z" fill="white"/>
<path d="M76.0735 28.4799C79.0275 27.1839 76.7855 7.6989 73.5745 8.8309C47.3415 18.0709 20.5005 38.7709 20.5665 39.6579C20.6565 40.8829 36.5465 48.8469 43.1655 45.8179C48.0225 43.5949 63.2335 34.1139 76.0735 28.4799Z" fill="white"/>
<path opacity="0.8" d="M197.757 54.151C197.736 54.307 197.726 54.385 197.705 54.542C197.269 57.688 197.053 59.261 196.626 62.408C196.621 62.443 196.618 62.461 196.613 62.496C192.431 42.256 177.211 39.111 165.422 30.445C161.99 27.923 158.296 25.45 154.605 23.183C139.115 13.671 120.236 4.071 101.983 2.043C88.3747 0.530999 60.6037 15.053 44.5237 25.099C31.5097 33.23 8.62471 46.227 4.33871 62.479C4.33271 62.444 4.33071 62.426 4.32571 62.391C3.90071 59.244 3.68671 57.67 3.25171 54.523C3.23071 54.366 3.22071 54.288 3.19971 54.132C3.79571 53.507 4.39771 52.878 5.00171 52.279C30.5297 26.969 64.8767 8.44199 100.32 0.0399933C100.373 0.0249933 100.421 0.0149945 100.448 0.00999451C100.475 0.00499451 100.49 0 100.49 0C100.527 0.01 100.559 0.0199988 100.596 0.0299988C100.65 0.0399988 100.703 0.0550024 100.756 0.0650024C102.029 0.387002 103.295 0.729006 104.538 1.05901C104.675 1.09501 104.81 1.134 104.942 1.17C121.96 5.855 138.323 13.044 154.017 21.357C154.019 21.359 154.02 21.36 154.022 21.362C154.106 21.454 155.512 22.999 159.714 25.678C164.049 28.442 166.947 29.108 166.947 29.108C175.708 35.039 184.192 41.281 191.986 48.457C192.235 48.687 192.475 48.91 192.705 49.128C195.68 51.938 197.39 53.745 197.702 54.09C197.739 54.131 197.757 54.151 197.757 54.151Z" fill="#7E527C"/>
<path d="M64.6016 177.033C64.6016 177.033 95.0646 203.142 100.19 203.142C105.031 203.142 132.78 179.846 132.78 179.846C132.763 179.823 104.057 198.219 100.585 198.681C93.3146 199.649 64.6016 177.033 64.6016 177.033Z" fill="white"/>
<path d="M170.326 103.477C170.67 103.554 154.358 161.412 154.358 161.412C154.121 161.303 162.399 147.549 166.851 130.682C168.907 122.892 170.326 103.477 170.326 103.477Z" fill="white"/>
<path d="M30.4765 102.681C30.1325 102.758 45.2905 159.119 45.2905 159.119C45.5275 159.01 36.5135 142.39 33.4135 130.682C31.3515 122.893 30.4765 102.681 30.4765 102.681Z" fill="white"/>
<path opacity="0.2" d="M83.3618 203.077C92.8458 203.538 86.8088 197.057 83.0448 194.605C79.4968 192.294 68.9788 188.762 68.3028 189.995C67.2258 191.956 77.0488 202.77 83.3618 203.077Z" fill="#7F6593"/>
<path opacity="0.2" d="M85.5126 206.88C79.5776 204.48 77.5016 203.649 80.3336 208.35C83.1656 213.052 89.3366 208.426 85.5126 206.88Z" fill="#7F6593"/>
<path d="M52.8618 191.676C51.4698 194.125 58.9058 206.419 65.0488 199.923C66.1158 198.796 53.9078 189.836 52.8618 191.676Z" fill="#63495F"/>
<path opacity="0.5" d="M53.0528 192.535C52.6918 194.387 55.3958 199.352 57.1388 199.631C58.8818 199.91 62.4508 196.818 58.9048 194.566C54.9488 192.056 53.3238 191.141 53.0528 192.535Z" fill="#5B3952"/>
<path d="M57.9976 200.922C62.8866 203.712 66.4736 202.353 65.9116 200.434C65.3496 198.516 63.8506 197.968 63.8506 197.968C63.8506 197.968 65.3176 199.11 64.5296 200.255C63.7396 201.399 57.9976 200.922 57.9976 200.922Z" fill="white"/>
<path d="M166.947 29.1078C166.42 29.6238 165.911 30.0908 165.423 30.4448C159.956 34.4168 153.413 29.9448 153.37 23.5888C153.36 22.1808 154.023 21.3628 154.023 21.3628C154.107 21.4548 155.513 22.9998 159.715 25.6788C164.049 28.4418 166.947 29.1078 166.947 29.1078Z" fill="#63495F"/>
<path opacity="0.5" d="M153.759 21.8109C153.19 23.5439 153.774 28.7749 155.867 29.5439C157.96 30.3129 159.218 26.6609 158.649 25.7789C158.08 24.8959 154.057 20.9059 153.759 21.8109Z" fill="#5B3952"/>
<path d="M155.732 29.9592C155.732 29.9592 159.821 33.8962 166.177 29.8252C166.177 29.8252 165.455 33.6922 160.954 33.7092C158.524 33.7192 155.732 29.9592 155.732 29.9592Z" fill="white"/>
<path opacity="0.5" d="M100.904 2.67396C99.9997 8.12796 99.6637 17.642 101.685 19.451C103.705 21.26 123.558 28.48 131.464 31.947C132.204 32.272 136.413 15.311 130.507 10.89C126.73 8.06197 101.462 -0.694035 100.904 2.67396Z" fill="#6E5066"/>
<path d="M4.98877 101.221C4.98877 101.221 9.75277 98.7817 10.3298 98.6717C13.1978 98.1297 29.3868 98.9657 30.2658 99.3907C32.8518 100.639 38.9788 107.354 38.9788 107.354C38.9788 107.354 97.0888 101.167 100.822 101.186C103.692 101.201 156.498 108.045 162.739 107.324C162.739 107.324 164.946 107.561 170.779 102.681C171.833 101.799 190.176 103.79 190.176 103.79L194.429 107.985L193.001 113.775C193.001 113.775 191.449 106.654 189.815 105.267C187.892 103.634 175.265 101.904 171.051 103.79C169.551 104.461 162.216 110.567 162.216 110.567C162.216 110.567 118.176 103.109 100.787 102.68C80.3868 102.177 46.9468 109.527 39.6108 110.982C39.6108 110.982 33.0728 102.636 30.1588 100.916C26.0308 98.4797 10.6728 99.3457 10.6728 99.3457L5.34377 102.68L4.98877 101.221Z" fill="#3E3E3E"/>
<path d="M173.654 173.21C173.654 173.21 175.563 172.098 171.171 170.598C166.779 169.098 151.565 166.193 149.097 165.654C146.63 165.115 134.939 171.614 134.939 171.614C134.939 171.614 102.717 168.108 100.56 168.258C97.3399 168.482 70.0339 173.848 67.1029 173.328L52.6679 167.02L32.2379 172.928L29.6079 176.946L30.1599 178.449C30.1599 178.449 31.6499 174.048 32.6949 173.313C35.4029 171.409 53.3979 168.663 53.3979 168.663L69.9219 175.707C69.9219 175.707 92.7589 169.597 100.911 169.597C103.621 169.597 122.173 171.519 134.388 173.197C134.388 173.197 146.721 166.732 150.133 167.451C153.545 168.17 170.402 172.435 170.402 172.435L172.749 175.318L173.654 173.21Z" fill="#3E3E3E"/>
<path d="M19.6587 39.4148C19.6587 39.4148 50.9587 41.2958 52.5757 41.6548C54.1917 42.0138 57.6937 46.9078 57.6937 46.9078C57.6937 46.9078 93.3557 43.7458 100.823 44.0928C108.29 44.4388 145.822 48.0308 145.822 48.0308C145.822 48.0308 151.911 44.5858 153.894 44.5128C155.878 44.4388 185.172 42.2558 185.172 42.2558L183.713 41.0268C183.713 41.0268 158.213 42.6428 151.569 43.1818C151.569 43.1818 146.361 46.7648 144.027 46.4998C141.692 46.2348 103.156 40.8478 100.789 40.8478C95.8837 40.8478 63.0017 45.3328 60.2537 45.4268C60.2537 45.4268 55.7677 40.1608 52.8457 40.2138C49.9237 40.2658 20.9077 38.4238 20.9077 38.4238L19.6587 39.4148Z" fill="#3E3E3E"/>
<path opacity="0.5" d="M10.6748 99.3469C17.8728 101.007 29.1808 100.468 29.1808 100.468C29.1808 100.468 24.6008 99.2199 18.6778 99.2149C12.7538 99.2109 10.6748 99.3469 10.6748 99.3469Z" fill="#E2E2E2"/>
<path opacity="0.5" d="M69.9209 175.706C90.8699 172.029 97.0259 170.425 100.907 170.598C104.788 170.772 134.387 173.196 134.387 173.196C134.387 173.196 110.272 169.482 100.91 169.596C91.5489 169.711 69.9209 175.706 69.9209 175.706Z" fill="#E2E2E2"/>
<path opacity="0.3" d="M80.455 45.0737C131.096 53.7767 159.143 81.2567 159.126 88.7967C159.11 96.3367 72.612 103.841 72.612 103.841L38.979 107.354C38.979 107.354 137.019 91.3367 140.665 84.7547C154.694 59.4347 76.708 48.8147 62.324 46.5097L80.455 45.0737Z" fill="#606060"/>
<path opacity="0.3" d="M141.467 107.292C94.2118 117.892 99.0308 144.847 148.066 158.292L168.938 169.945L159.126 167.706C159.126 167.706 154.693 165.623 146.695 160.552C146.695 160.552 58.4518 143.222 55.1338 121.389C51.8158 99.5561 132.852 106.047 132.852 106.047L141.467 107.292Z" fill="#606060"/>
<path opacity="0.3" d="M129.155 170.992C87.19 155.328 10.675 124.698 55.342 107.857L48.384 109.202C48.384 109.202 32.184 115.165 47.565 133.766C62.947 152.366 96.406 168.875 96.406 168.875L100.56 168.259L129.155 170.992Z" fill="#606060"/>
<path opacity="0.3" d="M47.7607 169.596C56.5707 190.975 96.1787 215.022 112.874 217.552L119.651 228.385L121.31 227.02L126.682 207.245C126.682 207.245 85.0447 212.703 60.7577 184.868C49.8497 172.367 53.3977 168.661 53.3977 168.661L47.7607 169.596Z" fill="#606060"/>
<path opacity="0.3" d="M155.791 197.067L149.298 203.1C149.298 203.1 106.72 206.235 75.8999 174.182L82.3649 172.649C82.3649 172.649 85.8109 189.702 113.943 197.064C142.075 204.428 155.791 197.067 155.791 197.067Z" fill="#606060"/>
<path opacity="0.5" d="M57.6938 46.908C57.6938 46.908 82.1508 46.226 100.495 46.5C118.84 46.774 145.822 48.031 145.822 48.031C145.822 48.031 116.207 44.779 100.823 44.093C85.4388 43.407 57.6938 46.908 57.6938 46.908Z" fill="#E2E2E2"/>
<path d="M75.8908 148.426C75.0698 148.426 74.3988 148.22 73.8988 147.813C70.9388 145.433 72.9198 135.657 75.6038 124.08C76.1598 121.679 76.7348 119.202 76.7758 118.501C76.2928 117.761 73.5958 115.526 71.2058 113.546C62.9628 106.715 56.7178 101.209 57.4598 97.6642C58.0808 94.6942 64.7098 93.5562 78.4078 92.2632C81.4508 91.9762 84.8828 91.6512 85.6888 91.3712C86.1198 90.7482 87.1938 88.0672 88.1458 85.6892C92.3568 75.1752 96.1698 66.4722 100.184 66.4722C100.617 66.4722 101.06 66.5922 101.503 66.8292L101.619 66.8902C105.162 68.9082 109.587 78.9522 113.456 88.2092C114.05 89.6292 114.661 91.0922 114.924 91.6212C115.79 91.8952 118.944 92.1322 121.746 92.3432C132.18 93.1282 140.965 94.0492 142.794 97.3692C142.937 97.6112 143.024 97.9112 143.036 98.2342C143.209 100.699 138.954 104.422 131.926 110.257C128.579 113.036 123.997 116.841 123.763 117.951C123.712 118.711 124.417 121.876 125.098 124.937C127.528 135.852 129.326 145.102 126.695 147.739C126.247 148.188 125.608 148.417 124.794 148.417C121.244 148.417 113.589 143.936 105.389 138.945C103.17 137.594 100.882 136.202 100.122 135.872C99.4028 136.195 97.3038 137.525 95.2698 138.814C87.3348 143.843 79.8898 148.362 75.9868 148.425L75.8908 148.426Z" fill="url(#paint9_linear_2402_524)"/>
<path d="M140.77 97.7831V97.7931C141.037 101.581 122.264 113.777 122.059 116.76C121.859 119.677 128.631 141.561 125.201 144.99C122.412 147.784 101.666 133.236 100.134 133.149H100.119C98.8069 133.149 82.3459 145.262 76.6709 145.355H76.6659C76.0919 145.365 75.6309 145.252 75.3079 144.991C71.6529 142.059 78.7269 119.088 78.4759 117.176C78.2249 115.259 58.6939 102.212 59.7039 97.4041C60.5399 93.4151 85.2639 93.0721 86.7449 91.9241C88.2269 90.7711 95.0909 67.9951 100.186 67.9951C100.463 67.9951 100.755 68.0871 101.057 68.2621L101.073 68.2671C105.584 70.8301 112.879 90.8481 113.74 92.0791C114.663 93.3961 138.131 92.8171 140.663 97.4051C140.729 97.5161 140.765 97.6451 140.77 97.7831Z" fill="url(#paint10_linear_2402_524)"/>
<path opacity="0.5" d="M100.154 109.22L78.4749 117.176C78.2239 115.259 58.6929 102.212 59.7029 97.4043L100.154 109.22Z" fill="#7E527C"/>
<path opacity="0.5" d="M113.739 92.0781L100.155 109.22L100.186 67.9951L101.057 68.2621L101.073 68.2671C105.583 70.8291 112.878 90.8471 113.739 92.0781Z" fill="#7E527C"/>
<path opacity="0.5" d="M140.77 97.7833V97.7933C141.037 101.581 122.264 113.777 122.059 116.76L100.154 109.219L140.662 97.4033L140.77 97.7833Z" fill="#7E527C"/>
<path opacity="0.5" d="M125.201 144.991C122.412 147.785 101.666 133.237 100.134 133.15V133.17C100.124 133.155 100.119 133.15 100.119 133.15L100.155 109.221L125.201 144.991Z" fill="#7E527C"/>
<path opacity="0.5" d="M100.154 109.22L100.133 133.149V133.169C100.123 133.154 100.118 133.149 100.118 133.149C98.8056 133.149 82.3446 145.262 76.6696 145.355H76.6646L75.3066 144.991L100.154 109.22Z" fill="#7E527C"/>
<path d="M100.154 109.22L59.7026 97.4043C60.5386 93.4153 85.2626 93.0723 86.7436 91.9243L100.154 109.22Z" fill="white"/>
</g>
<defs>
<linearGradient id="paint0_linear_2402_524" x1="100.22" y1="243.507" x2="100.22" y2="52.5179" gradientUnits="userSpaceOnUse">
<stop stop-color="#728EE3"/>
<stop offset="0.2989" stop-color="#836888"/>
<stop offset="1" stop-color="#6D636A"/>
</linearGradient>
<linearGradient id="paint1_linear_2402_524" x1="172.394" y1="114.734" x2="200.44" y2="114.734" gradientUnits="userSpaceOnUse">
<stop stop-color="#8680E8"/>
<stop offset="1" stop-color="#3B80F4"/>
</linearGradient>
<linearGradient id="paint2_linear_2402_524" x1="1.27171e-05" y1="116.148" x2="29.8194" y2="116.148" gradientUnits="userSpaceOnUse">
<stop stop-color="#8680E8"/>
<stop offset="1" stop-color="#3B80F4"/>
</linearGradient>
<linearGradient id="paint3_linear_2402_524" x1="100.477" y1="204.171" x2="100.477" y2="18.07" gradientUnits="userSpaceOnUse">
<stop stop-color="#728EE3"/>
<stop offset="0.2989" stop-color="#624A66"/>
<stop offset="1" stop-color="#6D636A"/>
</linearGradient>
<linearGradient id="paint4_linear_2402_524" x1="100.475" y1="28.48" x2="100.475" y2="197.066" gradientUnits="userSpaceOnUse">
<stop stop-color="#D23FDA"/>
<stop offset="0.8166" stop-color="#781297"/>
<stop offset="1" stop-color="#3E4CE6"/>
</linearGradient>
<linearGradient id="paint5_linear_2402_524" x1="139.228" y1="203.14" x2="139.228" y2="61.9406" gradientUnits="userSpaceOnUse">
<stop stop-color="#D2CDDE"/>
<stop offset="0.5428" stop-color="#7C759B"/>
<stop offset="1" stop-color="#D4E7EA"/>
</linearGradient>
<linearGradient id="paint6_linear_2402_524" x1="100.479" y1="224.19" x2="100.479" y2="0.000694862" gradientUnits="userSpaceOnUse">
<stop stop-color="#D2CDDE"/>
<stop offset="0.1468" stop-color="#CFC9DB"/>
<stop offset="0.2783" stop-color="#C4BFD3"/>
<stop offset="0.4041" stop-color="#B2ACC5"/>
<stop offset="0.5255" stop-color="#9993B2"/>
<stop offset="0.6341" stop-color="#7C759B"/>
<stop offset="0.6955" stop-color="#9D95AE"/>
<stop offset="1" stop-color="#D4E7EA"/>
</linearGradient>
<linearGradient id="paint7_linear_2402_524" x1="100.475" y1="197.066" x2="100.475" y2="37.3702" gradientUnits="userSpaceOnUse">
<stop stop-color="#AE64C9"/>
<stop offset="1" stop-color="#8E98E5"/>
</linearGradient>
<linearGradient id="paint8_linear_2402_524" x1="100.477" y1="20.6692" x2="100.477" y2="82.7497" gradientUnits="userSpaceOnUse">
<stop stop-color="#2743B8"/>
<stop offset="1" stop-color="#CBC2E5"/>
</linearGradient>
<linearGradient id="paint9_linear_2402_524" x1="57.3999" y1="107.45" x2="143.04" y2="107.45" gradientUnits="userSpaceOnUse">
<stop stop-color="#6A6EA8"/>
<stop offset="1" stop-color="#624A66"/>
</linearGradient>
<linearGradient id="paint10_linear_2402_524" x1="100.219" y1="67.9945" x2="100.219" y2="145.356" gradientUnits="userSpaceOnUse">
<stop offset="1" stop-color="#D4E7EA"/>
</linearGradient>
<clipPath id="clip0_2402_524">
<rect width="201" height="244" fill="white"/>
</clipPath>
</defs>
</svg>
