<svg width="200" height="200" viewBox="0 0 200 200" fill="none" xmlns="http://www.w3.org/2000/svg">
<rect width="200" height="200" rx="43" fill="#BAADCB"/>
<path d="M150 135.78C150 163.869 127.203 186.666 99.1148 186.666C71.0262 186.666 48.2296 163.869 48.2296 135.78C48.2296 112.866 63.4015 93.4729 84.2413 87.1062V100.777C70.6358 106.571 61.0893 120.067 61.0893 135.78C61.0893 156.771 78.1247 173.806 99.1148 173.806C120.105 173.806 137.14 156.771 137.14 135.78C137.14 120.067 127.594 106.571 113.988 100.777V87.1062C134.828 93.4729 150 112.866 150 135.78Z" fill="#292630"/>
<path d="M83.187 45.5783L95.6236 43.3854L109.196 120.358L96.7593 122.551L83.187 45.5783Z" fill="#292630"/>
<path d="M99.1148 14.1313C104.302 14.1313 108.512 18.3414 108.512 23.5288C108.512 28.7163 104.302 32.9263 99.1148 32.9263C93.9274 32.9263 89.7173 28.7162 89.7173 23.5288C89.7173 18.3414 93.9274 14.1313 99.1148 14.1313Z" fill="#292630"/>
</svg>
