<svg width="325" height="360" viewBox="0 0 325 360" fill="none" xmlns="http://www.w3.org/2000/svg">
<path d="M102.583 156.708L86.0061 165.265L73.8642 224.036C69.7172 224.33 58.5231 218.22 48.7821 212.189C40.1311 206.838 26.2632 191.149 26.2072 189.674C26.2072 189.67 26.2072 189.67 26.2072 189.67C29.6122 186.355 32.6471 184.645 32.6471 184.645C32.6471 184.645 15.3311 162.603 14.1851 159.83C13.3821 157.881 7.45716 147.095 6.74516 144.446C6.74016 144.446 6.74015 144.442 6.74015 144.442C6.43915 143.32 26.6361 143.088 26.6361 143.088C26.6361 143.088 26.6322 143.088 26.6322 143.084C26.4132 142.925 21.5401 137.674 19.3371 134.499C14.7391 127.873 -0.583804 95.4136 0.0171956 95.4136C41.1742 95.4136 84.7662 129.771 86.7802 132.956C87.2612 133.714 87.7681 134.577 88.3001 135.52C91.9741 142.042 96.8862 152.284 102.583 156.708Z" fill="url(#paint0_linear_2404_576)"/>
<path opacity="0.5" d="M102.583 156.708L86.006 165.265L73.8641 224.036C66.0331 224.593 37.1191 207.413 26.2061 189.674C26.3261 190.478 37.1151 196.412 46.1711 194.541C51.5641 193.427 80.1091 173.005 77.4811 171.148C75.8621 170.004 51.2911 174.048 32.6461 184.646C32.6461 184.646 15.3311 162.605 14.1841 159.831C13.3811 157.882 7.45509 147.095 6.74209 144.447C7.64809 145.729 11.3431 151.099 21.4831 157.683C26.7321 161.093 45.358 166.723 55.665 168.568C62.333 169.76 85.894 159.503 83.897 155.87C82.91 154.072 72.5351 144.444 26.6351 143.089C26.6351 143.089 26.6301 143.089 26.6301 143.085C26.4111 142.926 21.5381 137.675 19.3361 134.5C14.7381 127.874 -0.5469 95.6234 0.0150994 95.4136C0.0150994 95.4136 8.47106 114.005 31.235 127.376C34.524 129.307 86.8701 135.925 86.7801 132.957C90.5721 138.958 96.0611 151.643 102.583 156.708Z" fill="#6E5066"/>
<path opacity="0.5" d="M24.3065 124.679C27.4435 128.041 38.8604 142.702 38.2604 142.795C33.8514 143.472 27.8835 142.091 26.7755 141.309C19.9555 136.498 10.7784 119.704 7.32645 111.644C5.32345 106.965 21.4015 121.565 24.3065 124.679Z" fill="url(#paint1_linear_2404_576)"/>
<path opacity="0.5" d="M25.3804 162.727C26.6614 164.169 35.1634 183.394 32.6474 182.411C30.1324 181.427 15.1514 163.624 11.3944 152.727C10.4534 149.997 23.1614 160.229 25.3804 162.727Z" fill="url(#paint2_linear_2404_576)"/>
<path opacity="0.5" d="M29.6736 193.724C29.7896 194.723 45.3937 213.513 71.7247 223.028C74.8487 224.157 72.5717 212.471 69.9717 209.136C64.2917 201.85 29.3206 190.681 29.6736 193.724Z" fill="url(#paint3_linear_2404_576)"/>
<path d="M31.2365 127.376C42.5775 130.557 82.0425 134.297 85.1955 133.59C87.8565 132.994 11.8295 111.692 16.6915 116.683C19.8335 119.908 29.1045 126.777 31.2365 127.376Z" fill="white"/>
<path opacity="0.5" d="M86.9972 137.323C77.2392 132.957 29.5283 127.834 29.6683 128.84C29.9903 131.145 39.1092 142.049 40.4072 142.592C42.4882 143.462 56.5713 140.995 97.3713 155.452C98.8603 155.98 91.4262 139.306 86.9972 137.323Z" fill="#BFB5DF"/>
<path opacity="0.5" d="M102.583 156.709L86.0062 165.265L73.8642 224.036C69.7172 224.33 58.5231 218.22 48.7821 212.189C48.7821 212.189 46.5582 198.638 46.1722 194.54C45.7862 190.446 50.4882 176.758 50.4882 176.758C50.4882 176.758 42.4751 167.308 42.7331 165.312C43.6271 158.402 63.1521 145.978 63.1521 145.978C63.1521 145.978 96.8861 152.284 102.583 156.709Z" fill="url(#paint4_linear_2404_576)"/>
<path d="M221.167 156.708L237.744 165.265L249.886 224.036C254.033 224.33 265.227 218.22 274.969 212.189C283.62 206.838 297.488 191.149 297.544 189.674C297.544 189.67 297.544 189.67 297.544 189.67C294.139 186.355 291.104 184.645 291.104 184.645C291.104 184.645 308.419 162.603 309.566 159.83C310.369 157.881 316.294 147.095 317.007 144.446C317.011 144.446 317.011 144.442 317.011 144.442C317.312 143.32 297.115 143.088 297.115 143.088C297.115 143.088 297.119 143.088 297.119 143.084C297.338 142.925 302.211 137.674 304.414 134.499C309.012 127.873 324.336 95.4136 323.735 95.4136C282.578 95.4136 238.986 129.771 236.972 132.956C236.491 133.714 235.984 134.577 235.452 135.52C231.776 142.042 226.864 152.284 221.167 156.708Z" fill="url(#paint5_linear_2404_576)"/>
<path opacity="0.5" d="M221.167 156.708L237.743 165.265L249.885 224.036C257.717 224.593 286.631 207.413 297.543 189.674C297.423 190.478 286.634 196.412 277.578 194.541C272.185 193.427 243.64 173.005 246.268 171.148C247.886 170.004 272.458 174.048 291.103 184.646C291.103 184.646 308.419 162.605 309.565 159.831C310.368 157.882 316.294 147.095 317.007 144.447C316.101 145.729 312.405 151.099 302.266 157.683C297.016 161.093 278.391 166.723 268.084 168.568C261.417 169.76 237.855 159.503 239.852 155.87C240.839 154.072 251.213 144.444 297.115 143.089C297.115 143.089 297.119 143.089 297.119 143.085C297.338 142.926 302.211 137.675 304.413 134.5C309.012 127.874 324.296 95.6234 323.734 95.4136C323.734 95.4136 315.279 114.005 292.515 127.376C289.227 129.307 236.88 135.925 236.97 132.957C233.178 138.958 227.689 151.643 221.167 156.708Z" fill="#6E5066"/>
<path opacity="0.5" d="M299.444 124.679C296.307 128.041 284.89 142.702 285.49 142.795C289.899 143.472 295.866 142.091 296.975 141.309C303.795 136.498 312.972 119.704 316.423 111.644C318.427 106.965 302.349 121.565 299.444 124.679Z" fill="url(#paint6_linear_2404_576)"/>
<path opacity="0.5" d="M298.37 162.727C297.089 164.169 288.587 183.394 291.103 182.411C293.619 181.427 308.599 163.624 312.356 152.727C313.297 149.997 300.589 160.229 298.37 162.727Z" fill="url(#paint7_linear_2404_576)"/>
<path opacity="0.5" d="M294.077 193.724C293.961 194.723 278.274 208.608 276.565 210.105C274.086 212.277 252.08 227.157 252.806 223.028C254.119 215.562 256.108 206.603 259.327 203.723C261.72 201.582 294.228 192.43 294.077 193.724Z" fill="url(#paint8_linear_2404_576)"/>
<path d="M292.514 127.376C281.173 130.557 241.708 134.297 238.555 133.59C235.894 132.994 311.921 111.692 307.059 116.683C303.917 119.908 294.646 126.777 292.514 127.376Z" fill="white"/>
<path opacity="0.5" d="M236.754 137.323C246.512 132.957 294.223 127.834 294.083 128.84C293.761 131.145 284.642 142.049 283.344 142.592C281.263 143.462 267.18 140.995 226.379 155.452C224.89 155.98 232.324 139.306 236.754 137.323Z" fill="#BFB5DF"/>
<path opacity="0.5" d="M221.167 156.709L237.744 165.265L249.886 224.036C254.033 224.33 265.227 218.22 274.969 212.189C274.969 212.189 277.193 198.638 277.579 194.54C277.966 190.446 273.263 176.758 273.263 176.758C273.263 176.758 281.276 167.308 281.018 165.312C280.124 158.402 260.599 145.978 260.599 145.978C260.599 145.978 226.864 152.284 221.167 156.709Z" fill="url(#paint9_linear_2404_576)"/>
<path d="M261.9 176.748C253.836 206.335 247.998 239.384 234.063 266.379C225.691 282.599 207.717 295.794 193.707 307.659C183.422 316.368 172.903 324.84 162.099 332.932C137.678 314.782 108.512 294.698 91.4749 269.436C91.4729 269.436 91.472 269.436 91.47 269.436C90.765 268.368 90.147 267.348 89.659 266.38C75.865 239.003 69.881 206.317 61.823 176.749C61.11 167.205 62.774 157.408 64.856 148.103C129.702 145.998 194.567 146.001 259.412 148.122C261.22 157.47 262.626 167.225 261.9 176.748Z" fill="url(#paint10_linear_2404_576)"/>
<path opacity="0.5" d="M261.9 176.748C253.836 206.335 247.774 238.73 234.063 266.379C233.705 245.903 240.936 223.59 245.424 203.772C249.648 185.121 254.296 166.558 259.413 148.121C261.22 157.47 262.626 167.225 261.9 176.748Z" fill="url(#paint11_linear_2404_576)"/>
<path opacity="0.5" d="M162.101 332.93C161.095 332.497 160.252 307.937 166.353 300.741C174.261 291.413 189.644 284.275 201.346 277.608C206.522 274.659 232.437 261.369 233.693 265.09C234.812 268.409 224.104 279.973 219.793 284.334C212.09 292.127 202.721 299.85 194.436 307.044C182.907 317.054 162.101 332.93 162.101 332.93Z" fill="#6E5066"/>
<path opacity="0.5" d="M91.4749 269.435C91.4729 269.435 91.472 269.435 91.47 269.435C90.765 268.367 90.147 267.347 89.659 266.379C75.865 239.002 69.881 206.316 61.823 176.748C61.11 167.204 62.774 157.407 64.856 148.102C68.299 147.986 70.02 147.93 73.463 147.825C78.352 188.104 80.9799 230.092 91.4749 269.435Z" fill="url(#paint12_linear_2404_576)"/>
<path d="M239.955 153.931C233.33 148.192 226.517 142.952 219.25 138.008C219.244 138.004 219.241 138.002 219.236 137.998C202.969 127.81 185.741 119.585 167.167 114.254C167.165 114.254 167.164 114.254 167.162 114.254C165.541 113.789 164.09 113.402 162.825 113.082C162.552 113.011 162.415 112.976 162.141 112.906C161.869 112.976 161.734 113.011 161.462 113.082C132.741 120.377 106.435 134.737 84.3106 153.918C83.9576 154.237 83.7817 154.395 83.4297 154.713C83.4917 155.186 83.5227 155.423 83.5847 155.897C83.7367 157.052 83.9017 158.291 84.0797 159.603C85.5777 170.6 87.2587 181.671 89.1887 192.574C92.7077 212.46 95.6677 236.061 106.274 254.047C106.293 254.078 106.303 254.094 106.323 254.125C106.345 254.155 106.355 254.169 106.377 254.198C114.388 264.149 126.777 271.481 137.19 278.566C140.981 281.146 144.781 283.615 148.301 285.883C152.496 288.586 156.73 291.251 160.992 293.857C161.437 294.131 161.659 294.268 162.105 294.54C162.552 294.267 162.775 294.13 163.222 293.856C163.394 293.754 163.567 293.644 163.743 293.534C171.512 288.676 179.432 283.697 187.029 278.562C197.462 271.51 209.838 264.171 217.849 254.194C217.871 254.164 217.881 254.15 217.902 254.12C217.922 254.089 217.932 254.074 217.952 254.042C228.558 236.041 231.521 212.48 235.056 192.579C236.772 182.916 238.306 173.13 239.665 163.374C240.048 160.622 240.391 158.114 240.678 155.91C240.742 155.436 240.774 155.2 240.838 154.726C240.484 154.407 240.307 154.249 239.955 153.931ZM225.478 191.388C222.316 210.063 219.643 231.612 210.392 248.745C202.491 257.326 191.844 263.915 182.263 270.347C175.675 274.771 168.907 279.102 162.105 283.3C155.305 279.104 148.542 274.772 141.956 270.35C132.378 263.919 121.793 257.28 113.834 248.748C104.57 231.579 101.933 210.113 98.7707 191.383C96.9497 180.596 95.3627 169.666 94.0107 158.759C113.969 142.343 136.924 129.885 162.139 123.065C187.351 129.886 210.303 142.352 230.254 158.769C228.879 169.674 227.304 180.603 225.478 191.388Z" fill="url(#paint13_linear_2404_576)"/>
<path d="M230.253 158.77C228.879 169.674 227.305 180.603 225.478 191.388C222.316 210.062 219.643 231.612 210.392 248.744C203.075 259.314 192.681 267.501 182.211 274.648C175.711 279.086 168.89 283.407 162.104 287.605C155.32 283.409 148.503 279.088 142.005 274.651C131.529 267.499 121.158 259.317 113.832 248.748C105.489 233.26 102.918 214.203 99.7931 197.293C99.7881 197.289 99.7881 197.289 99.7881 197.289C99.4531 195.387 99.1071 193.415 98.7687 191.383C96.9717 180.563 95.3608 169.666 94.0088 158.759C97.8998 155.378 102.065 152.102 106.3 149.211C121.012 139.168 137.229 130.887 154.417 125.361C157.351 124.418 159.96 123.652 162.137 123.064C170.558 125.371 178.752 128.359 186.682 131.741C202.484 138.483 216.976 147.818 230.253 158.77Z" fill="url(#paint14_linear_2404_576)"/>
<path opacity="0.3" d="M238.183 155.724C235.001 156.935 233.415 157.545 230.252 158.77C210.3 142.353 187.349 129.887 162.137 123.066C162.138 120.017 162.138 118.492 162.139 115.442C164.145 114.964 165.149 114.726 167.161 114.253C167.163 114.253 167.164 114.253 167.166 114.253C185.739 119.585 202.968 127.81 219.235 137.998C219.241 138.002 219.244 138.003 219.249 138.007C225.601 143.872 231.914 149.775 238.183 155.724Z" fill="#7F6593"/>
<path d="M239.663 163.374C238.308 173.136 236.77 182.917 235.054 192.578C231.519 212.48 228.556 236.041 217.95 254.042C217.93 254.073 217.92 254.089 217.9 254.12C217.879 254.149 217.868 254.164 217.847 254.193C209.836 264.171 197.46 271.51 187.027 278.562C179.431 283.697 171.61 288.698 163.741 293.534C163.086 292.814 162.759 292.454 162.103 291.734C162.103 290.084 162.103 289.258 162.103 287.607C168.889 283.41 175.71 279.088 182.21 274.65C192.68 267.502 203.075 259.314 210.391 248.744C219.642 231.612 222.316 210.063 225.477 191.388C227.303 180.603 228.878 169.674 230.252 158.77C233.414 157.544 235.001 156.935 238.183 155.724C238.778 158.785 239.073 160.315 239.663 163.374Z" fill="url(#paint15_linear_2404_576)"/>
<path d="M259.357 148.061C257.776 146.41 256.054 144.792 254.36 143.218C254.13 143.005 253.89 142.789 253.641 142.563C245.905 135.581 237.318 129.446 228.603 123.679C228.603 123.679 225.705 123.03 221.37 120.331C217.169 117.716 215.762 116.208 215.679 116.119C215.677 116.117 215.676 116.116 215.674 116.114C199.979 108 183.623 100.993 166.599 96.4112C166.467 96.3761 166.332 96.338 166.195 96.3029C164.259 95.7973 162.941 95.4557 162.413 95.3327C162.36 95.323 162.307 95.3083 162.253 95.2986C162.216 95.2888 162.184 95.279 162.146 95.2693C162.146 95.2693 162.13 95.2742 162.104 95.279C162.077 95.2839 162.029 95.2937 161.976 95.3083C127.031 103.705 92.0019 121.332 66.6589 146.294C66.0549 146.888 65.4529 147.491 64.8569 148.102C64.8779 148.255 64.8879 148.332 64.9089 148.484C65.0299 149.439 65.3969 152.157 65.9829 156.163C65.9879 156.197 65.9909 156.215 65.9959 156.249C68.5799 173.838 71.5849 191.394 75.3329 208.783C79.2159 226.801 82.9599 247.203 92.8719 262.736C101.192 275.774 118.516 285.529 131.344 294.26C141.419 301.118 151.666 307.753 162.101 314.077C172.539 307.75 182.788 301.113 192.865 294.253C205.672 285.536 223.043 275.726 231.343 262.728C241.268 247.183 245.027 226.82 248.907 208.785C252.647 191.396 255.677 173.85 258.27 156.264C258.275 156.23 258.278 156.213 258.283 156.179C258.872 152.173 259.24 149.457 259.362 148.501C259.383 148.348 259.393 148.272 259.414 148.12C259.412 148.121 259.394 148.1 259.357 148.061ZM232.665 192.28C229.236 211.836 226.424 235.106 216.013 252.807C207.988 262.425 196.081 269.6 185.837 276.511C178.094 281.735 170.123 286.818 162.103 291.735C154.076 286.838 146.118 281.738 138.378 276.515C128.212 269.653 116.178 262.407 108.209 252.812C97.7979 235.127 94.9969 211.818 91.5809 192.275C89.4679 180.185 87.6479 167.938 86.0799 155.712C107.885 136.836 133.85 122.642 162.139 115.443C190.43 122.695 216.362 136.825 238.183 155.724C236.61 167.948 234.785 180.193 232.665 192.28Z" fill="url(#paint16_linear_2404_576)"/>
<path d="M257.613 148.204C255.501 141.184 232.163 127.413 219.336 119.789C202.247 109.631 170.742 95.2712 162.79 96.3643C162.623 96.3907 162.009 96.3907 161.842 96.3643C153.891 95.2702 121.949 108 104.86 118.159C92.0327 125.783 69.1307 141.184 67.0137 148.204C65.2627 154.029 69.0127 172.728 70.8387 172.737C72.5417 172.742 80.9777 169.935 85.5627 167.648C86.6347 167.117 84.6948 156.937 86.0798 155.712C111.961 132.771 138.438 122.247 159.21 115.442C161.849 114.578 162.723 114.857 163.61 115.187C179.927 121.256 212.672 132.771 238.553 155.712C239.938 156.937 237.998 167.117 239.07 167.648C243.649 169.935 252.091 172.742 253.794 172.737C255.62 172.728 259.369 154.029 257.613 148.204Z" fill="white"/>
<path opacity="0.7" d="M94.0088 158.77C95.3828 169.674 96.9577 180.603 98.7837 191.388C101.946 210.063 104.619 231.612 113.871 248.744C121.187 259.315 131.581 267.503 142.052 274.65C148.552 279.087 155.372 283.409 162.159 287.607C162.016 260.205 161.893 232.796 162.142 205.399C162.392 177.98 162.949 150.486 162.125 123.066C136.912 129.887 113.961 142.353 94.0088 158.77Z" fill="white"/>
<path opacity="0.5" d="M230.253 158.77C228.879 169.674 227.305 180.603 225.478 191.388C222.316 210.063 219.643 231.612 210.392 248.744C203.075 259.314 192.681 267.501 182.211 274.648C175.711 279.086 168.89 283.407 162.104 287.605C155.32 283.409 148.503 279.088 142.005 274.651C131.529 267.499 121.158 259.317 113.832 248.748C105.489 233.26 102.918 214.203 99.7931 197.294C99.7881 197.289 99.7881 197.289 99.7881 197.289C99.4531 195.387 99.1071 193.415 98.7687 191.383C96.9717 180.563 95.3608 169.666 94.0088 158.759C97.8998 155.378 102.055 152.159 106.3 149.211C106.382 149.17 106.424 149.15 106.507 149.109C102.42 152.185 98.6927 155.976 97.2917 160.036C94.1517 169.141 102.479 204.717 104.946 215.531C108.258 230.043 148.065 209.268 160.347 208.629C172.361 208.003 208.918 235.571 215.025 224.627C230.537 196.834 219.417 151.602 186.627 131.741C186.627 131.741 186.647 131.741 186.683 131.742C202.569 138.695 216.976 147.818 230.253 158.77Z" fill="url(#paint17_linear_2404_576)"/>
<path opacity="0.5" d="M86.5331 158.919C89.5351 161.232 94.7231 164.316 94.7231 164.316C99.5391 154.796 123.004 141.728 139.108 138.234C157.589 134.224 179.18 137.708 195.789 148.121C206.244 154.674 220.728 165.64 227.897 176.032C231.2 173.66 232.862 172.479 236.203 170.126C236.979 164.362 237.374 161.482 238.182 155.723C200.159 123.107 162.138 115.442 162.138 115.442C162.138 115.442 118.064 126.449 86.0791 155.711C86.2631 156.994 86.3531 157.636 86.5331 158.919Z" fill="url(#paint18_linear_2404_576)"/>
<path opacity="0.3" d="M252.68 174.252C249.608 172.72 238.701 170.424 236.991 174.703C235.952 177.305 233.3 192.342 231.523 201.919C228.065 220.556 225.149 223.742 222.808 233.829C221.928 237.62 238.437 237.394 240.835 235.771C242.683 234.521 243.497 230.955 246.454 217.067C248.943 205.377 251.909 193.605 253.626 181.753C254.119 178.362 254.66 175.24 252.68 174.252Z" fill="#7F6593"/>
<path opacity="0.3" d="M86.0801 170.472C84.7331 169.462 72.23 172.439 70.826 174.799C69.318 177.331 72.9221 195.76 74.9081 205.047C78.8391 223.43 81.8751 234.157 83.4291 236.652C86.8551 242.152 103.716 242.697 102.194 237.699C99.4802 228.789 96.7611 225.185 94.0101 208.63C92.1841 197.647 88.4931 172.282 86.0801 170.472Z" fill="#7F6593"/>
<path opacity="0.5" d="M164.48 329.026C163.284 329.243 163.129 315.649 163.705 314.896C169.487 307.326 193.373 297.452 186.631 311.999C184.637 316.302 168.734 328.256 164.48 329.026Z" fill="#6E5066"/>
<path d="M218.648 275.388C220.636 273.311 216.768 256.587 214.969 257.679C212.214 259.35 163.1 291.673 162.135 292.916C159.985 295.687 161.879 311.846 162.803 311.996C164.943 312.345 212.223 282.103 218.648 275.388Z" fill="white"/>
<path d="M137.729 123.066C140.683 121.801 138.441 102.784 135.23 103.888C108.996 112.907 82.1558 133.11 82.2218 133.976C82.3128 135.171 98.2018 142.944 104.821 139.988C109.678 137.818 124.889 128.565 137.729 123.066Z" fill="white"/>
<path opacity="0.8" d="M259.412 148.121C259.391 148.273 259.381 148.349 259.36 148.502C258.924 151.573 258.708 153.108 258.281 156.18C258.276 156.214 258.273 156.231 258.268 156.265C254.086 136.511 238.865 133.442 227.077 124.984C223.645 122.522 219.951 120.108 216.26 117.896C200.77 108.612 181.891 99.2426 163.638 97.2632C150.03 95.7875 122.259 109.961 106.179 119.766C93.165 127.702 70.28 140.387 65.994 156.249C65.989 156.215 65.986 156.197 65.981 156.163C65.557 153.092 65.342 151.555 64.907 148.484C64.886 148.331 64.876 148.254 64.855 148.102C65.451 147.492 66.053 146.878 66.657 146.294C92.185 121.591 126.532 103.509 161.974 95.3083C162.027 95.2937 162.075 95.2839 162.102 95.279C162.128 95.2742 162.144 95.2693 162.144 95.2693C162.182 95.279 162.214 95.2888 162.251 95.2986C162.304 95.3083 162.358 95.323 162.411 95.3327C163.684 95.647 164.95 95.9808 166.193 96.3029C166.33 96.338 166.465 96.3761 166.597 96.4112C183.615 100.984 199.977 108 215.672 116.114C215.674 116.116 215.675 116.117 215.677 116.119C215.761 116.208 217.167 117.716 221.368 120.331C225.703 123.029 228.601 123.679 228.601 123.679C237.362 129.467 245.846 135.56 253.639 142.563C253.889 142.788 254.128 143.006 254.358 143.218C257.333 145.961 259.043 147.724 259.355 148.061C259.394 148.101 259.412 148.121 259.412 148.121Z" fill="#7E527C"/>
<path d="M126.257 268.054C126.257 268.054 156.72 293.536 161.845 293.536C166.686 293.536 194.435 270.799 194.435 270.799C194.418 270.777 165.712 288.731 162.24 289.182C154.97 290.127 126.257 268.054 126.257 268.054Z" fill="white"/>
<path d="M231.981 196.263C232.325 196.338 216.013 252.808 216.013 252.808C215.776 252.701 224.055 239.277 228.507 222.815C230.562 215.212 231.981 196.263 231.981 196.263Z" fill="white"/>
<path d="M92.1327 195.486C91.7887 195.561 106.947 250.569 106.947 250.569C107.184 250.463 98.1697 234.242 95.0697 222.815C93.0067 215.213 92.1327 195.486 92.1327 195.486Z" fill="white"/>
<path opacity="0.2" d="M145.017 293.473C154.501 293.923 148.464 287.597 144.7 285.204C141.153 282.949 130.635 279.501 129.958 280.705C128.881 282.619 138.704 293.173 145.017 293.473Z" fill="#7F6593"/>
<path opacity="0.2" d="M147.168 297.184C141.233 294.842 139.157 294.031 141.989 298.619C144.821 303.208 150.992 298.693 147.168 297.184Z" fill="#7F6593"/>
<path d="M114.517 282.345C113.125 284.736 120.561 296.734 126.704 290.394C127.771 289.294 115.563 280.549 114.517 282.345Z" fill="#63495F"/>
<path opacity="0.5" d="M114.708 283.183C114.347 284.991 117.051 289.837 118.794 290.109C120.537 290.381 124.106 287.364 120.56 285.166C116.604 282.716 114.979 281.823 114.708 283.183Z" fill="#5B3952"/>
<path d="M119.652 291.369C124.541 294.092 128.129 292.766 127.566 290.893C127.004 289.021 125.505 288.486 125.505 288.486C125.505 288.486 126.973 289.601 126.184 290.718C125.396 291.835 119.652 291.369 119.652 291.369Z" fill="white"/>
<path d="M228.602 123.679C228.075 124.182 227.566 124.638 227.078 124.984C221.611 128.86 215.068 124.496 215.025 118.292C215.015 116.918 215.678 116.12 215.678 116.12C215.762 116.209 217.168 117.717 221.369 120.332C225.704 123.029 228.602 123.679 228.602 123.679Z" fill="#63495F"/>
<path opacity="0.5" d="M215.415 116.557C214.846 118.248 215.43 123.354 217.523 124.104C219.616 124.855 220.874 121.291 220.305 120.43C219.735 119.568 215.712 115.674 215.415 116.557Z" fill="#5B3952"/>
<path d="M217.387 124.509C217.387 124.509 221.476 128.352 227.832 124.378C227.832 124.378 227.11 128.153 222.609 128.169C220.179 128.179 217.387 124.509 217.387 124.509Z" fill="white"/>
<path opacity="0.5" d="M162.559 97.8791C161.655 103.202 161.319 112.488 163.34 114.254C165.36 116.019 185.214 123.066 193.119 126.45C193.859 126.767 198.068 110.213 192.162 105.898C188.385 103.138 163.117 94.5919 162.559 97.8791Z" fill="#6E5066"/>
<path d="M251.656 271.605C246.995 276.34 246.012 277.182 244.632 278.118C237.108 283.227 220.139 284.637 220.139 284.637L222.621 272.864L251.656 271.605Z" fill="url(#paint19_linear_2404_576)"/>
<path d="M237.735 250.264C250.89 255.573 253.217 270.432 251.656 271.605C239.814 280.511 222.621 272.865 222.621 272.865C222.621 272.865 216.854 256.262 219.201 252.808C221.281 249.747 237.735 250.264 237.735 250.264Z" fill="url(#paint20_linear_2404_576)"/>
<path opacity="0.3" d="M249.65 271.995C251.665 270.462 220.754 252.863 219.202 253.788C217.65 254.713 220.139 270.824 224.055 273.038C225.302 273.743 240.468 278.975 249.65 271.995Z" fill="#7F6593"/>
<path d="M251.153 270.562C252.212 269.818 251.867 259.399 240.836 252.085C236.189 249.004 219.768 251.658 220.138 252.038C220.509 252.419 250.101 271.301 251.153 270.562Z" fill="white"/>
<path d="M71.9697 271.605C76.6307 276.34 77.6137 277.182 78.9937 278.118C86.5177 283.227 103.488 284.637 103.488 284.637L101.005 272.864L71.9697 271.605Z" fill="url(#paint21_linear_2404_576)"/>
<path d="M85.892 250.264C72.737 255.573 70.409 270.432 71.97 271.605C83.813 280.511 101.005 272.865 101.005 272.865C101.005 272.865 106.772 256.262 104.425 252.808C102.345 249.747 85.892 250.264 85.892 250.264Z" fill="url(#paint22_linear_2404_576)"/>
<path opacity="0.3" d="M73.9772 271.995C71.9622 270.462 102.873 252.863 104.425 253.788C105.977 254.713 103.488 270.824 99.5722 273.038C98.3253 273.743 83.1582 278.975 73.9772 271.995Z" fill="#7F6593"/>
<path d="M72.4739 270.562C71.4149 269.818 71.7599 259.399 82.7909 252.085C87.4379 249.004 103.859 251.658 103.489 252.038C103.118 252.419 73.5259 271.301 72.4739 270.562Z" fill="white"/>
<path d="M281.152 162.247C278.835 168.412 278.282 169.568 277.404 170.968C272.62 178.597 259.23 186.55 259.23 186.55L255.087 174.797L281.152 162.247Z" fill="url(#paint23_linear_2404_576)"/>
<path d="M259.613 148.17C273.845 147.868 282.097 160.559 281.152 162.247C273.979 175.049 255.087 174.796 255.087 174.796C255.087 174.796 242.966 161.857 243.692 157.772C244.335 154.154 259.613 148.17 259.613 148.17Z" fill="url(#paint24_linear_2404_576)"/>
<path opacity="0.3" d="M279.475 163.391C280.689 161.197 245.136 157.215 244.096 158.672C243.056 160.128 251.973 173.903 256.47 174.392C257.902 174.547 273.945 173.385 279.475 163.391Z" fill="#7F6593"/>
<path d="M280.261 161.489C280.924 160.392 276.317 150.988 263.203 148.62C257.679 147.623 243.737 156.498 244.234 156.701C244.73 156.905 279.603 162.579 280.261 161.489Z" fill="white"/>
<path d="M43.1782 162.247C45.4952 168.412 46.0482 169.568 46.9262 170.968C51.7102 178.597 63.7842 185.415 63.7842 185.415L69.2432 174.797L43.1782 162.247Z" fill="url(#paint25_linear_2404_576)"/>
<path d="M64.7172 148.17C50.4852 147.868 42.2332 160.559 43.1782 162.247C50.3512 175.049 69.2432 174.796 69.2432 174.796C69.2432 174.796 81.3642 161.857 80.6382 157.772C79.9952 154.154 64.7172 148.17 64.7172 148.17Z" fill="url(#paint26_linear_2404_576)"/>
<path opacity="0.3" d="M44.8556 163.391C43.6416 161.197 79.1946 157.215 80.2346 158.672C81.2746 160.128 72.3576 173.903 67.8606 174.392C66.4286 174.547 50.3856 173.385 44.8556 163.391Z" fill="#7F6593"/>
<path d="M44.0696 161.489C43.4066 160.392 48.0145 150.988 61.1285 148.62C66.6525 147.623 80.5945 156.498 80.0975 156.701C79.6015 156.905 44.7276 162.579 44.0696 161.489Z" fill="white"/>
<path d="M132.427 248.547C131.433 248.547 130.622 248.303 130.016 247.823C126.433 245.012 128.831 233.462 132.08 219.787C132.753 216.95 133.449 214.023 133.498 213.197C132.914 212.323 129.649 209.682 126.756 207.343C116.78 199.273 109.22 192.768 110.119 188.581C110.871 185.073 118.894 183.728 135.474 182.201C139.157 181.861 143.311 181.479 144.287 181.148C144.809 180.412 146.108 177.245 147.261 174.436C152.358 162.016 156.973 151.734 161.831 151.734C162.355 151.734 162.891 151.876 163.428 152.157L163.568 152.228C167.857 154.612 173.212 166.477 177.896 177.413C178.615 179.09 179.354 180.819 179.673 181.443C180.721 181.766 184.538 182.047 187.93 182.296C200.559 183.225 211.193 184.312 213.406 188.233C213.58 188.519 213.684 188.875 213.699 189.254C213.908 192.166 208.758 196.565 200.251 203.458C196.2 206.74 190.653 211.236 190.37 212.547C190.308 213.445 191.161 217.183 191.986 220.8C194.928 233.695 197.104 244.622 193.919 247.736C193.377 248.267 192.603 248.537 191.618 248.537C187.321 248.537 178.056 243.244 168.131 237.347C165.445 235.751 162.675 234.105 161.756 233.716C160.885 234.099 158.345 235.669 155.882 237.192C146.278 243.132 137.266 248.471 132.542 248.545L132.427 248.547Z" fill="url(#paint27_linear_2404_576)"/>
<path d="M210.956 188.721V188.732C211.279 193.208 188.557 207.615 188.309 211.139C188.067 214.585 196.264 240.438 192.113 244.488C188.737 247.789 163.627 230.603 161.771 230.499H161.753C160.164 230.499 140.241 244.809 133.372 244.919H133.366C132.671 244.93 132.113 244.798 131.722 244.488C127.298 241.024 135.861 213.888 135.556 211.629C135.252 209.364 111.612 193.952 112.834 188.272C113.846 183.559 143.771 183.154 145.564 181.798C147.357 180.435 155.665 153.529 161.833 153.529C162.168 153.529 162.522 153.638 162.887 153.844L162.906 153.85C168.366 156.879 177.196 180.526 178.238 181.979C179.355 183.536 207.76 182.851 210.826 188.272C210.906 188.406 210.95 188.558 210.956 188.721Z" fill="url(#paint28_linear_2404_576)"/>
<path opacity="0.5" d="M161.796 202.231L135.556 211.63C135.252 209.365 111.612 193.953 112.834 188.273L161.796 202.231Z" fill="#7E527C"/>
<path opacity="0.5" d="M178.238 181.981L161.796 202.232L161.833 153.531L162.887 153.846L162.906 153.852C168.366 156.88 177.196 180.528 178.238 181.981Z" fill="#7E527C"/>
<path opacity="0.5" d="M210.956 188.721V188.732C211.279 193.208 188.557 207.615 188.309 211.139L161.796 202.231L210.826 188.273L210.956 188.721Z" fill="#7E527C"/>
<path opacity="0.5" d="M192.112 244.489C188.736 247.79 163.626 230.604 161.77 230.5V230.524C161.758 230.506 161.752 230.5 161.752 230.5L161.795 202.231L192.112 244.489Z" fill="#7E527C"/>
<path opacity="0.5" d="M161.797 202.231L161.772 230.5V230.524C161.76 230.506 161.754 230.5 161.754 230.5C160.165 230.5 140.242 244.81 133.373 244.92H133.367L131.723 244.489L161.797 202.231Z" fill="#7E527C"/>
<path d="M161.796 202.231L112.834 188.272C113.846 183.56 143.771 183.155 145.564 181.799L161.796 202.231Z" fill="white"/>
<path opacity="0.5" d="M78.4873 142.815C84.7353 165.211 93.6133 147.584 91.8003 141.28L78.4873 142.815Z" fill="#6E5066"/>
<path d="M91.8003 141.28C92.0753 145.624 88.8203 147.777 85.1433 147.777C81.4673 147.777 78.4863 144.869 78.4863 141.28C78.4863 137.692 80.7613 134.783 85.1433 134.783C88.8203 134.784 91.5743 137.699 91.8003 141.28Z" fill="#63495F"/>
<path d="M79.3035 141.28C81.7275 142.632 90.9946 141.342 90.9316 139.84C90.8676 138.338 87.2025 134.599 83.3215 135.371C79.7975 136.072 77.7765 140.429 79.3035 141.28Z" fill="white"/>
<path d="M80.5602 145.493C84.5752 148.322 89.4492 147.574 91.4352 143.389C92.9812 140.132 77.3102 143.203 80.5602 145.493Z" fill="white"/>
<path opacity="0.5" d="M231.407 142.55C237.656 164.945 246.533 147.318 244.72 141.014L231.407 142.55Z" fill="#6E5066"/>
<path d="M244.72 141.016C244.995 145.36 241.74 147.513 238.063 147.513C234.386 147.513 231.406 144.604 231.406 141.016C231.406 137.428 233.681 134.518 238.063 134.518C241.74 134.518 244.494 137.435 244.72 141.016Z" fill="#63495F"/>
<path d="M232.223 141.016C234.647 142.367 243.914 141.078 243.85 139.575C243.787 138.073 240.121 134.334 236.241 135.106C232.717 135.807 230.696 140.163 232.223 141.016Z" fill="white"/>
<path d="M233.48 145.228C237.494 148.058 242.369 147.309 244.355 143.125C245.901 139.868 230.23 142.937 233.48 145.228Z" fill="white"/>
<path opacity="0.5" d="M153.852 107.096C160.1 129.492 168.978 111.865 167.165 105.562L153.852 107.096Z" fill="#6E5066"/>
<path d="M167.165 105.562C167.44 109.905 164.185 112.059 160.508 112.059C156.831 112.059 153.851 109.151 153.851 105.562C153.851 101.973 156.126 99.0649 160.508 99.0649C164.185 99.0649 166.938 101.98 167.165 105.562Z" fill="#63495F"/>
<path d="M154.668 105.562C157.092 106.914 166.359 105.623 166.296 104.121C166.232 102.619 162.567 98.8803 158.686 99.6524C155.161 100.354 153.14 104.71 154.668 105.562Z" fill="white"/>
<path d="M155.925 109.775C159.94 112.604 164.814 111.856 166.8 107.671C168.345 104.414 152.675 107.484 155.925 109.775Z" fill="white"/>
<path opacity="0.5" d="M153.852 303.595C160.1 325.99 168.978 308.363 167.165 302.059L153.852 303.595Z" fill="#6E5066"/>
<path d="M167.165 302.059C167.44 306.404 164.185 308.557 160.508 308.557C156.831 308.557 153.851 305.648 153.851 302.059C153.851 298.471 156.126 295.562 160.508 295.562C164.185 295.563 166.938 298.478 167.165 302.059Z" fill="#63495F"/>
<path d="M154.668 302.059C157.092 303.411 166.359 302.122 166.296 300.619C166.232 299.117 162.567 295.378 158.686 296.15C155.161 296.852 153.14 301.208 154.668 302.059Z" fill="white"/>
<path d="M155.925 306.272C159.94 309.101 164.814 308.354 166.8 304.169C168.345 300.912 152.675 303.982 155.925 306.272Z" fill="white"/>
<path d="M131.721 61.2732C131.721 61.2732 129.621 66.2898 130.454 68.1491C131.287 70.0094 132.584 71.5973 130.811 75.0231C130.811 75.0231 133.68 75.3891 132.585 66.6236C132.167 63.2808 131.721 61.2732 131.721 61.2732Z" fill="#5D4A75"/>
<path d="M163.123 78.8841C162.553 79.0354 161.983 79.1818 161.413 79.338C152.323 81.7389 143.288 84.3204 134.313 87.102C130.518 84.2375 126.538 81.7243 122.438 79.416C116.863 76.2782 111.068 73.5112 105.188 70.7443C117.553 70.876 129.918 75.1802 130.813 75.024C132.993 74.6385 133.233 69.1241 131.493 62.1701C130.423 57.9001 147.713 67.3234 157.788 74.5751C159.148 75.5559 160.378 76.4978 161.413 77.3567C162.068 77.9032 162.643 78.4108 163.123 78.8841Z" fill="url(#paint29_linear_2404_576)"/>
<path d="M191.102 61.2732C191.102 61.2732 193.202 65.2445 192.368 67.1038C191.535 68.9641 190.238 71.5963 192.011 75.0231C192.011 75.0231 189.142 75.3891 190.238 66.6236C190.656 63.2808 191.102 61.2732 191.102 61.2732Z" fill="#5D4A75"/>
<path d="M217.383 70.7443C212.608 73.3063 207.933 75.5756 203.393 77.9609C198.248 80.6595 193.273 83.5094 188.508 87.1011C179.533 84.3195 170.503 81.738 161.413 79.337C160.843 79.1809 160.273 79.0345 159.703 78.8832C160.183 78.4098 160.758 77.8974 161.413 77.3558C162.493 76.453 163.793 75.4672 165.228 74.4375C175.328 67.2054 192.393 57.9236 191.328 62.1692C189.588 69.1232 189.828 74.6376 192.013 75.0231C192.903 75.1803 205.018 70.8751 217.383 70.7443Z" fill="url(#paint30_linear_2404_576)"/>
<path opacity="0.5" d="M203.393 77.9607C198.248 80.6593 193.273 83.5092 188.508 87.1009C179.533 84.3193 170.503 81.7378 161.413 79.3368C152.323 81.7378 143.288 84.3193 134.313 87.1009C130.518 84.2364 126.538 81.7232 122.438 79.4149C123.768 78.6829 124.653 78.2047 124.653 78.2047C135.753 75.955 147.208 74.9204 157.788 74.574C160.323 74.491 162.808 74.4471 165.228 74.4373C186.138 74.3397 202.048 76.648 202.048 76.648L203.393 77.9607Z" fill="url(#paint31_linear_2404_576)"/>
<path d="M200.071 91.7088C198.338 93.9897 197.154 95.645 197.154 95.645C197.154 95.645 196.489 106.236 195.912 107.16C195.335 108.083 191.664 110.287 190.084 111.057C158.15 126.639 132.485 111.057 132.485 111.057C132.485 111.057 127.234 108.084 126.657 107.16C126.08 106.236 125.414 95.645 125.414 95.645C125.411 95.6411 125.409 95.6382 125.406 95.6343C125.266 95.4381 123.388 92.756 120.78 89.544C120.779 89.5421 120.779 89.5411 120.778 89.5382C115.746 83.1483 105.186 70.7443 105.186 70.7443C105.465 69.8757 130.867 82.9521 133.074 82.2553C135.812 81.3895 138.214 64.3613 141.46 56.3356C145.309 46.8186 151.365 32.3768 161.099 27.0712C161.102 27.0429 161.103 27.0293 161.106 27C161.158 27 161.225 27.0059 161.284 27.0176C161.351 27.0059 161.41 27 161.469 27C161.469 27.0283 161.469 27.042 161.469 27.0712C180.342 38.1078 183.721 78.4762 189.534 81.4296C192.778 83.078 217.387 70.7443 217.387 70.7443C217.626 71.2274 205.506 84.5567 200.071 91.7088Z" fill="url(#paint32_linear_2404_576)"/>
<path opacity="0.5" d="M200.071 91.7089C198.301 93.9947 197.154 95.6451 197.154 95.6451C172.33 108.57 150.882 105.813 125.414 95.6451C125.411 95.6412 125.409 95.6383 125.406 95.6344C125.266 95.4382 123.388 92.7562 120.78 89.5442C129.687 97.2926 147.613 103.718 162.368 103.718C174.743 103.718 188.003 97.4254 200.071 91.7089Z" fill="url(#paint33_linear_2404_576)"/>
<path opacity="0.5" d="M132.485 111.057C132.477 111.07 143.159 117.983 160.426 117.98C177.896 117.977 190.084 111.057 190.084 111.057C190.079 111.048 176.118 116.193 159.702 116.193C144.206 116.193 132.485 111.057 132.485 111.057Z" fill="url(#paint34_linear_2404_576)"/>
<path d="M192.275 74.9657C192.245 74.9071 205.577 70.5093 217.386 70.7445C218.662 70.7699 194.417 84.5949 189.497 82.2554C186.151 80.6636 183.455 67.104 183.455 67.104C183.471 67.1001 188.839 78.9761 192.191 79.4758C195.873 80.0243 209.077 73.4373 209.077 73.4373C208.368 72.9092 192.275 74.9657 192.275 74.9657Z" fill="url(#paint35_linear_2404_576)"/>
<path d="M129.659 74.8504C129.687 74.7967 112.743 69.8991 104.987 70.4896C103.948 70.5687 128.35 84.666 133.069 82.2553C136.505 80.4995 138.558 66.0039 138.558 66.0039C138.54 65.999 133.758 78.8481 130.375 79.4766C126.645 80.1686 113.617 72.9842 113.617 72.9842C113.75 72.6261 129.659 74.8504 129.659 74.8504Z" fill="url(#paint36_linear_2404_576)"/>
<path d="M175.755 45.2131C175.755 45.2131 167.826 27 161.105 27C154.826 27 146.157 45.5772 146.157 45.5772C146.157 45.5772 155.395 33.546 161.286 33.142C166.597 32.7789 175.755 45.2131 175.755 45.2131Z" fill="url(#paint37_linear_2404_576)"/>
<path opacity="0.2" d="M161.585 97.5064C157.775 98.0559 138.087 83.4227 138.567 75.9914C139.265 65.1998 149.12 41.5601 160.703 38.6214C170.676 36.0906 181.161 62.3577 182.385 73.8696C183.635 85.6206 166.914 96.7383 161.585 97.5064Z" fill="#7F6593"/>
<path d="M133.743 110.143C130.457 104.882 131.871 100.18 132.785 99.6603C134.154 98.8795 151.202 104.077 152.743 105.483C154.048 106.673 160.869 115.081 156.618 115.042C151.874 114.999 135.05 112.236 133.743 110.143Z" fill="white"/>
<path opacity="0.5" d="M120.243 80.2546C116.243 78.7291 109.19 74.2219 109.19 74.2219C108.909 74.5489 119.327 88.5633 125.131 92.3062C127.09 93.5701 122.358 81.0617 120.243 80.2546Z" fill="url(#paint38_linear_2404_576)"/>
<path opacity="0.3" d="M174.901 105.048C171.699 108.35 173.233 115.187 173.869 115.039C178.849 113.878 186.545 112.021 190.085 108.661C192.541 106.329 191.933 99.386 191.111 99.6193C186.108 101.034 178.043 101.806 174.901 105.048Z" fill="#7F6593"/>
<path opacity="0.3" d="M177.093 99.9796C177.995 101.152 191.069 95.7662 194.754 92.5805C196.317 91.2287 199.1 83.7897 197.674 83.7409C196.247 83.693 184.405 83.0684 182.584 85.3093C179.347 89.2923 176.461 99.1578 177.093 99.9796Z" fill="#7F6593"/>
<path d="M196.28 92.8761C196.598 93.0859 213.178 76.248 213.181 75.6341C213.187 74.4687 202.078 79.9987 200.917 81.9078C197.701 87.1889 196.28 92.8761 196.28 92.8761Z" fill="white"/>
<path d="M196.303 97.2224C194.595 97.9427 194.09 97.3619 193.732 98.6288C193.374 99.8947 191.466 110.252 194.752 107.158C195.501 106.453 197.339 96.7851 196.303 97.2224Z" fill="white"/>
<path opacity="0.5" d="M125.719 97.2925C125.426 97.4379 125.996 105.491 127.381 107.122C128.766 108.753 132.893 110.868 132.567 109.897C131.271 106.055 125.719 97.2925 125.719 97.2925Z" fill="url(#paint39_linear_2404_576)"/>
<path d="M126.909 85.3932C125.508 86.9889 125.749 91.0266 129.693 92.9786C133.636 94.9306 151.368 101.007 150.868 98.4462C150.368 95.8852 141.808 84.3615 139.743 83.6569C137.677 82.9532 128.336 83.7691 126.909 85.3932Z" fill="white"/>
<path d="M132.585 101.986C136.868 112.941 151.352 107.903 150.878 106.5C150.405 105.097 130.677 97.1062 132.585 101.986Z" fill="white"/>
<path d="M112.873 73.8763C107.706 73.6323 121.304 79.9363 122.311 79.8162C125.131 79.4776 117.653 74.1017 112.873 73.8763Z" fill="white"/>
<path d="M211.958 74.1016C209.899 73.3511 206.385 74.4989 204.147 76.4577C202.89 77.5586 201.131 79.6473 201.678 79.4091C202.224 79.171 213.11 74.5213 211.958 74.1016Z" fill="white"/>
<defs>
<linearGradient id="paint0_linear_2404_576" x1="51.2915" y1="95.415" x2="51.2915" y2="224.047" gradientUnits="userSpaceOnUse">
<stop stop-color="#D2CDDE"/>
<stop offset="0.1468" stop-color="#CFC9DB"/>
<stop offset="0.2783" stop-color="#C4BFD3"/>
<stop offset="0.4041" stop-color="#B2ACC5"/>
<stop offset="0.5255" stop-color="#9993B2"/>
<stop offset="0.6341" stop-color="#7C759B"/>
<stop offset="0.6955" stop-color="#9D95AE"/>
<stop offset="1" stop-color="#D4E7EA"/>
</linearGradient>
<linearGradient id="paint1_linear_2404_576" x1="7.15465" y1="126.851" x2="38.2834" y2="126.851" gradientUnits="userSpaceOnUse">
<stop stop-color="#8680E8"/>
<stop offset="1" stop-color="#3B80F4"/>
</linearGradient>
<linearGradient id="paint2_linear_2404_576" x1="11.3449" y1="167.357" x2="33.1101" y2="167.357" gradientUnits="userSpaceOnUse">
<stop stop-color="#8680E8"/>
<stop offset="1" stop-color="#3B80F4"/>
</linearGradient>
<linearGradient id="paint3_linear_2404_576" x1="29.6712" y1="208.157" x2="73.2383" y2="208.157" gradientUnits="userSpaceOnUse">
<stop stop-color="#8680E8"/>
<stop offset="1" stop-color="#3B80F4"/>
</linearGradient>
<linearGradient id="paint4_linear_2404_576" x1="72.6553" y1="224.047" x2="72.6553" y2="145.98" gradientUnits="userSpaceOnUse">
<stop stop-color="#2743B8"/>
<stop offset="1" stop-color="#CBC2E5"/>
</linearGradient>
<linearGradient id="paint5_linear_2404_576" x1="272.459" y1="95.415" x2="272.459" y2="224.047" gradientUnits="userSpaceOnUse">
<stop stop-color="#D2CDDE"/>
<stop offset="0.1468" stop-color="#CFC9DB"/>
<stop offset="0.2783" stop-color="#C4BFD3"/>
<stop offset="0.4041" stop-color="#B2ACC5"/>
<stop offset="0.5255" stop-color="#9993B2"/>
<stop offset="0.6341" stop-color="#7C759B"/>
<stop offset="0.6955" stop-color="#9D95AE"/>
<stop offset="1" stop-color="#D4E7EA"/>
</linearGradient>
<linearGradient id="paint6_linear_2404_576" x1="285.467" y1="126.851" x2="316.596" y2="126.851" gradientUnits="userSpaceOnUse">
<stop stop-color="#8680E8"/>
<stop offset="1" stop-color="#3B80F4"/>
</linearGradient>
<linearGradient id="paint7_linear_2404_576" x1="290.64" y1="167.357" x2="312.406" y2="167.357" gradientUnits="userSpaceOnUse">
<stop stop-color="#8680E8"/>
<stop offset="1" stop-color="#3B80F4"/>
</linearGradient>
<linearGradient id="paint8_linear_2404_576" x1="252.789" y1="208.674" x2="294.078" y2="208.674" gradientUnits="userSpaceOnUse">
<stop stop-color="#8680E8"/>
<stop offset="1" stop-color="#3B80F4"/>
</linearGradient>
<linearGradient id="paint9_linear_2404_576" x1="251.095" y1="224.047" x2="251.095" y2="145.98" gradientUnits="userSpaceOnUse">
<stop stop-color="#2743B8"/>
<stop offset="1" stop-color="#CBC2E5"/>
</linearGradient>
<linearGradient id="paint10_linear_2404_576" x1="161.875" y1="332.932" x2="161.875" y2="146.527" gradientUnits="userSpaceOnUse">
<stop stop-color="#728EE3"/>
<stop offset="0.2989" stop-color="#836888"/>
<stop offset="1" stop-color="#6D636A"/>
</linearGradient>
<linearGradient id="paint11_linear_2404_576" x1="234.049" y1="207.25" x2="262.095" y2="207.25" gradientUnits="userSpaceOnUse">
<stop stop-color="#8680E8"/>
<stop offset="1" stop-color="#3B80F4"/>
</linearGradient>
<linearGradient id="paint12_linear_2404_576" x1="61.6553" y1="208.63" x2="91.4747" y2="208.63" gradientUnits="userSpaceOnUse">
<stop stop-color="#8680E8"/>
<stop offset="1" stop-color="#3B80F4"/>
</linearGradient>
<linearGradient id="paint13_linear_2404_576" x1="162.132" y1="294.541" x2="162.132" y2="112.906" gradientUnits="userSpaceOnUse">
<stop stop-color="#728EE3"/>
<stop offset="0.2989" stop-color="#624A66"/>
<stop offset="1" stop-color="#6D636A"/>
</linearGradient>
<linearGradient id="paint14_linear_2404_576" x1="162.131" y1="123.066" x2="162.131" y2="287.605" gradientUnits="userSpaceOnUse">
<stop stop-color="#D23FDA"/>
<stop offset="0.8166" stop-color="#781297"/>
<stop offset="1" stop-color="#3E4CE6"/>
</linearGradient>
<linearGradient id="paint15_linear_2404_576" x1="200.883" y1="293.534" x2="200.883" y2="155.723" gradientUnits="userSpaceOnUse">
<stop stop-color="#D2CDDE"/>
<stop offset="0.5428" stop-color="#7C759B"/>
<stop offset="1" stop-color="#D4E7EA"/>
</linearGradient>
<linearGradient id="paint16_linear_2404_576" x1="162.134" y1="314.079" x2="162.134" y2="95.27" gradientUnits="userSpaceOnUse">
<stop stop-color="#D2CDDE"/>
<stop offset="0.1468" stop-color="#CFC9DB"/>
<stop offset="0.2783" stop-color="#C4BFD3"/>
<stop offset="0.4041" stop-color="#B2ACC5"/>
<stop offset="0.5255" stop-color="#9993B2"/>
<stop offset="0.6341" stop-color="#7C759B"/>
<stop offset="0.6955" stop-color="#9D95AE"/>
<stop offset="1" stop-color="#D4E7EA"/>
</linearGradient>
<linearGradient id="paint17_linear_2404_576" x1="162.131" y1="287.605" x2="162.131" y2="131.743" gradientUnits="userSpaceOnUse">
<stop stop-color="#AE64C9"/>
<stop offset="1" stop-color="#8E98E5"/>
</linearGradient>
<linearGradient id="paint18_linear_2404_576" x1="162.132" y1="115.442" x2="162.132" y2="176.033" gradientUnits="userSpaceOnUse">
<stop stop-color="#2743B8"/>
<stop offset="1" stop-color="#CBC2E5"/>
</linearGradient>
<linearGradient id="paint19_linear_2404_576" x1="235.898" y1="284.638" x2="235.898" y2="271.606" gradientUnits="userSpaceOnUse">
<stop stop-color="#5D4877"/>
<stop offset="1" stop-color="#40314B"/>
</linearGradient>
<linearGradient id="paint20_linear_2404_576" x1="235.361" y1="250.231" x2="235.361" y2="275.919" gradientUnits="userSpaceOnUse">
<stop stop-color="#D2CDDE"/>
<stop offset="1" stop-color="#7C759B"/>
</linearGradient>
<linearGradient id="paint21_linear_2404_576" x1="87.7293" y1="284.638" x2="87.7293" y2="271.606" gradientUnits="userSpaceOnUse">
<stop stop-color="#5D4877"/>
<stop offset="1" stop-color="#40314B"/>
</linearGradient>
<linearGradient id="paint22_linear_2404_576" x1="88.266" y1="250.231" x2="88.266" y2="275.919" gradientUnits="userSpaceOnUse">
<stop stop-color="#D2CDDE"/>
<stop offset="1" stop-color="#7C759B"/>
</linearGradient>
<linearGradient id="paint23_linear_2404_576" x1="260.295" y1="186.985" x2="271.969" y2="158.486" gradientUnits="userSpaceOnUse">
<stop stop-color="#728EE3"/>
<stop offset="1" stop-color="#836888"/>
</linearGradient>
<linearGradient id="paint24_linear_2404_576" x1="262.443" y1="148.166" x2="262.443" y2="174.796" gradientUnits="userSpaceOnUse">
<stop stop-color="#D2CDDE"/>
<stop offset="1" stop-color="#7C759B"/>
</linearGradient>
<linearGradient id="paint25_linear_2404_576" x1="63.4235" y1="185.562" x2="52.3368" y2="158.496" gradientUnits="userSpaceOnUse">
<stop stop-color="#728EE3"/>
<stop offset="1" stop-color="#836888"/>
</linearGradient>
<linearGradient id="paint26_linear_2404_576" x1="61.8879" y1="148.166" x2="61.8873" y2="174.796" gradientUnits="userSpaceOnUse">
<stop stop-color="#D2CDDE"/>
<stop offset="1" stop-color="#7C759B"/>
</linearGradient>
<linearGradient id="paint27_linear_2404_576" x1="110.047" y1="200.14" x2="213.705" y2="200.14" gradientUnits="userSpaceOnUse">
<stop stop-color="#6A6EA8"/>
<stop offset="1" stop-color="#624A66"/>
</linearGradient>
<linearGradient id="paint28_linear_2404_576" x1="161.874" y1="153.53" x2="161.874" y2="244.92" gradientUnits="userSpaceOnUse">
<stop offset="1" stop-color="#D4E7EA"/>
</linearGradient>
<linearGradient id="paint29_linear_2404_576" x1="134.156" y1="61.1008" x2="134.156" y2="87.1015" gradientUnits="userSpaceOnUse">
<stop stop-color="#728EE3"/>
<stop offset="1" stop-color="#836888"/>
</linearGradient>
<linearGradient id="paint30_linear_2404_576" x1="188.543" y1="61.1001" x2="188.543" y2="87.1016" gradientUnits="userSpaceOnUse">
<stop stop-color="#728EE3"/>
<stop offset="1" stop-color="#836888"/>
</linearGradient>
<linearGradient id="paint31_linear_2404_576" x1="162.916" y1="74.4348" x2="162.916" y2="87.1014" gradientUnits="userSpaceOnUse">
<stop stop-color="#2743B8"/>
<stop offset="1" stop-color="#CBC2E5"/>
</linearGradient>
<linearGradient id="paint32_linear_2404_576" x1="105.186" y1="72.4913" x2="217.389" y2="72.4913" gradientUnits="userSpaceOnUse">
<stop stop-color="#D2CDDE"/>
<stop offset="0.1468" stop-color="#CFC9DB"/>
<stop offset="0.2783" stop-color="#C4BFD3"/>
<stop offset="0.4041" stop-color="#B2ACC5"/>
<stop offset="0.5255" stop-color="#9993B2"/>
<stop offset="0.6341" stop-color="#7C759B"/>
<stop offset="0.6955" stop-color="#9D95AE"/>
<stop offset="1" stop-color="#D4E7EA"/>
</linearGradient>
<linearGradient id="paint33_linear_2404_576" x1="160.426" y1="104.335" x2="160.426" y2="89.5442" gradientUnits="userSpaceOnUse">
<stop stop-color="#2743B8"/>
<stop offset="1" stop-color="#CBC2E5"/>
</linearGradient>
<linearGradient id="paint34_linear_2404_576" x1="161.285" y1="117.98" x2="161.285" y2="111.057" gradientUnits="userSpaceOnUse">
<stop stop-color="#2743B8"/>
<stop offset="1" stop-color="#CBC2E5"/>
</linearGradient>
<linearGradient id="paint35_linear_2404_576" x1="183.454" y1="74.8136" x2="217.434" y2="74.8136" gradientUnits="userSpaceOnUse">
<stop stop-color="#DCD5E6"/>
<stop offset="0.1477" stop-color="#DCD9E8"/>
<stop offset="1" stop-color="#DBEAF2"/>
</linearGradient>
<linearGradient id="paint36_linear_2404_576" x1="138.558" y1="74.2687" x2="104.955" y2="74.2687" gradientUnits="userSpaceOnUse">
<stop stop-color="#DCD5E6"/>
<stop offset="0.1477" stop-color="#DCD9E8"/>
<stop offset="1" stop-color="#DBEAF2"/>
</linearGradient>
<linearGradient id="paint37_linear_2404_576" x1="146.158" y1="36.2894" x2="175.755" y2="36.2894" gradientUnits="userSpaceOnUse">
<stop stop-color="#DCD5E6"/>
<stop offset="0.1477" stop-color="#DCD9E8"/>
<stop offset="1" stop-color="#DBEAF2"/>
</linearGradient>
<linearGradient id="paint38_linear_2404_576" x1="109.184" y1="83.3096" x2="125.596" y2="83.3096" gradientUnits="userSpaceOnUse">
<stop stop-color="#8680E8"/>
<stop offset="1" stop-color="#3B80F4"/>
</linearGradient>
<linearGradient id="paint39_linear_2404_576" x1="125.644" y1="103.718" x2="132.585" y2="103.718" gradientUnits="userSpaceOnUse">
<stop stop-color="#8680E8"/>
<stop offset="1" stop-color="#3B80F4"/>
</linearGradient>
</defs>
</svg>
