<svg width="800" height="800" viewBox="0 0 800 800" fill="none" xmlns="http://www.w3.org/2000/svg">
<rect width="800" height="800" fill="#CCCCCC"/>
<path d="M494.215 206.715C506.279 220.238 514.803 236.939 519.558 256.356C524.071 274.787 525.079 295.286 522.56 317.293C521.626 325.433 520.246 334.652 518.234 344.404C533.817 359.493 554.232 369.073 580.776 369.071C654.414 369.065 680.911 295.334 687.844 234.769C696.39 160.156 661.112 104.002 580.776 104.002C517.734 104.002 482.443 138.596 474.3 189.551C481.667 194.426 488.349 200.138 494.215 206.715Z" fill="white"/>
<path d="M779.971 544.639C779.169 521.139 776.414 497.528 772.31 474.389C767.347 446.363 761.02 405.271 736.55 387.005C722.399 376.446 704.074 372.981 687.876 366.614C679.989 363.515 672.925 360.438 666.297 356.935C643.921 381.474 614.744 394.307 580.769 394.31C554.332 394.31 530.816 386.5 511.134 371.482C506.602 385.499 500.537 399.613 492.427 412.509C499.549 416.798 507.253 420.224 516.613 423.902C520.757 425.531 525.305 427.018 530.123 428.591C543.144 432.846 557.9 437.67 571.15 447.56C602.645 471.071 610.398 515.125 616.06 547.295L616.669 550.767C619.598 567.263 621.748 583.469 623.132 599.214C648.268 596.639 673.277 592.238 697.798 587.06C717.62 582.876 737.308 577.77 756.377 570.891C771.608 565.396 780.597 562.842 779.971 544.639Z" fill="white"/>
<path d="M218.226 369.07C244.768 369.073 265.182 359.492 280.767 344.402C278.755 334.652 277.374 325.432 276.441 317.292C273.921 295.287 274.931 274.785 279.442 256.355C284.196 236.939 292.721 220.237 304.785 206.714C310.652 200.135 317.332 194.424 324.698 189.548C316.555 138.593 281.264 104 218.223 104C137.887 104 102.609 160.155 111.152 234.767C118.091 295.334 144.588 369.065 218.226 369.07Z" fill="white"/>
<path d="M227.851 447.562C241.1 437.671 255.859 432.848 268.878 428.593C273.697 427.02 278.243 425.532 282.387 423.904C291.748 420.227 299.454 416.802 306.574 412.511C298.467 399.617 292.398 385.5 287.868 371.484C268.186 386.501 244.669 394.311 218.233 394.311C184.259 394.31 155.08 381.474 132.705 356.937C126.078 360.439 119.012 363.516 111.126 366.616C94.9281 372.982 76.6031 376.448 62.4525 387.006C37.9835 405.274 31.6555 446.363 26.6915 474.391C22.5881 497.528 19.8326 521.139 19.0305 544.641C18.4063 562.845 27.3941 565.398 42.6241 570.893C61.6915 577.77 81.383 582.876 101.203 587.062C125.724 592.241 150.734 596.641 175.869 599.215C177.252 583.47 179.402 567.267 182.332 550.768L182.941 547.297C188.604 515.128 196.355 471.072 227.851 447.562Z" fill="white"/>
<path d="M603.869 552.972L603.256 549.484C597.961 519.396 590.708 478.191 563.227 457.676C551.637 449.025 538.517 444.739 525.826 440.591C520.829 438.958 516.112 437.415 511.617 435.649C505.065 433.075 499.163 430.555 493.632 427.768C470.399 458.77 438.198 475.094 399.895 475.097C361.603 475.097 329.407 458.773 306.174 427.768C300.642 430.557 294.739 433.077 288.185 435.652C283.696 437.415 278.975 438.958 273.979 440.591C261.287 444.738 248.164 449.027 236.577 457.676C209.087 478.193 201.839 519.408 196.546 549.501L195.933 552.977C191.51 577.953 188.87 602.183 188.089 624.991C187.173 651.749 203.782 657.714 218.433 662.979L220.011 663.547C237.631 669.904 257.342 675.35 280.266 680.195C327.078 690.076 365.067 694.793 399.811 695.04H399.9H399.99C434.74 694.792 472.727 690.076 519.531 680.195C542.459 675.353 562.168 669.907 579.78 663.549L581.357 662.982C596.013 657.718 612.627 651.754 611.71 624.99C610.931 602.121 608.29 577.894 603.869 552.972Z" fill="white"/>
<path d="M293.815 321.194C300.749 381.762 327.243 455.5 400.881 455.496C474.519 455.492 501.016 381.762 507.951 321.194C516.495 246.583 481.213 190.431 400.881 190.431C320.562 190.428 285.257 246.577 293.815 321.194Z" fill="white"/>
</svg>
